<?xml version="1.0" encoding="utf-8"?>
<!-- Generator: Adobe Illustrator 22.1.0, SVG Export Plug-In . SVG Version: 6.00 Build 0)  -->
<svg version="1.1" id="Layer_1" xmlns="http://www.w3.org/2000/svg" xmlns:xlink="http://www.w3.org/1999/xlink" x="0px" y="0px"
	 viewBox="0 0 500 500" style="enable-background:new 0 0 500 500;" xml:space="preserve">
<style type="text/css">
	.st0{fill-rule:evenodd;clip-rule:evenodd;fill:#231F20;}
</style>
<g>
	<path class="st0" d="M188.6,313.4c0.3,4.3,0.6,8.2,0.8,12.2c0.1,2.6,0.1,5.1,0.2,7.7c0,1.5,0.2,1.7,1.7,1.8c1.2,0,2.3-0.1,3.5-0.1
		c0.9,0,1.9-0.1,2.6,0.3c1.7,0.9,3.4,0.5,5.2,0.4c1.3,0,2.6-0.1,3.8-0.3c0.6-0.1,1.3-0.6,1.7-1.2c3-4.1,7-6.9,11.5-9.2
		c3-1.5,6-3.2,9.1-4.6c1.9-0.8,3.9-1.2,5.9-1.8c1.4-0.4,2.8-0.6,4.2-1c0,0,0.1,0,0.1,0c0.8-1.7,2.7-1.1,4-1.9c1.3-0.8,3-1.1,4.4-1.6
		c2.3-0.9,4.5-1.7,6.7-2.7c0.8-0.3,1.6-0.8,2.3-1.3c2.2-1.5,4.3-3,6.4-4.5c3.2-2.3,6.4-4.5,9.3-7.1c0.9-0.9,2-1.6,3.1-2.3
		c2-1.4,3.9-2.9,5.9-4.2c1.7-1.1,3.6-1.9,5.5-2.8c2.4-1.3,4.8-2.6,7.3-3.8c2.3-1.2,4.8-2,7.4-2.2c0.9-0.1,1.8,0.2,2.7,0.4
		c1.2,0.2,2.4,0.4,3.6,0.5c1.9,0.2,3.3,1.3,4.7,2.5c0.2,0.2,0.3,0.4,0.5,0.5c0.2,0.1,0.4,0.2,0.6,0.2c0-0.2,0.1-0.4,0.1-0.6
		c0-0.4-0.2-0.8-0.2-1.2c0-0.2,0.3-0.4,0.5-0.7c0.1,0.2,0.3,0.4,0.3,0.7c-0.1,1.7,0.4,3.1,1.8,4.3c0.1,0.1,0.1,0.2,0.2,0.3
		c1.2,1.4,2.4,2.8,3.7,4.2c0.2,0.2,0.4,0.3,0.6,0.4c0.1-0.2,0.3-0.4,0.3-0.7c0-0.5,0-1-0.1-1.5c-0.1-2.3-0.2-4.5-0.3-6.8
		c0-1.8,0.1-3.6,0.2-5.3c0-0.2,0.2-0.3,0.3-0.5c0,0.2,0,0.3,0,0.4c0.1,3.9,0.2,7.8,0.2,11.7c0,1.2-0.2,2.4-0.1,3.5
		c0.1,0.7,0.5,1.3,0.9,2c0.6,1.1,1.2,2.1,1.8,3.2c0.2,0.4,0.4,0.6,0.9,0.2c1.1-0.8,2.3-1.4,3.5-2.1c0.1-0.1,0.3-0.1,0.5-0.1
		c0,0.2,0,0.5-0.1,0.6c-0.7,0.6-1.4,1.3-2.2,1.7c-1,0.5-1.5,1.3-1.4,2.3c0.1,1.5,0.2,3,0.3,4.5c0,0.3,0.3,0.5,0.4,0.7
		c0.1-0.3,0.3-0.5,0.3-0.7c0.1-1.7,0.2-3.5,0.3-5.2c0-0.2,0.1-0.4,0.1-0.6c0,0.2,0.1,0.4,0.1,0.6c0,3.3,0.1,6.6,0,9.9
		c0,1,0.3,1.1,1,0.6c1-0.7,2.1-1.4,3.1-2.1c0.4-0.3,0.7-0.8,1.1-0.9c1.6-0.6,1.6-2,1.6-3.3c0.2-2.4,0.4-4.8,0.5-7.2
		c0.1-1.1,0-2.3-0.1-3.4c-0.1-0.9-0.4-1-1.2-0.3c-0.6,0.5-1.2,1.1-1.8,1.7c-0.2,0.1-0.4,0.1-0.6,0.2c0.1-0.2,0.1-0.5,0.3-0.7
		c0.9-0.8,1.7-1.6,2.7-2.3c0.6-0.5,1.2-0.9,1.2-1.8c0-0.4,0-0.8,0.6-0.4c1,0.5,1.5-0.2,1.7-1c0.3-1,0.3-2.1,0.5-3.2
		c0.1-0.7,0.3-1.3,0.5-2c0-0.2-0.1-0.5-0.1-0.7c0-1.1-0.1-2.2-0.1-3.3c0,0,0.3-0.1,0.4-0.1c0.2,0.2,0.4,0.4,0.4,0.6
		c-0.1,1.5-0.2,3-0.3,4.6c0,0.9,0,1.7,0.1,2.6c0,0.1,0.4,0.2,0.4,0.1c1.1-0.8,2.3-1.4,3.1-2.4c0.6-0.7,0.9-1.9,1-2.9
		c0.2-1.5,0-3,0-4.4c0-0.1-0.2-0.3-0.2-0.3c-0.2,0-0.3,0.1-0.5,0.2c-0.2,0.1-0.5,0.2-0.7,0.3c0-0.3-0.1-0.8,0.1-1
		c1.5-1,1.2-2.6,1.2-4.1c0.1-5.2,0.2-10.5,0.2-15.7c0-4.6,0-9.2,0-13.7c0-0.4,0-0.7,0-1.1c0-0.6-0.1-1-0.9-0.7
		c-0.7,0.3-1.4,0.4-2.1,0.6c-2.7,0.9-5.5,1-8.3,1.2c-0.3,0-0.6,0-0.9-0.1c-0.1,0-0.2-0.1-0.3-0.2c0.1-0.1,0.1-0.2,0.2-0.2
		c0.2-0.1,0.5-0.3,0.7-0.3c1.9,0.5,3.6-0.2,5.3-0.9c1.1-0.5,2.3-0.7,3.4-1c0,0,0.1,0,0.1,0c2.4-0.8,2.7-1.1,2.8-3.6
		c0.1-1.3,0.4-2.5-0.2-3.7c0-0.1,0-0.2,0-0.3c1.4-2,0.4-4.1,0.4-6.1c0-0.7-0.4-1.2-1.3-1.2c-0.9,0-1.8-0.1-2.6-0.2
		c-0.7-0.1-1.5-0.4-2.2-0.5c-0.8-0.1-1.5-0.2-2.3-0.2c-3.6,0-7.2,0.1-10.8-0.1c-0.9,0-1.6-0.1-2.5,0.2c-0.8,0.2-1.6,0.1-2.5,0.2
		c-1.1,0.1-2.3,0.1-3.4,0.1c-0.3,0-0.7-0.1-1-0.2c0.3-0.2,0.7-0.5,1-0.5c1.6-0.1,3.3,0,4.9-0.1c0.7,0,1.4-0.2,2.1-0.2
		c3.7-0.1,7.4-0.3,11.1-0.4c1.8,0,3.6,0,5.4-0.1c0.5,0,1.2,0.1,1.3-0.7c0-0.1,0.3-0.2,0.4-0.2c2,0.6,1.2-1.1,1.3-1.8
		c0.1-0.5-0.1-1-0.2-1.5c0-0.1-0.3-0.4-0.4-0.3c-1,0.3-1.2,0.1-0.7-0.8c0.1-0.1,0.2-0.3,0.1-0.4c-1.1-1.2-1-2.8-1.3-4.3
		c-0.2-0.7-0.8-1.3-1.2-1.9c-0.6-0.9-1.1-2-1.9-2.8c-0.4-0.4-1-0.6-1.6-0.8c-0.1,0-0.4,0.1-0.5,0.2c-0.3,0.3-0.6,1-1,1
		c-0.6,0-1.3-0.3-1.9-0.5c-1.6-0.5-3.1-1.1-4.7-1.6c-1.2-0.4-2.4-0.8-3.7-1.1c-0.8-0.2-1.7-0.3-2.6-0.5c-1.3-0.2-2.6-0.6-3.9-0.7
		c-2.2-0.3-4.5-0.6-6.7-0.7c-6.2-0.2-12.4-0.1-18.7-0.3c-2.4-0.1-4.9-0.1-7.3-0.2c-5.5-0.3-11,0.2-16.6,0.5
		c-4.1,0.2-8.2,0.6-12.3,0.4c-5.4-0.3-10.7-0.2-16.1-0.6c-2.5-0.2-5,0.1-7.6,0.1c-2.4,0-4.7-0.1-7.1-0.1c-3.2,0-6.4,0.1-9.6,0.1
		c-3.3,0-6.5,0-9.8,0.1c-3.2,0-6.5,0.1-9.7,0.2c-0.3,0-0.7,0.4-1,0.7c-0.2,0.3-0.1,0.7-0.3,1c-0.5,0.7-1.4,0.6-1.7-0.2
		c-0.2-0.5-0.3-1-0.2-1.5c0.1-1.2-0.6-1.4-1.5-1.4c-1,0-2.1,0-3.1,0.2c-4.6,0.7-9.2,0.5-13.9,0.6c-1.8,0.1-3.6-0.3-5.4-0.4
		c-0.2,0-0.5,0-0.6-0.1c-0.2-0.3-0.4-0.6-0.6-1c0.3-0.2,0.7-0.4,1-0.4c1.1,0,2.2,0.2,3.2,0.2c0.7,0,1.3,0.1,2,0
		c0.2,0,0.6-0.3,0.5-0.4c-0.1-1.1,0.8-1,1.3-1c4.8,0.1,9.6,0.2,14.4,0.2c1.1,0,2.3-0.1,3.4-0.2c0.2,0,0.5-0.3,0.5-0.4
		c0.1-1.4,1.3-1.3,2.1-1.3c4.4,0,8.9,0.1,13.3,0.1c6.9,0.1,13.8,0.2,20.7,0.1c7.6,0,15.2-0.2,22.8-0.3c5.3,0,10.6,0,15.9,0.1
		c4.7,0.1,9.3,0.4,13.9,0.4c4.3,0,8.7-0.4,13-0.6c4.7-0.2,9.5-0.3,14.2,0.7c2.9,0.7,5.8,0.7,8.7,0.7c2.1,0,4.2,0.1,6.2,0.6
		c4.1,0.9,8.3,0.7,12.5,1c2.1,0.1,4.2-0.3,6.3-0.3c2.4,0,4.8,0.1,7.3,0.1c3.3,0,6.6-0.2,9.8,0c2.7,0.2,5.1-0.4,7.5-1.2
		c0.9-0.3,1.9-0.5,2.8-0.7c0.7-0.1,1.2-0.4,1.3-1.2c0.1-0.9,0.6-0.8,1.2-0.5c0.2,0.1,0.5,0.1,0.8,0.2c0-0.3,0.1-0.7,0-0.9
		c-1-2-2.9-2.7-4.8-2.7c-3.5-0.1-7.1,0.1-10.6,0.2c-1.4,0-2.9-0.1-4.3-0.1c-2.5,0-4.9,0-7.4-0.1c-1.7,0-3.5-0.1-5.2-0.1
		c-0.3,0-0.7,0.2-1,0.3c0.3,0.1,0.6,0.4,0.9,0.4c1,0.1,2.1,0.1,3.1,0.2c2.1,0.1,4.1,0.3,6.2,0.4c0.5,0,1,0,1.5-0.1
		c1.1-0.2,1.8,0.3,2.3,1.1c0.9,1.3,0.6,2.4-1,2.5c-2.9,0.2-5.9,0.2-8.8,0.2c-2.6,0-5.1-0.2-7.7-0.3c-0.2,0-0.6,0.1-0.8,0
		c-2.2-1.3-4.6-0.6-6.9-0.8c-0.4,0-0.7,0-1.1,0c-1,0.1-1.2-0.5-1.3-1.3c-0.1-0.8,0.4-1,1-1c1.9-0.2,3.9-0.3,5.8-0.6
		c0.7-0.1,1.5-0.3,2.2-0.4c-0.8-0.1-1.5-0.3-2.3-0.3c-2.7-0.1-5.5-0.2-8.2-0.2c-1.8,0-3.6,0.2-5.4,0.2c-3.2,0-6.4,0-9.6,0
		c-3.2,0-6.3,0.3-9.5,0.2c-5.3-0.1-10.7-0.5-16-0.7c-2.5-0.1-4.9,0.2-7.4,0.2c-5.3,0-10.5,1-15.8,0.5c-2.8-0.3-5.7,0.1-8.6,0.1
		c-1.8,0-3.6,0-5.4-0.1c-2.5,0-4.9-0.1-7.4-0.2c-2.6-0.1-5.3-0.1-7.9-0.2c-4.2-0.1-8.3-0.3-12.5-0.5c-1,0-1.9,0-2.9-0.1
		c-0.5,0-0.9,0-1.4-0.1c-0.2,0-0.4-0.3-0.5-0.5c0.2-0.1,0.3-0.3,0.5-0.4c0.9-0.2,1.8-0.4,2.8-0.4c4.1,0.1,8.1-0.1,12.2-0.1
		c2.4,0,4.7,0.1,7.1,0.1c5.4,0,10.7,0.1,16.1,0c3,0,6-0.2,9-0.3c3.8-0.1,7.6-0.2,11.4-0.3c2.9-0.1,5.8-0.4,8.7-0.4
		c3.6,0.1,7.2,0,10.8,0.4c4,0.4,8,0.3,12.1,0.3c5.7-0.1,11.3-0.3,17-0.4c3.5-0.1,6.9,0,10.4,0c3.9-0.1,7.8-0.3,11.8-0.3
		c3.9,0,7.8,0.3,11.7,0.4c2.1,0,4.2-0.3,6.3-0.2c3.4,0.2,6.9-0.7,10.2,1c0.4,0.2,1.2,0,1.8-0.2c0.8-0.2,1.2,0,1.6,0.8
		c0.4,1,1.1,1.9,1.6,2.8c1.2,2.5,0.4,4.8-1,6.9c-1.2,1.9-2.1,3.7-2,6c0,0.7-0.5,1.4-0.5,2.1c-0.2,3.1-0.3,6.3-0.4,9.4
		c-0.1,1.9-0.2,3.7-0.2,5.6c0,1.2,0,2.3-0.1,3.5c-0.1,4.2-0.2,8.4-0.2,12.5c0,4.4,0.2,8.7,0.2,13.1c0,3.3-0.1,6.6-0.1,9.8
		c0,1.6,0.2,3.2,0.3,4.8c0.1,1.4,0.1,2.8,0.2,4.1c0.1,2.3,0.3,4.6,0.4,6.9c0.1,2.8,0,5.6,0.1,8.3c0.1,4.7,0.2,9.4,0.3,14
		c0,1.2-0.1,2.5-0.1,3.7c0,3.9,0,7.7-0.1,11.6c0,2.1-0.4,4.1-0.5,6.1c-0.1,2.1-0.1,4.1-0.1,6.2c-0.1,4-0.4,7.9-0.4,11.8
		c-0.1,3.9,0.1,7.7,0.1,11.6c0,3.6-0.2,7.2-0.3,10.8c0,1.7,0,3.5,0,5.2c0.1,4.2-0.4,8.4-1.1,12.6c-0.2,1.4-0.2,2.8-0.3,4.1
		c-0.1,1.9,0.1,3.8-0.2,5.7c-0.3,1.8,0.2,3.6,0.2,5.4c0.1,3.6,0.1,7.1,0.2,10.7c0.1,4,0.4,8,0.5,12c0.2,4.1,0.4,8.1,0.5,12.2
		c0.1,3,0,6,0,8.9c0.1,2.7,0.3,5.4,0.3,8c0,5,0,10-2.5,14.6c-0.2,0.4-0.2,0.9-0.2,1.3c0.2,1.5-0.5,2.6-1.7,3.3
		c-0.5,0.3-1.1,0.6-1.6,1c-2.2,2-4.9,2.8-7.6,3.7c-0.1,0-0.2,0-0.3,0.1c-3.3,1.9-6.9,1.7-10.5,2.1c-4.1,0.4-8.2,0.7-12.4,0.7
		c-3.6,0-7.2-0.4-10.8-0.6c-0.4,0-0.9,0.2-1.3,0.3c-0.3,0.1-0.6,0.2-0.9,0.2c-2.4,0.1-4.7,0.2-7.1,0.2c-2.1,0-4.3-0.2-6.5-0.3
		c-3.3-0.2-6.7-0.5-10-0.6c-3.2-0.1-6.4-0.1-9.6,0c-3.4,0.1-6.8,0.4-10.2,0.6c-0.8,0-1.6,0-2.3,0c-3.5,0-7-0.1-10.5-0.1
		c-7.1,0-14.3,0.1-21.4,0c-4.4,0-8.9-0.3-13.3-0.3c-4.9,0-9.7,0.3-14.6,0.4c-6,0.1-12,0.3-17.9,0.4c-7.2,0.1-14.5,0-21.7,0
		c-2.6,0-5.3-0.2-7.9-0.2c-2.4,0-4.7,0.2-7.1,0.3c-1.8,0.1-3.6,0.1-5.4,0.1c-2.9,0-5.9-0.2-8.8-0.1c-2.8,0.1-5.3-0.8-7.8-1.7
		c-4.1-1.5-7.4-4.1-10.1-7.5c-0.8-1-1.2-2.2-1.9-3.3c-1.8-2.8-2.9-5.8-3.4-9c-0.9-5.2-1.6-10.4-1.4-15.7c0.1-3,0.4-6,0.5-9
		c0.1-3.6,0.1-7.2,0-10.8c0-4.5-0.1-9.1-0.1-13.6c0-3.4,0.1-6.9,0-10.3c0-3.6-0.3-7.2-0.3-10.8c0-2.7,0.2-5.4,0.3-8
		c0-2.5-0.1-5-0.1-7.6c0-3.9,0-7.8,0.1-11.8c0-4.5,0.1-9.1,0.1-13.6c0-3.2,0.1-6.4,0-9.6c-0.1-2.6-0.5-5.2-0.6-7.9
		c-0.1-2.7-0.1-5.3-0.1-8c0-1.3-0.1-2.6-0.1-3.8c0-2.9,0-5.7,0-8.6c0-1.1-0.3-2.2-0.2-3.4c0.1-2.9,0.2-5.7,0.3-8.6
		c0.1-3.8,0.2-7.5,0.3-11.3c0.1-4.3,0.3-8.6,0.5-12.8c0-1.3,0-2.6,0-3.9c0-3.6,0.1-7.2,0-10.8c-0.1-5.4-0.4-10.8-0.6-16.2
		c-0.1-2.8-0.4-5.6-0.5-8.4c0-1.8,0.2-3.7,0.3-5.5c0.1-3.1,0.3-6.3,0.4-9.4c0.1-1.4,0.2-2.8,0.3-4.2c0.2-2.3,0.6-4.6,0.8-6.9
		c0.1-1,0.1-2-0.9-2.8c-1.8-1.3-2-3.3-2.3-5.4c-0.3-2.2,0.8-3,1.8-4.3c0.7-1,1.4-1.2,2.4-1.2c4.2,0.1,8.5,0.3,12.7,0.4
		c1.1,0,2.3-0.1,3.4-0.1c3.6,0.1,7.2,0.5,10.8,0.2c6.4-0.7,12.9-0.8,19.3-0.8c5.8,0,11.6,0.1,17.3,0.2c2.5,0.1,4.9,0.4,7.3,0.5
		c1.8,0.1,3.6,0,5.4,0c1,0,2,0.3,3.1,0.3c1.4,0.1,2.9,0.1,4.3,0.1c0.8,0,1.5,0.2,1.9,1c0.4,0.7,0.2,0.9-0.5,1c-4.3,0-8.5,0-12.8,0
		c-2.9,0-5.9-0.2-8.8-0.2c-3.7-0.1-7.4-0.2-11.1-0.2c-3.5,0-7,0.1-10.5,0.1c-3.3,0.1-6.6,0.1-9.9,0.2c-2.2,0.1-4.4,0.3-6.6,0.4
		c-2.4,0-4.8-0.1-7.3-0.1c-1.9,0-3.8,0.1-5.7,0c-3.3-0.1-6.6-0.4-9.9-0.5c-0.5,0-0.9-0.1-1.4,0c-0.3,0-0.8,0.1-0.8,0.3
		c-0.3,1.3-1.7,2.1-1.5,3.5c0.2,1.3,0.9,2.3,2.1,2.9c1,0.6,1.4,1.1,1.2,2.3c-0.4,3.9-0.8,7.9-1.1,11.9c-0.3,4.4-0.7,8.8-0.8,13.1
		c-0.1,3.6,0.1,7.1,0.2,10.7c0.1,4.8,0.4,9.7,0.4,14.5c0,7.2,0,14.5-0.1,21.7c-0.1,3.7-0.4,7.4-0.5,11.1c-0.2,9.7-0.6,19.4-0.1,29.1
		c0.3,5.4,0.4,10.8,0.6,16.3c0.1,1.8,0.1,1.8,1.9,1.7c0.5,0,0.9-0.2,1.4-0.2c0.3,0,0.7,0.1,0.8,0.3c0.6,0.6,1.3,1.1,2,0.6
		c0.6-0.5,1.2-1.4,1.2-2.1c0.2-1.7,0.1-3.4,0.1-5.1c0-1.5,0-3,0.1-4.6c0-0.3,0.2-0.7,0.3-1c0.1,0.3,0.4,0.7,0.4,1c0,2.6,0,5.3,0,7.9
		c0,0.8,0,1.6-0.1,2.3c0,0.9,0.3,1.3,1.3,1.4c1.4,0.1,2.8,0.4,4.3,0.5c0.5,0,1,0,1.5-0.1c3.4-0.6,6.7-1.3,10.1-1.7
		c1.4-0.2,2.8-0.6,4.1,0.5c0.2,0.2,0.7,0.2,1,0.2c2.5,0,5.1,0,7.6,0c2,0,3.9,0.2,5.9,0.1c1.9-0.1,3.9-0.3,5.8-0.5
		c2.7-0.2,5.4-0.4,8.2-0.6c1.3-0.1,1.7-0.6,1.7-2.2c0-4.3-0.1-8.7-0.1-13c0-1.9,0.3-3.8,0.4-5.7c0.1-1.1,0-2.2,0-3.3
		c-0.1-3.4-0.2-6.9-0.2-10.3c-0.1-2-0.1-3.9-0.2-5.9c0-0.3-0.1-0.6,0-0.8c0.3-0.5,0.7-0.9,1.1-1.4c0.1,0.5,0.3,1,0.3,1.4
		c0.1,2.8,0.2,5.5,0.3,8.3c0,0.9,0.5,1.5,1.3,1.6c0.7,0.1,1.4,0.2,2.1,0.2c1.8-0.1,3.7-0.2,5.5-0.4c2.2-0.1,4.4-0.3,6.6-0.4
		c0.1,0,0.2,0.1,0.3,0.1c-0.1,0.1-0.1,0.3-0.2,0.3c-0.3,0.1-0.6,0.1-0.9,0.1c-3.4,0.5-6.8,1.1-10.2,1.5c-1,0.1-2.1,0.4-3.1,0.2
		c-1.2-0.2-1.3,0.4-1.3,1.3C188.6,309.4,188.6,311.6,188.6,313.4L188.6,313.4z M274.9,414.3c-1.2,0.4-2.3,0.7-3.5,1.1
		c-1,0.3-2,0.8-3,1.2c-0.3,0.1-0.7,0.1-1,0.3c-0.3,0.1-0.4,0.4-0.7,0.6c0.3,0,0.5,0,0.8,0.1c0.4,0.2,1.1,0.6,1.1,0.7
		c-0.7,1.4,0.3,1.1,1,1.1c0.7,0,1.4,0.1,2.2,0.1c0.5,0,1-0.2,1.5-0.4c-0.4-0.1-0.9-0.3-1.3-0.3c-0.6-0.1-1.3-0.2-1.2-0.9
		c0-0.5,0.5-1.1,0.8-1.5c0.2-0.2,0.6-0.3,0.9-0.3C273.7,416.1,274.2,415.2,274.9,414.3c1.8,0.7,3-0.4,4.2-1.4
		c0.1-0.1,0.2-0.3,0.2-0.4c-0.1-0.1-0.3-0.3-0.4-0.3c-0.4,0.1-0.7,0.2-1.1,0.4C276.8,413.1,275.8,413.7,274.9,414.3L274.9,414.3z
		 M301.7,409.5c0.2,1,0.7,1.5,1.8,1.2c0.6-0.2,1.1-0.5,1.7-0.5c1.4,0,2.7,0.2,4.1,0.4c3.4,0.5,6.4-1.1,9.5-2.1
		c0.1-0.1,0.2-0.3,0.3-0.4c-0.2-0.1-0.4-0.2-0.5-0.2c-0.4,0-0.8,0-1.2,0.1c-1.2,0.4-2.3,0.7-3.5,1.2c-1.1,0.4-2.3,0.1-2.2-0.7
		c0.1-1.1-0.5-0.8-1-0.8c-2.1,0.2-4.2,0.5-6.4-0.1c-0.2-0.1-0.8,0.3-0.8,0.5C303.1,409,302.5,409.4,301.7,409.5
		c0.1-0.4,0.3-0.8,0.5-1.2c0.1-0.2,0-0.4-0.1-0.5c-0.7-0.6-2.5-0.5-3.1,0.2c-0.2,0.2-0.4,0.5-0.6,0.7c-0.1,0.1-0.3,0-0.4,0.1
		c0-0.1,0-0.3,0-0.4c0-0.3,0.1-0.5,0.1-0.8c-0.3,0-0.6-0.1-0.9,0c-0.4,0.2-0.7,0.6-1.1,0.8c-0.4,0.1-1.2,0.7-1.2-0.5
		c0-0.2-0.4-0.4-0.6-0.5c-0.7-0.1-1.4,0-1.9,0.8c-0.1,0.2-0.3,0.3-0.4,0.4c0-0.2,0.2-0.5,0.1-0.6c-0.2-0.3-0.5-0.7-0.7-0.7
		c-1.4-0.3-2.4,0.3-3.3,1.4c-0.4,0.5-0.8,1.1-1.3,1.7c0.8,0,1.6,0.1,2.4,0.1c0.2,0,0.3-0.2,0.5-0.3c0.1,0,0.2,0,0.3,0
		c1.2,0.7,2.4,0.8,3.5-0.3c0.1-0.2,0.7-0.2,0.8,0c0.9,0.8,1.8,1,2.7,0.4c0.3-0.2,0.4-0.5,0.8,0c0.1,0.2,0.6,0.2,1,0.3
		C299.9,410.6,300.8,409.9,301.7,409.5L301.7,409.5z M227.9,406.5c0.4,0.4,0.8,0.8,1.2,1.1c0.1,0.1,0.4,0.1,0.4,0
		c0.1-0.2,0.2-0.4,0.1-0.5c-0.5-0.9-1-1.8-1.5-2.7c-0.1-0.2-0.5-0.4-0.7-0.5c0,0.3,0.1,0.6,0.1,0.9
		C227.7,405.4,227.8,405.9,227.9,406.5c-0.4-0.6-0.8-1.3-1.2-1.8c-0.2-0.4-0.5-1-0.8-1.1c-1.2-0.4-2.4-0.7-3.6-0.8
		c-1.7-0.1-3.4,0-5.1-0.1c-5.3-0.2-10.6-0.5-15.9-0.7c-2.4-0.1-4.8,0-7.2,0c-2.7,0-2.7,0-2.9,2.6c-0.1,1.3,0.2,1.6,1.5,1.6
		c2.3,0.2,4.7-0.4,7.1,0.3c0.2,0.1,0.4,0,0.6,0c3,0,6.1,0,9.1,0.1c4.1,0.2,8.1,0.5,12.2,0.7c1.1,0.1,2.1,0.2,3.2,0.3
		c0.8,0.1,1.7,0,2.5,0C228.1,407.6,228.3,407.1,227.9,406.5L227.9,406.5z M277.4,354.1L277.4,354.1c0.3,0.1,0.6,0.4,0.9,0.4
		c1.9,0,3.9-0.2,5.8-0.2c2.2,0,4.4,0.1,6.6,0.2c1.8,0,3.5,0,5.3-0.1c0.9,0,2.5-1.6,2.2-2.2c-0.5-1.2,0.2-1.3,1-1.6
		c0.3-0.1,0.7-0.1,0.8-0.3c1-1.2,2-2.5,2.9-3.8c0.3-0.5,0.4-1-0.5-1c-0.7,0-1.4,0-2.2,0c-2.8,0-5.6,0.1-8.4,0.1
		c-2.2,0-4.4-0.1-6.6-0.1c-0.4,0-1.2,0.3-1.3,0.6c-0.1,1.4-1.4,2.2-1.9,3.3c-0.1,0.2-0.4,0.3-0.7,0.4c0-0.3-0.2-0.7-0.1-0.9
		c0.4-0.6,1-1.2,1.4-1.8c0.3-0.4,0.4-0.9,0.4-1.4c0-0.2-0.8-0.4-1.2-0.4c-1.9-0.1-3.7-0.1-5.6-0.1c-1.6,0-3.3,0-4.9,0.1
		c-0.5,0-1.1,0.6-1.6,0.6c-0.5,0-1-0.8-1.5-0.8c-1.4-0.1-2.8-0.1-4.1,0.2c-0.7,0.1-1.3,0.8-1.7,1.4c-0.5,0.6-0.7,1.4-1.1,2.2
		c-0.1,0.1-0.3,0.2-0.5,0.3c0-0.2-0.1-0.4,0-0.5c0.5-0.9,0.9-1.8,1.4-2.7c0.3-0.6,0.1-0.7-0.4-0.7c-1.4,0.1-2.9-0.1-4.3,0.3
		c-1,0.2-2,1-2.6,1.8c-1.1,1.4-1,1.5,0.8,1.7c1.5,0.2,3,0.4,4.4,0.7c0.4,0.1,0.6,0.6,0.9,1c0.1,0.1-0.1,0.4-0.2,0.5
		c-2.1,0.5-2.4,2.4-3.3,3.9c-0.1,0.1,0.1,0.6,0.3,0.7c0.3,0.1,0.7,0.1,1.1,0.1c1.1,0,2.2,0.1,3.2-0.1c1-0.1,1.8-0.4,2.9-0.1
		c0.7,0.2,1.5,0,2.3-0.1c2.7-0.5,5.1-0.1,7.3,1.6c0.1,0.1,0.5-0.1,0.6-0.3C276.2,355.9,276.8,355,277.4,354.1L277.4,354.1z
		 M274,358.4L274,358.4c-0.1-0.2-0.2-0.8-0.3-0.8c-1.3,0.2-2.9-0.7-4,0.7c-0.2,0.2-0.8,0.2-1.2,0.2c-2,0.1-4,0.3-6,0.5
		c-0.4,0-0.8,0.5-1.2,0.7c-0.1,0-0.3-0.5-0.5-0.8c0-0.1-0.2-0.1-0.3,0c-1.2,0.1-2.4,0.2-3.5,0.4c-1.3,0.2-2.6,0.6-3.9,1
		c-0.6-0.3-1.4-0.5-1.7-1c-0.4-0.7-0.9-0.7-1.5-0.7c-0.5,0-1.2,0.1-1.4-0.2c-0.4-0.5-0.6-0.5-0.9,0c-0.9,1.3-1.8,2.5-2.7,3.7
		c-0.5,0.7-0.2,1.1,0.6,1.1c1.6,0.1,3.2,0.1,4.8,0.1c0.8,0,1.4-0.5,1.7-1.3c0.2-0.6,0.8-1.2,1.2-1.7c-0.1,0.6-0.1,1.3-0.4,1.8
		c-0.7,1.3-0.7,1.4,0.7,1.5c0.9,0,1.8,0.1,2.6,0.1c0.8-0.1,1.7-0.4,2.5-0.3c0.8,0,1.5,0.4,2.3,0.6c0.1,0,0.2,0,0.3,0
		c2.3,0,4.6,0,6.9,0.2c1.5,0.1,2.7,0,3.2-1.7c0.1-0.3,0.5-0.5,0.8-0.8c-0.1,0.4-0.2,0.7-0.3,1.1c-0.6,1.1-0.5,1.3,0.8,1.3
		c1,0,2,0.1,2.9,0.1c0.8,0,1.5,0.3,1.5,1.2c0,1,0.5,0.8,1.1,0.8c0.9,0,1.7,0,2.6,0.1c0.2,0,0.4,0.3,0.5,0.4
		c-0.2,0.1-0.4,0.4-0.6,0.4c-1.1,0-2.2,0-3.2,0c-6.1-0.1-12.2-0.1-18.2-0.2c-1.4,0-2.7-0.2-3.4,1.4c0,0.1-0.3,0.1-0.4,0.1
		c0-0.1-0.1-0.3-0.1-0.4c0.9-1.3-0.3-1.1-0.9-1.1c-1.5-0.1-3.1-0.1-4.6-0.1c-1,0-1.6,1-1.2,2c0.6,1.7,2.1,2.8,3.3,3.9
		c0.3,0.2,0.8,0.2,1.2,0.2c2.5,0,5.1,0,7.6,0.1c2.8,0.1,5.6,0.3,8.3,0.1c1.6-0.1,2.8,0.5,4.1,1c0.3,0.1,0.4,0.6,0.6,1
		c-0.3,0.2-0.6,0.4-0.9,0.5c-0.9,0.1-1.8,0.1-2.6,0.2c-1,0.1-2.1-0.1-2.9,0.3c-1.3,0.7-2.6,0.8-3.9,0.7c-1.5-0.1-3.1-0.4-4.6-0.5
		c-1.3-0.1-2.6-0.2-4-0.2c-0.2,0-0.7,0.4-0.6,0.5c0.5,1.3,1.1,2.7,1.7,4c0.1,0.3,0.6,0.5,0.9,0.5c1.7,0.1,3.4,0.2,5.1,0.2
		c1.6,0,3.2,0,4.9,0c0.1,0,0.2,0,0.3,0c-0.1,0.1-0.2,0.2-0.3,0.2c-0.3,0-0.5,0-0.8,0c-2.8,0.3-5.6,0.6-8.4,0.9
		c-0.3,0-0.8,0.4-0.8,0.5c0.3,1.1,0.7,2.3,1.2,3.3c0.1,0.3,1,0.2,1.5,0.3c2,0.2,4,0.4,6.1,0.5c0.2,0,0.5-0.2,0.7-0.2
		c0.3-0.1,0.7-0.2,1-0.1c0.9,0.3,1.3-0.2,1.8-0.8c0.6-0.8,1.3-1.5,2.1-2.2c0.7-0.6,1.6-1,2.2-1.7c1.7-1.9,3.4-4,5.1-6
		c2.3-2.7,4.5-5.3,6.8-7.9c0.9-1.1,1.9-2.2,2.7-3.3c0.1-0.2,0-0.6,0.1-0.9c-1.4-0.1-3.1-0.6-4.2-0.1c-2.1,0.9-4,0.3-6,0.1
		c-0.3,0-0.8-0.8-0.9-1.2c-0.1-0.3,0.4-0.8,0.8-1c0.6-0.2,1.3-0.4,1.9-0.4c2.3,0,4.5,0.1,6.8,0.2c1.2,0,2.3,0,3.5,0
		c0.6,0,1.2-0.1,1.5-0.8c0.2-0.4,0.5-0.6,0.7-1c0.2-0.3,0.3-0.7,0.5-1c-0.3-0.1-0.7-0.2-1-0.2c-2.5,0-5,0-7.4,0c-2.1,0-4.1,0-6.2,0
		c-0.3,0-0.8-0.2-1-0.5c-0.6-1-1-1.1-1.7-0.1C275.1,358.5,274.6,358.6,274,358.4L274,358.4z M188.2,357.6c-1.3,0-2.5,0-3.8-0.1
		c-1.5-0.1-3.1-0.3-4.6-0.4c-3.6-0.2-7.2-0.3-10.8-0.4c-1.9-0.1-3.8-0.1-5.7-0.2c-0.2,0-0.4-0.1-0.5-0.2c0.2-0.1,0.3-0.3,0.5-0.3
		c1.2-0.1,2.5-0.3,3.7-0.3c5.8,0.3,11.6,0.7,17.3,0.9c1,0,2-0.3,3-0.5c0.2,0,0.3-0.3,0.5-0.5c-0.2-0.1-0.4-0.1-0.6-0.2
		c-0.1-0.1-0.3-0.2-0.4-0.3c1-0.4,0-1.2,0.3-1.7c0.4-0.8-0.2-1.2-0.9-1.2c-1.9,0-3.9-0.8-5.8-0.2c-0.1,0-0.3,0-0.5,0
		c0.1-0.1,0.2-0.3,0.4-0.3c1.2-0.1,2.3-0.3,3.5-0.3c1,0,1.3-0.3,1.3-1.5c0-1.3-0.2-1.6-1.3-1.6c-3.4,0-6.8,0-10.2,0
		c-4.8,0-9.7,0-14.5,0c-0.7,0-1.7,0.2-1.8,1.1c0,0.8-0.6,1.9,0.8,2.4c0.4,0.1,1,0.8,0.2,1.1c-1.1,0.5-0.8,1.3-0.9,2.1
		c-0.1,1.1,0.3,1.7,1.4,1.6c0.1,0,0.3,0.2,0.4,0.4c-0.2,0.1-0.4,0.4-0.6,0.4c-0.8-0.1-0.9,0.4-1,1c0,0.3-0.2,0.7-0.4,1
		c-0.5,1.1-0.5,1.3,0.7,1.6c0.6,0.1,1.1,0.3,0.8,1c-0.2,0.3-0.8,0.6-1.2,0.6c-2,0-4.1-0.1-6.1-0.2c-2.7,0-5.4-0.1-8.2,0
		c-2.1,0.1-4.2,0.3-6.3,0.5c-0.3,0-0.6,0.5-0.7,0.8c0,0.2,0.3,0.7,0.5,0.8c0.5,0.2,1.1,0.3,1.7,0.3c2.6,0,5.1,0,7.7-0.1
		c3.1,0,6.2-0.1,9.3-0.1c0.4,0,0.8,0,1,0.2c0.3,0.2,0.5,0.6,0.6,1c0,0.1-0.5,0.5-0.7,0.5c-1.2,0.1-2.4,0-3.6,0
		c-5.3,0.1-10.5,0.1-15.8,0.2c-0.6,0-1.3-0.1-1.3,0.7c0,0.7,0.2,1.2,1.1,1.2c2.5,0,4.9,0.1,7.4,0.1c1.4,0,2.8-0.1,4.2,0
		c2.5,0.1,5,0.2,7.6,0.3c0.3,0,0.5,0,0.8,0.1c0.2,0.1,0.3,0.2,0.4,0.3c-0.1,0.1-0.2,0.3-0.3,0.3c-0.3,0.1-0.7,0.2-1,0.3
		c-0.5,0.1-0.9,0.2-1.4,0.3c-0.4,0.1-0.8,0.2-1.2,0.2c-3.4,0-6.7-0.8-10.1-0.4c-2.1,0.2-4.2,0.1-6.3,0.3c-0.4,0-1.1,0.5-1.1,0.8
		c-0.1,0.8,0.7,0.6,1.1,0.6c2.8,0.1,5.7,0.2,8.5,0.3c3.4,0.1,6.9,0.2,10.3,0.3c0.6,0,1.5-0.2,1.3,1c0,0.1,0.4,0.4,0.7,0.4
		c1.2-0.1,1.4,0.6,1.5,1.5c0,1.3,0.1,2.7,0.1,4c0,3.6,0.1,7.2,0.1,10.8c0,1.1,0.3,1.4,1.2,1.4c0.3,0,0.6,0,0.9,0
		c4.5-0.1,9.1-0.1,13.6-0.2c1.8,0,3.7-0.1,5.5-0.1c2.1,0,4.1,0,6.2,0.1c0.8,0,1.1-0.3,1-1c-0.4-2.9-0.8-5.9-1.2-8.8
		c-0.2-1.2-0.3-1.3,0.9-1.4c0.3,0,0.8,0,1,0.3c0.5,0.5,1,0.4,1.6,0.3c0.5-0.1,0.9-0.2,1.4-0.2c2.2,0,4.4,0,6.6,0
		c3.2,0.1,6.4,0.2,9.6,0.3c4.3,0.2,8.6,0.4,12.8,0.6c3.5,0.2,7,0.4,10.5,0.6c0.4,0,0.8-0.1,1.2-0.2c0.6-0.2,0.5-0.7,0-0.9
		c-0.3-0.2-0.8-0.2-1.2-0.3c-0.2-0.1-0.6-0.2-0.6-0.3c0.3-1.4-0.9-1-1.5-1.1c-1.4-0.1-3,0.2-4.3-0.1c-1.7-0.5-3.3-0.4-5-0.5
		c-1.1,0-2.1-0.3-3.2-0.4c-3-0.2-6.1-0.1-9.1-0.4c-2.4-0.2-4.7-0.4-7.1-0.1c-2.1,0.3-4.2,0.2-6.3,0.3c-0.9,0-1.9,0-2.8-0.1
		c-0.4-0.1-0.8-0.4-1-0.7c-0.1-0.2,0.3-0.8,0.6-0.9c0.5-0.2,1.1-0.3,1.7-0.3c1.4,0,2.9,0,4.3,0.1c2.9,0,5.8,0,8.6,0
		c2.3,0,4.5,0.1,6.8,0.2c2,0.1,3.9,0.2,5.9,0.3c1.6,0.1,3.3,0.1,4.9,0.2c0.5,0,1,0.1,1.5,0.1c1.6,0.1,3.2,0.2,4.9,0.2
		c0.1,0,0.4-0.3,0.4-0.5c0-0.5-1.2-1.7-1.7-1.8c-2.3-0.4-4.6,0.2-6.9-0.5c-1.2-0.3-2.6-0.1-4-0.1c-2.2-0.1-4.3-0.3-6.5-0.4
		c-2.8-0.1-5.5-0.1-8.3-0.2c-2.4-0.1-4.8-0.2-7.2-0.2c-1.8,0-3.7,0.2-5.6,0.1c-1,0-2.1,0.1-2.8-0.9c0,0-0.6,0.1-0.7,0.3
		c-1.3,2-2.5,4.1-3.9,6.1c-0.7,1.1-1.6,2.2-2.4,3.2c-0.1,0.1-0.3,0.1-0.4,0.2c0-0.2,0-0.4,0.1-0.5c1-1.7,2.1-3.4,3.1-5.1
		c1.4-2.4,2.8-4.7,4.1-7.1c0.6-1,1-2,1.7-2.9c0.6-0.8,0.5-1.5-0.5-1.8c-0.4-0.1-0.8,0-1.2-0.1c-0.3-0.1-0.6-0.3-0.9-0.5
		c0.2-0.4,0.4-0.9,0.8-1.2c0.1-0.2,0.5,0,0.7-0.2c0.4-0.2,1-0.4,1-0.6c0-0.5,0.3-1.3-0.6-1.6c-0.5-0.1-0.8-0.3-0.7-1
		c0.2-0.6-0.3-1.4,0.9-1.4C188,358.1,188.1,357.7,188.2,357.6c0.8,0.3,1.3,0.1,1.2-0.9c0-0.4,0-0.7-0.1-1.1c0-0.2-0.2-0.3-0.3-0.4
		c-0.1,0.2-0.2,0.3-0.3,0.5C188.5,356.3,189.1,357.1,188.2,357.6L188.2,357.6z M167,421c-2.6,0.1-5,0.2-7.3,0.4
		c-0.3,0-0.8,0.5-0.9,0.8c-0.4,1.8-1,3.6-1,5.4c-0.2,4.6-0.3,9.2-0.1,13.8c0.1,3.7,0.5,7.5,0.9,11.2c0.4,3.4,0.5,6.7,1.6,10
		c0.6,1.7,1.8,2.3,3,2.6c3.2,1,6.5,1.2,9.9,1.2c1,0,2.1,0.3,2.8-0.8c0.1-0.2,0.7-0.2,1-0.2c2.2-0.4,4.1-1.5,5.4-3.3
		c2.2-3.1,3.4-6.4,3.5-10.2c0-0.5,0-1,0.3-1.3c0.2-0.3,0.8-0.5,1.1-0.3c1.9,1,2.8,3.2,2.2,5.4c-0.3,1.2,0,2.1,0.7,3
		c0.3,0.3,0.7,0.8,0.6,1c-0.3,1,0.2,1.4,0.8,2c1.1,1,2.2,2.2,3.5,3c2.2,1.2,4.4,2.4,7.1,1.9c1.4-0.3,3-0.1,4.5-0.3
		c4.9-0.4,9.8-0.2,14.7-0.1c4.2,0,8.3,0,12.5,0c3.1-0.1,6.2-0.3,9.3-0.4c4.1-0.1,8.1-0.2,12.2-0.2c3.3,0,6.7,0.3,10,0.4
		c3.6,0.1,7.1,0.1,10.7,0c2.9,0,5.9-0.1,8.8-0.2c2.3,0,4.6,0,7-0.1c3.1-0.2,6.1-0.6,9.2-0.8c1.5-0.1,2.9,0,4.4-0.1
		c3.9-0.2,7.8-0.4,11.7-0.5c3.9-0.1,7.7-0.5,11.4-1.7c0.8-0.2,1.4-0.5,1.5-1.5c0-0.3,0.6-0.8,0.9-0.8c1.1-0.3,1.6-1,1.6-2
		c0-1.3,0.5-2.5,0.5-3.8c-0.1-3.3,0.2-6.6,0.3-9.9c0-2.9,0-5.9-0.1-8.8c0-1.7-0.1-3.5-0.4-5.2c-0.5-3.1-2.7-5.1-6.3-5.1
		c-3.4,0-6.8-0.2-10.2-0.4c-0.3,0-0.5-0.1-0.8-0.1c-1.7-0.1-3.4-0.3-5.1-0.4c-3-0.2-6-0.3-9-0.5c-1.4-0.1-2.7-0.6-4.1-0.7
		c-3.4-0.2-6.8-0.2-10.2-0.4c-0.8,0-1.6-0.4-2.4-0.4c-3-0.1-6.1-0.2-9.1-0.3c-3.2-0.1-6.4-0.2-9.6-0.4c-2.1-0.1-4.3-0.3-6.4-0.4
		c-0.5,0-1,0.2-1.5,0.3c-1.5,0.3-3,0.8-4.5,0.9c-2.3,0.1-4.7,0.2-6.9-0.1c-2-0.3-4-0.3-6-0.2c-1.6,0.1-3.2-0.4-4.6,0.7
		c-0.2,0.2-0.6,0.2-0.9,0.2c-1.6-0.1-3.2-0.2-4.8-0.3c-4-0.1-8.1-0.3-12.1-0.3c-3.8,0-7.6,0.1-11.4,0.3c-1.3,0.1-2.9-0.3-3.7,1.3
		c-0.1,0.1-0.5,0.2-0.7,0.2c-0.7,0.1-1.4,0.1-2.2,0.2c-1.9,0.2-3.7,0.6-4.8,2.4c-0.2,0.4-0.6,0.7-0.9,1.1c-0.5,0.5-1.3,0.7-0.7,1.7
		c0,0-0.1,0.2-0.2,0.3c-1.4,1.1-1.9,2.7-2.4,4.3c-0.5,1.5-0.5,3.1-0.7,4.7c-0.1,1.1,0,2.2,0,3.2c0,0.3-0.3,0.6-0.4,0.9
		c-0.4-0.2-0.8-0.4-1.1-0.7c-0.1-0.1,0-0.5-0.1-0.7c-0.2-1.2-0.3-2.4-0.5-3.7c-0.1-0.8-1.1-1.2-0.8-2.2c0.2-0.7,0.1-1.4,0.1-2.1
		c-0.1-3.3-0.1-6.5,0.7-9.7c0.3-1.2-0.4-2.5-1.3-2.5c-4.2-0.2-8.3-0.3-12.5-0.4C172.3,421,169.5,421,167,421L167,421z M369.9,444.9
		c0.1,0,0.2,0,0.2,0c-0.2-6.2-0.4-12.4-0.6-18.6c-0.1-1.4-0.9-2.2-2.3-2c-0.4,0.1-0.9,0.2-1.3,0.1c-0.6-0.2-0.8-0.1-1.1,0.5
		c-0.2,0.4-0.3,0.4-0.5-0.2c-0.1-0.1-0.2-0.4-0.3-0.4c-1.1,0.3-2.2,0.5-3.2,1c-1.2,0.7-2.2,1.6-3,2.8c-1.3,2-2.5,3.9-2.5,6.3
		c0,2.1,0,4.2-0.1,6.3c-0.1,3.3-0.3,6.7-0.6,10c-0.2,2.7-0.6,5.4-0.9,8.1c-0.2,1.3-0.5,2.5-1,3.7c-0.9,2.1-2.8,3.5-4.3,5.2
		c-1,1.1-2.3,1.8-3.8,1.8c-0.8,0-1.6,0.1-2.4,0.2c-2.2,0.4-4.3,1-6.5,1.3c-1.4,0.2-2.8,0.2-4.1,0.1c-3.5-0.3-7.1-0.9-10.6-1.2
		c-6.5-0.6-13-1.1-19.6-1.5c-2.7-0.2-5.5-0.1-8.2-0.1c-1.9,0-3.8,0.1-5.7,0.1c-1.7,0-3.3-0.3-5-0.3c-2.5,0-4.9,0.2-7.4,0.3
		c-2.8,0-5.6,0-8.4-0.1c-3.9-0.1-7.7-0.1-11.6-0.2c-3.5-0.1-7.1-0.8-10.6-0.1c-1.1,0.2-2.3,0-3.4,0.1c-3.7,0.1-7.3,0.2-11,0.2
		c-3.1,0-6.3-0.1-9.3,0.9c-0.2,0.1-0.4,0.1-0.6,0.1c-2,0.1-4,0.1-6,0.3c-3.9,0.3-7.9,0.7-11.8,1.1c-2.1,0.2-4.3,0.4-6.4,0.4
		c-2.6,0.1-5.3,0.1-7.9-0.1c-2.1-0.2-4.2-0.1-6.2-1c-1.1-0.5-2.5-0.3-3.8-0.2c-1.6,0.1-3.3,0.9-4.8-0.3c-0.1-0.1-0.3,0-0.5,0
		c-3.3,0.1-6.6,0.1-9.8,0.2c-0.9,0-1.8-0.2-2.5-0.9c-0.3-0.3-1-0.8-1.3-0.6c-1.2,0.6-1.4-0.3-1.9-1c-0.2-0.4-0.6-0.9-1-1.2
		c-1.8-1.3-2.2-3.4-2.7-5.4c-0.4-1.6-0.4-3.3-0.6-5c-0.1-0.6-0.3-1.3-0.5-1.9c-0.1-0.5-0.3-1.1-0.4-1.6c-0.4-4.4-0.7-8.8-1.1-13.2
		c-0.3-3.4-1-6.7-3.1-9.4c-1.8-2.3-4.1-3.9-7.2-4c-1.6-0.1-3.3-0.1-4.9-0.3c-1.9-0.3-4.7,0.7-5.6,2.4c-1.1,2.2-2,4.6-3,6.9
		c-0.2,0.5-0.3,1.1-0.3,1.7c-0.1,2.1-0.2,4.2-0.3,6.3c-0.2,5.9,0.3,11.6,2,17.3c1.6,5.1,4.1,9.6,8.1,13.3c2.4,2.2,5.1,3.8,8.3,4.1
		c3.9,0.3,7.8,0.4,11.7,0.5c4.2,0,8.3-0.1,12.5-0.2c5.4-0.1,10.8-0.1,16.3-0.2c7,0,13.9,0.1,20.9,0.1c6.7-0.1,13.3-0.3,20-0.4
		c5-0.1,9.9-0.1,14.9,0c4.6,0.1,9.1,0.4,13.6,0.4c3.1,0,6.2-0.2,9.3-0.3c2.6,0,5.2,0.2,7.8,0.1c6.6-0.2,13.1-0.5,19.7-0.7
		c4.8-0.2,9.6,0,14.4,0.6c2.7,0.4,5.4,0.5,8,0.5c2.2,0,4.5-0.3,6.7-0.3c4.8,0,9.5,0.3,14.2,0.3c4.7-0.1,9.5-0.4,14.2-0.7
		c4.2-0.3,8.1-1.5,12-2.8c2.3-0.8,4.3-2.1,5.5-4.6c1.8-3.6,2.9-7.3,3-11.3C370,453.6,369.9,449.2,369.9,444.9L369.9,444.9z
		 M369.9,229.4c0,0-0.1,0-0.1,0c0-2.4,0.1-4.8,0-7.1c-0.2-3.5-1-6.9-2.6-10.1c-0.8-1.5-1.9-2.2-3.7-2.1c-0.4,0-0.7,0-1.1-0.1
		c-1.8-0.6-3.5-0.5-5.4-0.4c-3.5,0.1-6.5,2.3-7.7,5.6c-0.6,1.7,0.6,3.6,2.3,3.8c3,0.4,6.1,0.6,9.2,0.4c0.6,0,1.4,0.5,2,0.9
		c0.3,0.2,0.2,1-0.4,0.8c-1.4-0.5-2.8-0.1-4.2-0.1c-1.1-0.1-2.2,0.4-3.3,0.4c-1.1,0-1.2,1.6-2.6,1.3c-1-0.2-2.2,0-3.2,0.1
		c-0.2,0-0.4,0-0.6,0.1c-0.6,0.2-1.1,0.5-1.1,1.3c0,2-0.2,4.1-0.1,6.2c0.1,4.2,0.6,8.5,0.5,12.7c-0.3,8.2-0.8,16.5-1.3,24.7
		c-0.1,1.8-0.1,3.7-0.1,5.6c0,0.4,0.2,0.9,0.3,1.3c0.4-0.2,0.8-0.4,1.2-0.6c1-0.6,1.9-1.3,2.9-1.8c0.3-0.1,0.7,0.1,1.1,0.2
		c-0.2,0.3-0.2,0.8-0.5,1c-1.2,0.8-2.4,1.5-3.7,2.2c-0.9,0.5-1.4,1.2-1.3,2.4c0.1,1.2,0,2.4,0,3.6c0,0.5,0.1,1.1,0.2,1.6
		c0.4-0.3,0.8-0.6,1.2-0.8c0.1-0.1,0.3,0,0.4-0.1c0,0.1,0,0.3-0.1,0.4c-0.4,0.4-0.9,0.8-1.2,1.2c-0.3,0.5-0.7,1-0.7,1.6
		c0,3.3,0.1,6.6,0,9.9c-0.2,5.1,0.2,10.1-0.3,15.2c0.7,1.2,0.1,2.4,0.2,3.6c0.2,2.1,0,4.1-0.8,6.1c-0.2,0.5-0.3,1.3-1,1.1
		c-0.5-0.1-1-0.6-1.4-1c-0.2-0.3-0.2-0.8-0.3-1.2c-0.2-3.1-0.4-6.3-0.6-9.4c-0.1-1.6-0.2-3.3-0.2-4.9c0-0.8-0.4-0.9-1-0.5
		c-1.1,0.7-2.1,1.5-3.1,2.3c-0.6,0.5-1.3,0.9-1.7,1.5c-0.5,0.5-0.3,1.7-1.5,1.4c-0.1,0-0.3,0.2-0.3,0.3c0.1,1.1,0.2,2.2,0.3,3.3
		c0,0.1,0.4,0.3,0.4,0.2c1.1-0.7,2.2-1.4,3.3-2.1c0.3-0.2,0.6-0.3,0.9-0.5c-0.1,0.4-0.1,0.7-0.3,1.1c-0.1,0.2-0.3,0.4-0.5,0.6
		c-0.7,0.4-1.4,0.8-2.2,1.2c-0.6,0.3-1.7,2.4-1.7,3c-0.1,1.8,0.7,3.6,0.4,5.5c-0.1,0.6,0,1.3,0,2c0,2.5,0,4.9,0,7.4
		c0,0.3,0.1,0.5,0.2,0.8c0.9,2.2,3.3,2.9,4.5,4.7c0.2,0.3,0.8,0.2,1.3,0.3c0-0.4,0.1-0.7,0.1-1.1c0-0.3-0.1-0.6-0.1-0.9
		c-0.1-2-0.3-4-0.3-5.9c0-1-0.8-2.1,0.3-3c0.2-0.1,0-0.7,0.4-0.2c0.7,0.8,1.2,1.6,1.2,2.7c0,2.1,0,4.2,0.2,6.3
		c0.1,1.7,0.7,2.1,2.4,2.2c2,0,3.9,0.2,5.9,0.3c2.5,0.1,4.9,0.3,7.4,0.3c2.3,0,4.5-0.3,6.7,0.3c1,0.3,1.4-0.1,1.4-1
		c0.1-1.6,0.2-3.3,0.2-4.9c0-1.8-0.2-3.6-0.2-5.4c0-1.7,0-3.5,0-5.2c0-1.8,0.1-3.7,0.1-5.5c0-0.5,0.1-0.9,0.1-1.4
		c0.1-1.9,0.1-3.7,0.2-5.6c0.1-1.8,0.2-3.6,0.3-5.4c0-0.2,0.2-0.3,0.4-0.4c0.1,0.1,0.3,0.2,0.4,0.4c0.1,0.1,0,0.3,0,0.5
		c-0.1,3.2-0.2,6.5-0.3,9.7c0,1.5,0,3,0,4.4c0,1.3,0,2.7-0.1,4c-0.1,1.3-0.3,2.6-0.3,3.9c0,3.6,0.1,7.2,0.1,10.8
		c0,0.9,0.3,1.4,1.2,1.4c1.2,0.1,1.6-0.2,1.6-1.4c0.1-1.4,0.1-2.9,0.1-4.3c0.2-6.3,0.6-12.7,0.7-19c0.1-5.6,0-11.2-0.2-16.8
		c-0.2-7.2-0.4-14.5-0.6-21.7c-0.1-6.1-0.1-12.2-0.2-18.3c0-3.5-0.1-7-0.1-10.5c0-3.1,0.1-6.2,0.1-9.2
		C369.9,234.4,369.9,231.9,369.9,229.4L369.9,229.4z M313.7,293.5c0-1.6-0.6-2.9-1.6-3.8c-0.8-0.7-1.6-1.3-2.4-2
		c-1.7-1.4-3.6-2.4-5.9-2c-0.9,0.1-1.8-0.2-2.7-0.3c-0.3,0-0.7-0.2-1-0.1c-1.3,0.4-2.6,0.7-3.8,1.3c-2.1,1-4.2,2.1-6.3,3.3
		c-1.6,0.9-3.1,2-4.6,3.1c-1,0.7-1.4,2.2-2.8,2.5c-1.4,1.9-3.5,3-5.4,4.4c-2.7,1.9-5.3,4.1-8.2,5.8c-4.7,2.7-8.8,6.4-14.3,7.9
		c-3.1,0.9-5.9,2.9-8.9,4.2c-2.9,1.2-5.9,2.1-8.9,3.2c-1.6,0.6-3.2,1-4.2,2.7c-1.6,2.7-0.7,5.1,1.8,6.7c0.7,0.4,1.5,0.7,1.9,1.3
		c0.8,1,1.6,0.9,2.6,0.6c1.3-0.3,2.7-0.6,4-0.8c1-0.1,2.1,0.1,2.7-1c0.1-0.2,0.6-0.3,1-0.3c2-0.2,3.8-0.9,5.4-2
		c2.1-1.4,3.9-3.1,5.9-4.7c0.8-0.6,1.7-0.9,2.5-1.4c0.2-0.1,0.4-0.3,0.6-0.6c0.2-0.2,0.3-0.6,0.6-0.8c1.1-0.8,2.3-1.6,3.4-2.5
		c1.4-1.1,3-2,4.3-3.4c0.7-0.8,1.5-1.4,2.4-2c0.2-0.1,0.6,0,0.8,0c-0.1,0.2-0.2,0.5-0.3,0.6c-1.5,1.5-3,3-4.7,4.3
		c-1.9,1.5-4.1,2.8-5.9,4.4c-1,0.9-2.4,1.1-3.4,2.2c-1.4,1.5-3.1,2.7-4.7,4c-0.2,0.2-0.4,0.3-0.6,0.5c0.3,0.1,0.6,0.4,0.9,0.3
		c1.2-0.2,2.4-0.6,3.6-0.7c2.3-0.3,4.7-1.4,7-0.7c2.7,0.8,5,0.3,7.2-1.5c1.5-1.2,3.2-2.2,4.8-3.3c0.1-0.1,0.4-0.1,0.5-0.2
		c0,0.2,0.1,0.5,0,0.7c-0.5,0.6-1,1.1-1.7,1.6c-1.5,1-3,2-4.5,2.9c-0.7,0.4-0.6,0.8,0.1,1.1c0.8,0.3,1.6,0.6,2.5,0.8
		c1.3,0.2,2.6,0.6,3.8,0.3c1-0.2,2.1-0.3,3.1-1.2c0.7-0.7,2.1-0.6,3.2-0.8c0.1,0,0.3-0.1,0.4-0.2c0.1-0.1,0.2-0.4,0.2-0.4
		c-0.6-0.8-0.1-0.8,0.5-0.9c0.4-0.1,1-0.1,1.3-0.4c2.2-2.1,5.3-1.1,7.8-2.2c1-0.4,1.8-0.3,2.5-0.9c2.2-1.8,4.5-3.6,6.8-5.4
		c2.3-1.8,4.5-3.7,6.7-5.5c0.2-0.1,0.2-0.4,0.2-0.7c0,0-0.3-0.2-0.4-0.2c-0.2,0-0.3,0.2-0.5,0.2c-0.1-0.2-0.3-0.5-0.2-0.7
		c0.5-1.1-0.1-1.9-0.5-2.8c-0.3-0.6-0.6-1.2-0.9-1.8c-0.6-1.2-1.3-2.2-2.5-2.9c-2.5-1.5-5.2-2.2-8.1-2.4c-2.5-0.2-5.2-0.4-7.3,1.6
		c-0.2,0.2-0.6,0.1-0.9,0.1c-0.8-0.1-1.5-0.1-2.3-0.3c-0.3-0.1-0.5-0.5-0.7-0.7c0.2-0.2,0.4-0.4,0.6-0.6c0.5-0.4,1.1-0.7,1.6-1.1
		c0.7-0.5,1.3-1.2,2.1-1.6c3.5-1.6,7.1-3.1,10.9-4.1c2.3-0.6,4.2-0.1,5.8,1.8c0.8,0.9,1,2,1.7,2.9c1.5,2.2,2.6,4.6,3.1,7.2
		c0.2,0.7,0.4,1.4,0.6,2.1c0.2,0.7,0.8,0.8,1.3,0.7c0.2,0,0.4-0.6,0.4-0.9c0.3-1.6,0-3-0.8-4.5c-0.7-1.2-1.3-2.4-1.7-3.6
		c-0.3-0.8-0.5-1.8-0.4-2.7c0.1-0.6,0.4-1-0.1-1.5c-0.1-0.1,0-0.4,0-0.7c0.2,0.1,0.4,0.2,0.6,0.3c0.6,0.4,1.1,0.8,1.7,1.1
		c0.1,0,0.4-0.1,0.4-0.2C313.7,295.6,313.7,294.6,313.7,293.5L313.7,293.5z M295.2,363.8C295.2,363.8,295.2,363.8,295.2,363.8
		c-1.1,0-2.2,0-3.3,0.1c-1,0-2,0.2-2.8,1.1c-1.6,1.9-3.3,3.8-4.9,5.7c-1.9,2.3-3.8,4.6-5.7,6.9c-0.6,0.7-1.2,1.3-1.9,1.8
		c-0.5,0.3-0.9,0.5-0.5,1c0.1,0.2,0.8,0.2,1.2,0.1c1.6-0.4,3.2-1,4.9-1.2c4.3-0.7,8.6-1,12.8-1.9c2.9-0.7,5.8-1.9,8.4-3.4
		c1.7-1,3.1-0.5,4.7-0.2c0.2,0,0.5,0.4,0.5,0.5c-0.2,0.5-0.4,1-0.8,1.5c-0.1,0.2-0.5,0.1-0.8,0.2c-0.5,0.2-1.1,0.3-1.6,0.5
		c-0.6,0.3-1.1,0.6-1.6,0.9c-1.5,0.7-3.1,1.4-4.6,2.2c-0.2,0.1-0.4,0.4-0.6,0.6c0.3,0.1,0.5,0.2,0.8,0.3c0.2,0.1,0.4,0.1,0.6,0
		c3.7-0.3,7.5-0.4,11.2-0.4c3.5,0,7.1-0.5,10.6-0.6c1.6-0.1,2.9-0.7,3.9-1.8c0.4-0.4,0.2-1.4,0.2-2.1c-0.5,0-1-0.1-1.4,0
		c-1.5,0.3-3,0.7-4.5,1.2c-0.6,0.2-1.2,0.5-1.8,0.8c-1.2,0.6-2.4,1.7-3.9,0.7c-0.3-0.2-0.9,0-1.3,0.2c-0.4,0.2-0.7,0.7-1.1,0.8
		c-0.5,0.2-1.3,0.3-1.7,0c-0.5-0.4-0.1-1,0.3-1.5c2.7-2.6,5.5-5.2,9.4-6.1c1.4-0.3,2.8-0.5,4.3-0.8c0.2,0,0.3-0.2,0.5-0.3
		c-0.2-0.1-0.3-0.2-0.5-0.2c-3.4,0-6.7-0.1-10.1-0.1c-2.9,0-5.7,0.4-8.6,0.4c-3.3,0-6.6,0.1-9.9,0.4c-1.6,0.2-3.3,0.2-4.9,0.3
		c-1.1,0-2.5-1.1-2.8-2.2c-0.3-1.3,0-1.8,1.4-1.9c0.8,0,1.7,0.1,2.5,0.1c4,0,7.9,0.1,11.9,0.1c4.6,0,9.3-0.1,13.9,0
		c2.2,0.1,4.4-0.5,6.6,0.3c1.2,0.5,1.5,0.1,1.7-1.3c0-0.2,0-0.7,0.1-0.7c1.8-0.6-0.3-2.1,0.6-2.9c-1.3-0.8-0.6-1.9-0.4-2.9
		c0.2-1-0.2-1.2-1-1.3c-0.9-0.1-1.9-0.1-2.8-0.2c-0.6,0-1.4-0.2-1.7,0.7c-0.1,0.2-0.5,0.3-0.8,0.2c-3.3-1-6.7-0.4-10.1-0.7
		c-2.7-0.2-5.4,0-8.1-0.1c-1.8,0-3.6-0.3-5.5-0.3c-1.8,0-2.8,0.8-3.7,2c-0.2,0.3-0.2,0.6-0.3,1c0.3,0.1,0.6,0.2,0.9,0.2
		c1.7,0,3.5,0,5.2,0c5.8,0,11.6,0,17.5-0.1c2.6,0,5.2-0.1,7.8-0.1c0.5,0,1.1,0.4,1.6,0.6c0.1,0,0.1,0.2,0.1,0.3
		c0,0.1-0.1,0.2-0.2,0.2c-0.8,0.1-1.7,0.1-2.5,0.2c-0.3,0-0.9,0.1-0.9,0.3c-0.5,1.4-1.6,1-2.6,0.9c-0.5-0.1-0.9-0.1-1.4-0.1
		c-4.2,0.1-8.3,0.2-12.5,0.3c-2,0-4-0.1-6-0.1C298.1,363.7,296.7,363.8,295.2,363.8L295.2,363.8z M164.7,408.8c0,0,0-0.1,0-0.1
		c1.8,0.1,3.6,0.3,5.4,0.3c2.4,0,4.7-0.3,7.1-0.3c2.7,0,5.3,0.1,8,0.2c1.2,0.1,2.2-0.6,2.3-1.7c0.1-4.8,0.2-9.6,0.3-14.3
		c0-1.3-0.1-1.4-1.4-1.4c-2.6,0-5.2,0-7.7,0c-3.1,0-6.3-0.1-9.4-0.1c-2.8,0-5.7,0.2-8.5,0.3c-0.8,0-1.3,0.4-1.3,1.2
		c0,1.9,0.1,3.8,0,5.7c-0.1,2.1,0.7,4.1,0.3,6.2c-0.2,0.9,0,1.8-0.1,2.8c-0.1,0.9,0.4,1.2,1.2,1.1
		C162.1,408.8,163.4,408.8,164.7,408.8L164.7,408.8z M234.7,387.6c1.2,0,1.4-0.4,0.5-2.3c-0.1-0.2-0.2-0.4-0.2-0.6
		c-0.2-0.8-0.6-1.1-1.4-1.1c-1.9,0-3.7-0.1-5.6-0.3c-1-0.1-1.9-0.5-2.9-0.5c-3.1,0-6.3,0.1-9.3-0.7c-0.3-0.1-0.6,0-0.9,0
		c-1,0.1-1.9,0.2-2.9,0.2c-1.8-0.1-3.6-0.5-5.4-0.6c-3-0.1-6,0-9,0c-2.3,0-4.5,0.2-6.8,0.3c-0.4,0-0.9,0.2-1,0.5
		c-0.7,1.1,0.3,2.7,1.6,2.8c5.6,0.2,11.2,0.5,16.8,0.8c6,0.3,12,0.6,18,0.9C228.7,387.2,231.3,387.4,234.7,387.6L234.7,387.6z
		 M273.7,400.6c0-0.1,0-0.1,0-0.2c0.5,0,1,0,1.6,0c1,0.1,2.2,0.5,2.6-1.1c0-0.1,0.3-0.2,0.5-0.3c2-1,4.2-1.8,6.1-3
		c1.7-1.1,3.4-2.4,4.4-4c0.9-1.5,1.5-3.2,3.1-4.3c0.4-0.3,0.3-0.6-0.1-0.6c-1.4,0-2.9-0.2-4.1,0.3c-1.3,0.5-2.5,1.6-3.5,2.7
		c-2.4,2.4-5.2,3.9-8.4,4.7c-1.9,0.5-3.8,0.7-5.2-1.2c-0.5-0.7-1.3-0.8-2.1-0.6c-0.6,0.2-1.3,0.4-1.9,0.4c-1.7,0.1-3.5,0.1-5.2,0.1
		c-0.8,0-1,0.4-0.8,1.1c0.4,1.5,0.9,3.1,1.3,4.6c0.2,0.6,0.5,0.6,1,0.7C266.5,400.1,270.1,400.3,273.7,400.6L273.7,400.6z
		 M196,387.2C196,387.1,196,387.1,196,387.2c-1.4,0-2.8,0-4.2,0.1c-1.2,0.1-1.3,0.6-1.3,2c0,1.2,0.9,0.9,1.5,1
		c0.4,0.1,0.8,0,1.2,0.1c2.6,0.1,5.2,0,7.7,0.2c2.7,0.1,5.4,0.5,8.1,0.7c2.6,0.2,5.2,0.3,7.8,0.5c3,0.2,6,0.3,9,0.5
		c0.8,0,1.5,0,2.3,0.1c2.8,0.2,5.5,0.4,8.3,0.5c1.3,0,1.3-0.1,1.1-1.4c-0.1-0.8-0.2-1.6-1.2-1.7c-0.8-0.1-1.6-0.2-2.4-0.2
		c-3,0.1-6,0.1-9-0.2c-4.1-0.5-8.3-0.7-12.4-1c-2-0.2-4.1-0.3-6.1-0.5c-0.8-0.1-1.6-0.1-2.4-0.2c-0.5-0.1-1.2-0.1-1.5-0.4
		c-0.5-0.4-0.8-0.4-1.1,0.1c-0.1,0.1-0.3,0.3-0.5,0.3C199.3,387.3,197.6,387.2,196,387.2L196,387.2z M308.1,327.9
		c1.4-0.5,3-1,4.5-1.5c0.1-0.1,0.2-0.3,0.3-0.5c-0.2-0.1-0.3-0.1-0.5-0.2c-0.3-0.1-0.7-0.2-1-0.4c0.2-0.3,0.5-0.6,0.8-0.9
		c0.3-0.2,0.6-0.4,0.9-0.6c1.4-1,1.9-2.3,1.4-4c-0.1-0.2-0.2-0.5-0.4-0.6c-1.9-0.3-0.5-0.8-0.1-1.3c0.4-0.4,0.8-0.8,0.1-1.3
		c-1.1-0.7-1.6-1.8-2.1-2.9c-0.1-0.3-0.8-0.6-1.1-0.5c-0.7,0.3-1.5,0.7-2.1,1.2c-2.2,1.8-4.4,3.7-6.7,5.5c-1.3,1-2.8,1.8-4,2.8
		c-1.1,0.9-1,1,0.3,1.5c0.4,0.1,0.6,0.5,1,0.7c0.5,0.2,1,0.4,1.5,0.5c0.2,0.1,0.4,0,0.5,0.1C303.2,327.4,305.7,327.3,308.1,327.9
		L308.1,327.9z M290.7,342.9C290.7,342.9,290.7,342.9,290.7,342.9c2,0,4-0.2,6-0.2c2.4,0,4.7,0.1,7.1,0.3c1.1,0.1,1.7-0.3,2.2-1.3
		c0.1-0.3,0.7-0.7,1-0.6c0.6,0.1,0.7,0.6,0.4,1.2c-0.3,0.5-0.1,0.7,0.5,0.7c2.6,0.2,5.1,0.5,7.7,0.6c2.4,0.1,4.8,0.1,7.2,0.2
		c1.7,0.1,3.4,0.4,4.9-0.8c0.3-0.3,0.9-0.6,0.8-0.8c-0.1-0.5-0.4-1.1-0.8-1.3c-0.7-0.4-1.5-0.4-2.3-0.6c-0.1,0-0.3,0-0.4-0.1
		c0.1-0.1,0.1-0.2,0.2-0.3c0.8-0.6,0.2-0.7-0.3-0.7c-1.9-0.1-3.9-0.3-5.8,0c-1.2,0.2-2.2-0.3-3.3-0.2c-0.4,0-1-0.2-0.8,0.7
		c0,0.2-0.5,0.5-0.8,0.6c-0.1,0.1-0.4-0.2-0.6-0.4c-0.2-0.2-0.4-0.5-0.5-0.5c-1.4,0.4-3.2-0.4-4.3,1.1c-0.1,0.1-0.5-0.1-0.7-0.1
		c0.3-0.8-0.2-0.7-0.7-0.7c-0.9,0.1-1.8,0.5-2.7,0.5c-2.7,0-5.5,0-8.2,0c-2,0-4,0.3-5.9-0.1c-0.5-0.1-1.1,0-1.5,0.3
		c-0.6,0.5-1.1,1.2-1.6,1.8c-0.5,0.5-0.4,0.8,0.3,0.8C288.6,342.9,289.6,342.9,290.7,342.9L290.7,342.9z M228.2,412
		c0.2,0.2,0.3,0.7,0.5,0.8c0.4,0.2,0.9,0.3,1.4,0.4c0-0.4,0.2-0.8,0.1-1.1c-0.6-2-0.9-2.2-3-2.3c-2.5-0.2-5-0.4-7.5-0.6
		c-1.7-0.1-3.4-0.3-5.1-0.4c-2-0.1-3.9-0.2-5.9-0.3c-2.2-0.1-4.3-0.3-6.5-0.3c-2.1,0-4.1-0.8-6.2-0.1c-1.2,0.4-2.7,0-4,0
		c-0.5,0-0.7,0-0.5,0.5c0.1,0.2,0.2,0.5,0.1,0.7c-0.7,0.9,0.1,1.2,0.7,1.5c0.6,0.2,1.2,0.4,1.8,0.5c5.3,0.3,10.6,0.5,15.9,0.8
		c2.8,0.1,5.5,0.3,8.3,0.4c1.4,0.1,2.9,0.1,4.3,0.1c1.8,0,3.6,0.8,5.3-0.4C228,412.1,228,412.1,228.2,412L228.2,412z M225.3,401.5
		c0,0.1,0.1,0.2,0.1,0.4c0.2-0.2,0.7-0.4,0.7-0.6c0-1.3-1.4-2.9-2.7-3c-1.5-0.2-3-0.2-4.4-0.3c-4.4-0.3-8.7-0.6-13.1-0.9
		c-1.3-0.1-2.5-0.4-3.8-0.4c-2.7,0-5.5,0.3-8.2,0.3c-0.8,0-1.6-0.3-2.4-0.4c-0.2,0-0.6,0.1-0.6,0.1c0.1,0.9,0.1,1.9,0.4,2.7
		c0.1,0.3,1,0.5,1.6,0.5c5.1,0.3,10.3,0.6,15.4,0.8c2.9,0.1,5.8,0.2,8.7,0.3C219.8,401.1,222.6,401.3,225.3,401.5L225.3,401.5z
		 M195.3,392c-1.1,0.1-2.5,0.2-3.9,0.5c-0.8,0.1-1.1,1.1-0.5,2.2c0.5,1,0.6-0.2,0.9-0.2c0.4,0,0.8-0.1,1.2-0.1
		c2.9,0.1,5.8,0.2,8.7,0.5c2.8,0.2,5.5,0.6,8.2,0.8c3.1,0.2,6.2,0.3,9.2,0.4c1.8,0.1,3.6,0.3,5.4,0.4c2.3,0.1,4.6,0.1,6.9,0.2
		c1.4,0.1,2.8,0.2,4.2,0.3c0.8,0.1,1.6,0.2,2.5,0.3c0.3,0,0.7-0.3,0.8-0.5c0.4-1-0.6-2.2-1.7-2.2c-1.8,0-3.6,0-5.3-0.1
		c-4.7-0.2-9.4-0.5-14-0.8c-1.9-0.1-3.7-0.5-5.6-0.7C206.8,392.7,201.2,392.4,195.3,392L195.3,392z M166.5,413.3
		C166.5,413.3,166.5,413.3,166.5,413.3c0.8,0,1.5,0,2.3,0c2.7,0.1,5.4,0.3,8.2,0.3c2.3,0,4.6-0.1,6.9,0c2.1,0,2.1,0.1,2.8-1.8
		c0-0.1,0.1-0.2,0.1-0.3c0.5-1.7,0.3-2.1-1.6-2.1c-0.2,0-0.4,0-0.6,0c-2.7,0-5.3,0-8-0.1c-1.5,0-3-0.4-4.4-0.1
		c-2.9,0.6-5.8-1-8.7,0.1c-0.5,0.2-1.2-0.1-1.8-0.1c-2,0.1-2,0.1-2.4,2c-0.3,1.3,0.1,1.9,1.5,1.9
		C162.7,413.3,164.6,413.3,166.5,413.3L166.5,413.3z M190.7,356.5c0,1.9,0.5,2.4,1.9,2c0.7-0.2,1.3-0.7,1.6,0.4
		c0,0.1,0.3,0.1,0.4,0.1c1,0,1.9,0,2.9,0c4.9,0.2,9.9,0.4,14.8,0.6c0.6,0,1.2-0.1,1.8-0.2c0.6-0.1,0.7-0.6,0.3-1.1
		c-0.7-1-1.4-2-2.1-3c-0.3-0.4-0.9-0.8-1.3-0.9c-1.6-0.2-3.2-0.3-4.8-0.3c-4.4-0.1-8.8,0-13.2-0.1
		C191.1,354.3,190.7,354.6,190.7,356.5L190.7,356.5z M315,381C315,381,315,381,315,381c-5.9,0.4-11.8,1-17.7,1.2
		c-2.9,0.1-4.9,1.4-7,3.1c-0.1,0.1-0.2,0.2-0.3,0.3c0.2,0.1,0.3,0.2,0.5,0.2c1.4,0.3,2.8,0.3,4.3,0.3c2.7-0.1,5.4,0.1,8,0.2
		c1.4,0.1,2.9,0.3,4.3,0.2c1.1,0,2.3,0,3.1-0.5c2.6-1.6,5-3.4,7.8-4.6c0.1-0.1,0.2-0.3,0.3-0.4c-0.2-0.1-0.4-0.2-0.5-0.2
		C316.8,380.9,315.9,381,315,381L315,381z M341.3,294.5C341.4,294.5,341.4,294.5,341.3,294.5c0.1-1.6,0.1-3.1,0.1-4.6
		c0-0.3-0.1-0.7-0.2-1c-0.3,0.1-0.7,0.2-0.9,0.4c-0.9,0.8-1.8,1.6-2.6,2.4c-0.3,0.3-0.6,0.7-0.7,1.1c-0.1,0.7-0.3,0.6-0.9,0.6
		c-1.7,0-1.8,0.2-1.7,1.9c0,1.2,0.2,2.4,0.2,3.5c-0.1,2.1-0.3,4.3-0.4,6.4c0,0.9,0.2,1.8,0.4,2.8c0.4-0.9,0.7-1.9,1.1-2.8
		c0.1-0.2,0.2-0.5,0.1-0.6c-0.8-1.1,0.5-2.3-0.2-3.5c-0.1-0.1,0.2-0.4,0.4-0.6c0.1,0.3,0.3,0.5,0.3,0.7c0,1.4-0.1,2.8-0.2,4.2
		c0,1.1,0.3,1.3,1.1,0.7c1.4-1,2.8-2.1,4.1-3.2c0.4-0.3,0.7-1,0.6-1.5C341.8,299.1,341.5,296.8,341.3,294.5L341.3,294.5z
		 M202.2,371.5c0-0.1,0-0.1,0-0.2c0.9,0.1,1.7,0.3,2.6,0.3c2.6,0.1,5.1,0,7.7,0.1c3.4,0.1,6.8,0.4,10.1,0.6c0.7,0,1.3,0,2-0.1
		c0.2,0,0.4-0.1,0.4-0.2c0.1-0.8-0.9-2-1.8-2.1c-1.6-0.1-3.3-0.1-4.9-0.2c-2.7-0.1-5.3-0.3-8-0.4c-4.4-0.2-8.9-0.4-13.3-0.5
		c-2.8-0.1-5.7-0.2-8.5-0.2c-0.5,0-1.7,1.7-1.5,2.1c0.1,0.1,0.2,0.2,0.4,0.2c2.1,0.1,4.2,0.3,6.3,0.4c1.4,0,2.8-0.1,4.1-0.1
		C199.5,371.2,200.9,371.4,202.2,371.5L202.2,371.5z M238.8,339.8c-2.1,0.2-4,0.5-5.9,0.7c-0.7,0.1-1.2-0.1-1.5,0.8
		c-0.2,0.6-1,1-0.9,1.8c0.1,0.2,0.6,0.6,0.7,0.5c1.1-0.6,0.8,0.1,0.7,0.7c-0.2,0.8-0.4,1.6-0.4,2.4c0,1.1,0.8,1.7,2,1.8
		c1.1,0.1,2.1,0.2,3.2,0.2c0.4,0,0.8-0.1,1.1-0.4c0.6-0.5,1.1-1.1,1.6-1.7c1.4-1.8,2.7-3.7,4-5.5c0.2-0.2,0.3-0.7,0.2-0.8
		c-0.2-0.2-0.6-0.4-0.9-0.4c-0.4,0-0.9,0.2-1.3,0.1C240.5,340,239.6,339.9,238.8,339.8L238.8,339.8z M183.5,347.2
		c1.3,0.1,1.5-0.2,1.3-1.4c-0.3-1.5-0.8-1.9-2.3-1.8c-1.5,0.1-3,0.2-4.4,0.2c-2.9,0.1-5.8,0.2-8.8,0.3c-1.9,0.1-3.8,0.1-5.8,0.1
		c-1.7,0-3.4,0-5.1,0.1c-0.3,0-0.7,0.4-0.8,0.7c-0.1,0.5,0.1,1,0.1,1.5c0.8-0.6,1.3,0.4,2.1,0.4c2.8-0.1,5.7,0,8.5,0
		c2.8,0,5.6-0.1,8.4-0.2C179,347.2,181.3,347.2,183.5,347.2L183.5,347.2z M151.6,405.7C151.6,405.7,151.6,405.7,151.6,405.7
		c1,0.1,2,0.1,2.9,0c0.6,0,1.2,0,1.1,0.7c0,0.4-0.5,0.8-0.9,1c-0.2,0.2-0.6,0.1-0.9,0.1c-3.2-0.1-6.4-0.3-9.5-0.5
		c-1.7-0.1-3.5-0.2-5.2-0.2c-0.8,0-1.5,0.1-2.3,0.3c-0.3,0.1-0.8,0.5-0.8,0.7c0,0.3,0.4,0.6,0.7,0.8c0.2,0.1,0.5,0.1,0.8,0.1
		c4.5,0.1,9,0.3,13.4,0.4c1.4,0,2.8,0.1,4.2,0.1c0.9,0,1.4-0.2,1.5-1.4c0.1-1,0.3-1.8-0.3-2.6c0-0.1,0.2-0.3,0.3-0.5
		c0-0.2,0-0.5-0.1-0.5c-0.5-0.1-1-0.2-1.5-0.2c-3.9-0.1-7.7-0.2-11.6-0.3c-2.3,0-4.6,0.1-6.9,0.1c-0.8,0-0.8,0.4-0.7,1
		c0.1,0.8,0.7,0.5,1.1,0.5c2.1,0,4.1,0,6.2,0.1C145.8,405.4,148.7,405.5,151.6,405.7L151.6,405.7z M208,416.2c1.9,0,3.7-0.1,5.6,0
		c4.3,0.2,8.6,0.5,12.8,0.7c0.4,0,0.8,0,1.1-0.1c0.3-0.1,0.9-0.5,0.8-0.7c-0.1-0.4-0.4-0.9-0.7-1.2c-0.2-0.2-0.7-0.2-1-0.2
		c-2.4-0.1-4.8-0.2-7.2-0.4c-2.6-0.2-5.1-0.4-7.7-0.5c-1.6-0.1-3.2-0.3-4.8-0.4c-1.9-0.1-3.9,0-5.8,0c-1.7,0-3.4-0.1-5.1-0.2
		c-0.2,0-0.4,0.2-0.6,0.3c0.1,0.2,0.3,0.4,0.4,0.5c1.5,0.5,3,0.9,4.5,1.4C202.8,416.4,205.4,415.9,208,416.2L208,416.2z
		 M322.5,348.4c0,0,0,0.1,0,0.1c1.1-0.1,2.2-0.1,3.2-0.2c0.7,0,1.2-0.3,1.1-1.1c-0.1-0.5,0.1-1,0-1.5c-0.1-0.3-0.3-0.8-0.5-0.8
		c-1-0.1-2.2-0.4-2.9,0.5c-0.7,0.9-1.5,0.9-2.3,0.8c-2.1-0.3-4.1-0.6-6.2-0.7c-3-0.2-5.9-0.5-8.9-0.2c-0.6,0.1-1.3,0.5-1.8,0.9
		c-0.6,0.5-0.9,1.2-1.4,1.8c-0.1,0.1-0.2,0.3-0.4,0.4c0.2,0,0.3,0,0.5,0c2.4,0.1,4.9,0.1,7.3,0.2c0.8,0,1.5,0.1,2.3,0.1
		C315.8,348.7,319.1,348.6,322.5,348.4L322.5,348.4z M319.7,355C319.7,355,319.7,355,319.7,355c2,0.1,4,0.2,6,0.3
		c0.8,0.1,1.3-0.2,1.2-1.1c-0.1-0.7,0.3-1.7-1.1-1.7c-3.8-0.1-7.6-0.3-11.5-0.3c-2.5,0-5,0.4-7.5,0.7c-0.7,0.1-1.2,0.2-1.5-0.6
		c-0.1-0.2-0.5-0.5-0.7-0.5c-1.4,0-2.9,0-4.3,0.3c-0.7,0.2-1.2,1-1.7,1.6c0,0,0.3,0.6,0.5,0.6c1.2,0.1,2.5,0.1,3.7,0.2
		C308.4,354.6,314,354.8,319.7,355L319.7,355z M193.8,364.6c-0.8,0-1.5,0-2.1,0c-0.9-0.1-1,0.5-0.9,1.2c0.1,1,1,1,1.7,1
		c1.8,0.1,3.7,0.1,5.5,0.1c3,0.1,6,0.4,9,0.5c2.7,0.1,5.5,0.1,8.2,0.1c1.8,0,3.6,0.1,5.4,0.2c0.5,0,1,0,1.4,0c-0.3-0.4-0.6-1-1-1.3
		c-0.4-0.3-0.9-0.4-1.4-0.5c-0.6-0.1-1.2-0.2-1.8-0.3c-2.3-0.2-4.5-0.5-6.8-0.7c-4-0.3-8-0.5-12-0.6c-0.8,0-1.6,0.1-2.3-0.4
		C195.7,365.3,194.6,364.4,193.8,364.6L193.8,364.6z M160.3,341.5c0-0.1,0-0.1,0-0.2c-0.6,0.1-1.2,0.1-1.9,0.2c-1.2,0-0.8,1-0.9,1.6
		c-0.1,0.8,0.4,0.9,1.1,0.9c1.8-0.1,3.7-0.1,5.5-0.1c2,0,4.1,0.5,5.9,0c1.7-0.4,3.2-0.3,4.8-0.4c2.9-0.1,5.8,0,8.7-0.3
		c0.7-0.1,1.2-0.3,1.2-1.1c0-0.8-0.5-1.2-1.3-1.3c-0.3,0-0.5,0-0.8,0c-2,0.1-4,0.2-6,0.2c-2.4,0-4.8-0.2-7.2-0.1
		C166.6,341,163.5,341.3,160.3,341.5L160.3,341.5z M266,402.8c0,0,0-0.1,0-0.1c-0.5,0-0.9-0.1-1.4-0.1c-0.3,0-0.5,0-0.7,0
		c0.1,0.3,0.2,0.6,0.4,0.8c3.7,4,9.7,5.2,14.7,2.8c1.3-0.6,2.6-1.3,3.9-2c0.3-0.1,0.5-0.4,0.7-0.6c-0.3-0.1-0.5-0.3-0.8-0.3
		c-2.5-0.3-5.1-0.6-7.6-0.8c-1.1-0.1-2.2-0.1-3.4,0C269.8,402.4,267.9,402.6,266,402.8L266,402.8z M247,351.9
		c-2.4-0.8-3.8,0.7-5,2.3c-0.9,1.3-1.7,2.7-2.5,4.1c-0.1,0.2-0.3,0.7-0.1,0.9c0.9,1.1,1.9,2.1,2.8,3.1c0.7,0.8,1.3,0.7,1.8-0.1
		c1-1.3,1.9-2.7,2.8-4c0.4-0.6,1-1.1,1.6-1.6c0.1-0.1,0.3-0.4,0.3-0.4c-0.7-0.6,0-1,0.3-1.4c0.3-0.5,0.7-1,1-1.5
		c0.3-0.6,0.2-1-0.5-1.1C248.6,352,247.8,352,247,351.9L247,351.9z M140.2,394.3c0,0.1,0,0.2,0,0.3c-1.3,0.1-2.6,0.2-3.9,0.2
		c-1,0-1.4,0.4-1.4,1.4c0,1,0.6,1.2,1.4,1.1c1.9-0.1,3.7-0.2,5.6-0.1c4.4,0.2,8.8,0.6,13.2,0.8c0.7,0,1.2,0,1.5,0.7
		c0,0.1,0.3,0.1,0.5,0.2c0-1,0.1-1.9,0.1-2.9c0-0.3-0.2-0.6-0.3-0.9c0,0-0.2,0-0.3,0c-2.2-0.7-4.4-0.8-6.7-0.8
		C146.7,394.3,143.4,394.3,140.2,394.3L140.2,394.3z M152.2,380.2c0,0.1,0,0.2,0,0.3c1.3,0,2.6-0.1,3.9,0c0.9,0,1.2-0.3,1.2-1.1
		c0-0.9-0.3-1.4-1.3-1.4c-1.2,0-2.4,0-3.5-0.1c-1.4-0.1-2.9-0.2-4.3-0.3c-1.2-0.1-2.5,0-3.7-0.3c-2.7-0.6-5.4-0.1-8.1,0
		c-1.3,0.1-0.9,1.3-1.1,2.1c-0.2,0.9,0.6,0.8,1.1,0.8c2.5,0,4.9,0,7.4,0C146.6,380.2,149.4,380.2,152.2,380.2L152.2,380.2z
		 M145.4,392.7c0,0.1,0,0.1,0,0.2c0.9,0,1.8,0,2.6,0c2.6,0.1,5.1,0.3,7.7,0.4c0.5,0,1.4-0.1,1.5-0.4c0.2-0.7,0.1-1.5,0-2.3
		c0-0.1-0.3-0.3-0.5-0.3c-1.4-0.1-2.9-0.3-4.3-0.3c-1.8,0-3.5,0.1-5.3,0.1c-1.2,0-2.5,0-3.7,0c-2.5,0-5,0-7.5,0.1
		c-1.2,0.1-0.6,1.1-0.7,1.7c-0.1,0.7,0.2,0.7,0.8,0.7C139.1,392.7,142.2,392.7,145.4,392.7L145.4,392.7z M276.1,342.8
		c1.4-0.1,3,0.6,3.5-1.6c0,0,0.1-0.1,0.1-0.1c0.2-0.3,0.6-0.8,0.5-0.9c-0.3-0.4-0.7-0.8-1.2-0.9c-0.7-0.2-1.4,0-2.1,0
		c-0.5,0-1-0.2-1.4,0.6c-0.2,0.4-1.1,0.5-1.7,0.6c-0.3,0-0.6-0.4-0.9-0.4c-0.9-0.2-2-0.8-2.6-0.5c-0.9,0.6-1.5,0.2-2.3,0.2
		c-0.6,0-1.3-0.1-1.8,0.2c-0.8,0.5-1.6,0.3-2.4,0.1c-2.6-0.6-4.3,0.2-5.4,2.6c-0.1,0.2-0.2,0.4-0.3,0.5c0.2,0,0.4,0.1,0.6,0
		c0.6,0,1.2,0,1.8-0.1c1.5-0.3,3.3,0.3,4.5-1.1c0.1-0.1,0.5,0,0.6,0.1c1,0.9,2.2,1.2,3.5,0.7c0.4-0.2,0.9-0.2,1.3-0.2
		c0.8,0.1,1.4,0,2-0.7c0.1-0.1,0.4,0,0.6-0.1c-0.4,1.4,0.7,0.7,1.2,0.8C274.8,342.8,275.4,342.8,276.1,342.8L276.1,342.8z
		 M361.1,402.2c0.6-0.1,1.6-0.2,2.5-0.4c0.5-0.1,0.9-0.3,0.4-1c-0.2-0.3-0.2-1-0.1-1c1.4-0.3,0.6-2,1.6-2.5c0,0-0.2-0.5-0.3-0.8
		c-0.2,0.2-0.5,0.3-0.6,0.5c-0.4,1.1-1.1,1.4-2.3,1.1c-1.2-0.3-2.4-0.6-3.6-0.4c-2.7,0.3-5.3,0.4-8,0.1c-0.7-0.1-1,0.1-0.9,0.8
		c0.1,0.6,0.3,1.2,0.3,1.8c-0.1,1,0.4,1.2,1.2,1.3C354.5,401.7,357.6,401.9,361.1,402.2L361.1,402.2z M302.9,387
		c-2.5-0.1-4.2,0.1-5.4,2c-0.8,1.2-2.3,2-3.5,3c-1.1,0.9-2.2,1.7-3.3,2.5c-0.2,0.1-0.2,0.4-0.3,0.6c0.2,0,0.5,0.1,0.7,0.1
		c1.4-0.2,2.8-0.5,4.2-0.7c0.7-0.1,1.5-0.3,2.2-0.5c2-0.8,4-1.6,5.7-3c1.2-1,2.6-1.8,3.9-2.7c0.2-0.1,0.3-0.5,0.4-0.7
		c-0.2-0.1-0.5-0.2-0.7-0.2C305.4,387.2,303.8,387.1,302.9,387L302.9,387z M155.1,388.5c0,0,0,0.1,0,0.1c0.3,0,0.6-0.1,0.9,0
		c1,0.2,1.4-0.3,1.5-1.2c0.1-1-0.7-1-1.4-1.1c-1.2-0.1-2.4-0.2-3.5-0.3c-1.9-0.1-3.9-0.3-5.8-0.4c-1.6,0-3.2,0.1-4.8,0.1
		c-1.8,0-3.6,0-5.3,0.1c-0.7,0-1.3,0.2-1.4,1.1c-0.1,1,0.6,1.3,1.3,1.3c1.5,0.1,3,0.2,4.5,0.2c2.9,0,5.8,0,8.6,0
		C151.4,388.5,153.2,388.5,155.1,388.5L155.1,388.5z M154.4,401.9C154.4,401.8,154.4,401.8,154.4,401.9c0.7-0.1,1.3,0,2-0.1
		c0.3,0,0.7-0.3,0.7-0.5c0.1-0.5-0.1-1.1-0.1-1.6c-0.3,0.1-0.6,0.2-0.9,0.3c-0.2,0.1-0.5,0.1-0.7,0.1c-2.3-0.2-4.7-0.5-7-0.7
		c-4-0.3-8.1-0.7-12.1-0.3c-0.6,0.1-1.2-0.1-1.2,0.8c0.1,0.7-0.3,1.8,1,1.9c1.1,0.1,2.2,0.2,3.4,0.1c3.5-0.1,7,0.7,10.5-0.2
		c0.8-0.2,1.6,0,2.5,0.1C153.1,401.7,153.8,401.8,154.4,401.9L154.4,401.9z M351.1,392.2c-0.5,0.2-1.1,0.2-1.4,0.5
		c-0.7,1,0.2,2.9,1.4,2.9c2.3,0.1,4.6,0.1,6.9,0.2c1.9,0.1,3.9,0.1,5.8,0.3c1,0.1,1.5-0.3,1.5-1.2c0-0.6,0.2-1.2,0.4-1.8
		c0.1-0.4,0.2-0.8-0.5-0.9c-1,0-1.9-0.1-2.9-0.1C358.6,392.2,354.9,392.2,351.1,392.2L351.1,392.2z M153,376.2c0,0,0-0.1,0-0.1
		c0.9,0,1.9,0,2.8,0c1.1,0,1.4-0.3,1.2-1.3c-0.2-0.7-0.6-1.1-1.4-1.2c-3.7-0.1-7.4-0.4-11.1-0.5c-1.9-0.1-3.8,0-5.7,0
		c-0.7,0-1.4,0.1-2.2,0.2c-0.7,0.1-0.9,0.6-0.9,1.3c0,0.7,0.5,0.8,1,0.9c0.4,0,0.8,0.1,1.2,0.1c2,0,3.9,0,5.9,0.1
		C146.9,375.7,149.9,376,153,376.2L153,376.2z M144.3,382c0-0.1,0-0.1,0-0.2c-2.7,0.2-5.3,0.3-8,0.5c-0.4,0-0.8,0.4-1,0.7
		c-0.3,0.9,0,1.2,1.2,1.2c4.2,0.1,8.4,0.1,12.7,0.2c2.5,0.1,4.9,0.2,7.4,0.3c0.6,0,1.3-0.1,1.2-0.9c-0.1-0.6,0.2-1.7-1.1-1.7
		c-0.8,0-1.5-0.2-2.3-0.2C150.9,381.9,147.6,381.9,144.3,382L144.3,382z M215.3,363.9C215.3,363.9,215.3,363.9,215.3,363.9
		c0.7,0,1.4,0,2.2-0.1c0.3,0,0.6-0.1,0.9-0.1c-0.1-0.3-0.2-0.7-0.4-0.9c-0.9-1.4-2.4-1-3.7-1.1c-3.2-0.2-6.4-0.4-9.6-0.5
		c-1.6-0.1-3.2,0.1-4.8,0c-1.6-0.1-3.3-0.3-4.9-0.6c-1.3-0.3-2.6,0.2-3,1.3c-0.2,0.5-0.2,0.8,0.5,0.8c1.3,0,2.6,0.1,3.9,0.2
		c2.6,0.3,5.3-0.4,7.9,0.8c0.1,0.1,0.4-0.1,0.6-0.1c0.6-0.1,1.2-0.3,1.8-0.2C209.6,363.5,212.5,363.7,215.3,363.9L215.3,363.9z
		 M208.2,352.6c0,0.1,0,0.2,0,0.2c0.5,0,1-0.1,1.5-0.1c0.7,0,0.7-0.5,0.5-0.9c-0.4-0.7-0.9-1.4-1.4-2c-0.2-0.2-0.5-0.3-0.8-0.3
		c-1.4,0.1-2.8,0.2-4.3,0.3c-1.5,0.1-3.1,0.2-4.6,0.2c-2.6,0-5.1,0-7.7,0c-0.4,0-0.8,0.6-1.2,1c0.4,0.2,0.7,0.6,1.1,0.6
		c0.7,0.1,1.4,0.1,2.1,0.2c0.3,0,0.6,0.2,1,0.3c0.4,0.1,0.8,0.4,1.2,0.4C199.9,352.6,204,352.6,208.2,352.6L208.2,352.6z
		 M352.2,387.1C352.2,387,352.1,387,352.2,387.1c-0.5-0.1-0.9,0-1.4-0.1c-1.2-0.2-1.4,0.4-1.5,1.4c-0.1,1.5,0.1,1.7,1.6,1.8
		c0.7,0,1.3,0,2,0c1.8-0.1,3.7-0.2,5.5-0.2c1.9,0,3.9,0.1,5.8,0.2c0.3,0,0.6,0,0.9-0.1c1.1-0.4,0.5-1.2,0.5-1.9
		c0.1-0.8-0.2-0.8-0.8-0.9c-3-0.1-5.9-0.4-8.9-0.5C354.7,386.7,353.4,386.9,352.2,387.1L352.2,387.1z M249.8,348.6
		C249.8,348.6,249.8,348.6,249.8,348.6c0.7,0,1.4,0,2.2,0c1.3,0.1,2.3-0.7,2.7-2c0.1-0.3,0.3-0.7,0.4-1c0.1-0.2,0.2-0.5,0.3-0.7
		c-0.3-0.1-0.6-0.3-0.9-0.3c-0.9,0-1.7,0.1-2.6,0.1c-0.3,0-0.7-0.2-1-0.3c0.3-0.1,0.6-0.2,0.9-0.2c0.4,0,0.8,0,1.2,0
		c2.8,0.1,4.3-0.9,5.2-3.5c0.2-0.5,0.1-0.8-0.5-0.8c-0.7,0.1-1.4,0.3-2.1,0.3c-1.7,0.1-3.4,0.1-4.2,2.1c0,0.1-0.1,0.1-0.2,0.2
		c-1.9,1.3-2.9,3.4-4.2,5.2c-0.3,0.5-0.3,0.7,0.3,0.8C248.1,348.6,248.9,348.6,249.8,348.6L249.8,348.6z M243.7,348.6
		c0,0,0,0.1,0,0.1c0.7-0.1,1.7,0,2-0.4c1.4-1.6,2.7-3.3,3.7-5.1c1.3-2.2,0.8-2.7-1.8-2.8c-1.4,0-2.3,0.4-3.1,1.5
		c-0.9,1.3-1.9,2.5-2.8,3.6c-0.7,0.9-1.5,1.6-2.2,2.5c-0.1,0.1-0.1,0.2-0.2,0.4c0.1,0,0.3,0.1,0.4,0.1
		C241,348.6,242.3,348.6,243.7,348.6L243.7,348.6z M357.9,381.9c0,0.1,0,0.1,0,0.2c-2.4,0-4.8,0-7.3,0c-0.8,0-1,0.4-1,1.2
		c0,0.7,0,1.2,0.9,1.3c0.6,0,1.1,0.2,1.7,0.2c3.4,0.1,6.9,0.2,10.3,0.3c0.9,0,1.8-0.1,2.6-0.3c0.2,0,0.6-0.3,0.5-0.4
		c-0.2-0.7-0.3-1.5-0.7-2.2c-0.2-0.3-0.8-0.4-1.2-0.4C361.8,381.9,359.8,381.9,357.9,381.9L357.9,381.9z M151.2,351.5
		C151.2,351.5,151.2,351.5,151.2,351.5c0.4,0,0.7,0,1.1-0.1c0.1,0,0.4-0.2,0.4-0.4c0.1-0.9-1.2-2.1-2.2-2c-1.3,0.1-2.5,0.1-3.8-0.7
		c-1.1-0.6-2.7-0.4-4-0.6c-0.1,0-0.4,0.3-0.5,0.5c-0.2,0.8-0.8,0.8-1.3,0.7c-1.2-0.2-1.9,0.5-2.5,1.4c-0.4,0.7-0.3,1.1,0.5,1.1
		c1,0,2,0,3,0C145,351.6,148.1,351.6,151.2,351.5L151.2,351.5z M152.3,355.2c0,0.1,0,0.2,0,0.2c0.5-0.1,0.9-0.1,1.4-0.2
		c0.8-0.2,1.2-1.5,0.5-1.9c-0.7-0.4-1.6-0.6-2.4-0.6c-0.7-0.1-1.5,0.3-2.3,0.3c-1.4,0-2.8-0.2-4.1-0.1c-2.4,0.1-4.8,0.3-7.2,0.4
		c-0.3,0-0.5,0-0.8,0.1c-0.9,0.2-0.7,1-0.8,1.6c0,0.1,0.7,0.4,1.1,0.4c1.1,0,2.3-0.1,3.4-0.1C144.8,355.2,148.6,355.2,152.3,355.2
		L152.3,355.2z M297.2,417.9c0,0.1,0,0.2,0,0.3c0.5,0,1,0,1.5,0c0.2,0,0.3-0.3,0.5-0.5c-0.2-0.1-0.3-0.4-0.5-0.4
		c-1.8-0.1-3.7-0.2-5.5-0.2c-1.6,0-3.2,0-4.7,0.2c-1.6,0.1-3.3-0.6-4.7,0.8c0,0-0.3-0.1-0.4-0.2c-1.4-0.8-3.7-0.3-4.6,1
		c-0.4,0.5-0.4,1,0.4,1.1c2.7,0.4,5.4,0.4,8.1-0.2C290.6,418.9,293.9,418.5,297.2,417.9L297.2,417.9z M314.5,295.8
		c-0.1,0-0.2,0.1-0.4,0.1c0.4,1.4,0.8,2.8,1.2,4.2c0.4,1.4,0.9,2.8,1.4,4.2c0.1,0.4,0.3,0.8,0.5,1.1c0.3,0.6,1.4,0.7,1.9,0.3
		c0.4-0.4,0.8-0.9,1.2-1.3c0.7-0.6,0.8-1.5,0-2c-0.8-0.5-1.1-1.1-1.1-1.9c0-0.5,0.2-1.1-0.6-1.1c0,0-0.1-0.4-0.1-0.6
		c0-0.2,0-0.7-0.1-0.7c-1.2-0.3-1.1-1.5-1.5-2.3c-0.6-0.9-1.1-1.9-1.7-2.7c-0.1-0.2-0.5-0.2-0.7-0.3c-0.1,0.3-0.2,0.5-0.2,0.8
		C314.3,294.4,314.4,295.1,314.5,295.8L314.5,295.8z M160.9,414.3C160.9,414.2,160.9,414.2,160.9,414.3c-0.2-0.1-0.4-0.1-0.6-0.1
		c-0.4,0.2-0.7,0.4-1,0.6c0.3,0.3,0.7,0.7,1,0.7c2.7,0.2,5.4,0.4,8.2,0.4c2.9,0,5.7-0.2,8.6-0.3c2.6-0.1,5.1,0,7.7,0
		c0.4,0,0.7-0.3,1.1-0.5c-0.4-0.2-0.7-0.6-1.1-0.6c-5.1-0.1-10.2-0.3-15.3-0.3C166.6,414.2,163.8,414.3,160.9,414.3L160.9,414.3z
		 M359.1,406.9c2.4,0.2,2.6,0,3.2-1.8c0.4-1,0-1-0.8-1c-2.2-0.1-4.3-0.3-6.5-0.5c-1.1-0.1-2.2-0.2-3.3-0.1c-0.4,0-1.1,0.4-1.2,0.7
		c-0.4,1.5,0.5,2.6,2,2.7C354.8,407,357,406.9,359.1,406.9L359.1,406.9z M140.1,410.5c0-0.1,0-0.2,0-0.3c-0.7,0-1.3-0.1-2,0
		c-0.4,0.1-0.7,0.4-1.1,0.6c0.4,0.3,0.7,0.8,1.1,0.9c2.4,0.4,4.8,0.7,7.2,0.9c2.7,0.2,5.4,0.1,8,0.4c1.5,0.2,1.8-1.1,2.8-1.4
		c-0.1-0.2-0.1-0.4-0.2-0.5c-0.8-0.2-1.7-0.4-2.5-0.4c-2.4-0.1-4.7-0.2-7.1-0.3C144.2,410.5,142.2,410.5,140.1,410.5L140.1,410.5z
		 M362.7,372.9c1.3,0.1,2-0.3,2.1-1.4c0.1-1.3-0.2-1.7-1.7-1.7c-2.2-0.1-4.4,0-6.6,0c-1.5,0-2.5,0.8-3.1,2.1c-0.3,0.6-0.5,1.1,0.6,1
		C356.8,372.9,359.8,372.9,362.7,372.9L362.7,372.9z M333.1,321c-0.1,0-0.1,0-0.2,0c0-1.2,0-2.4,0-3.6c0-0.8-0.5-0.9-1.1-0.7
		c-0.3,0.1-0.6,0.3-0.7,0.5c-0.7,0.9-1.3,1.8-2.5,2.1c-0.5,0.1-0.5,0.4-0.1,0.8c0.2,0.2,0.4,0.4,0.4,0.6c0.4,2.6,2.1,4.6,3.2,6.9
		c0.1,0.3,0.5,0.4,0.7,0.6c0.1-0.3,0.2-0.6,0.2-0.8C333.2,325.3,333.1,323.2,333.1,321L333.1,321z M259.5,387.4
		c-0.7-0.3-1-0.2-0.7,0.6c0.2,0.6,0.4,1.3,0.6,1.9c0.2,0.7,0.6,0.9,1.4,0.9c2.7,0.1,5.3,0.3,8,0.5c0.5,0,0.7,0.1,0.6-0.5
		c-0.2-0.7-0.4-1.5-0.5-2.2c-0.1-0.8-0.6-1.1-1.4-1.1C264.8,387.5,262.1,387.4,259.5,387.4L259.5,387.4z M218.5,336.4
		c0,0.1,0,0.2,0,0.4c1.2-0.2,2.4-0.4,3.6-0.6c0.3-0.1,0.6-0.2,1-0.4c-0.2-0.3-0.4-0.7-0.6-1c-0.8-1.4-3-0.9-3.4-2.8
		c0-0.1-0.3-0.1-0.4-0.1c-1.2,0-2.4,0.1-3.3,1.1c-0.7,0.7-1.4,1.5-2,2.3c-0.2,0.2-0.5,0.5-0.7,0.7c0.4,0.1,0.7,0.4,1.1,0.4
		C215.3,336.4,216.9,336.4,218.5,336.4L218.5,336.4z M240.2,351.5c0,0,0-0.1,0-0.1c-0.9,0.1-1.8,0.1-2.7,0.3c-2,0.5-2.7,2.3-1.5,4
		c0.4,0.6,0.9,1.2,1.4,1.8c0.6,0.7,1.1,0.7,1.7-0.1c1-1.4,2-2.7,3-4.1c0.3-0.5,0.4-1.1,0.6-1.7c-0.6,0-1.1-0.1-1.7-0.1
		C240.7,351.5,240.5,351.5,240.2,351.5L240.2,351.5z M306,417.1c-1.5,0-2.7-0.1-3.8,0c-0.4,0-0.7,0.4-1,0.7c0.3,0.2,0.6,0.5,0.9,0.5
		c2.9,0.3,5.7,0.5,8.6,0.7c1.4,0.1,2.7,0,4.1-0.1c0.7,0,1.4-0.2,2,0c2.3,0.6,4.5-0.4,6.6-0.9c0.5-0.1,0.8-0.5,1.3-0.8
		c-0.5,0-0.9-0.1-1.4-0.1c-0.3,0-0.7,0.1-1,0.2c-0.7,0.2-1.4,0.4-2.1,0.5c-1.9,0.1-3.9,0.1-5.8,0C311.4,417.5,308.5,417.3,306,417.1
		L306,417.1z M152.1,358.2c0,0,0,0.1,0,0.2c0.7,0,1.4,0.1,2.2,0c0.3,0,0.6-0.4,0.9-0.6c-0.3-0.2-0.5-0.6-0.9-0.7
		c-0.6-0.1-1.3-0.2-2-0.2c-3.2-0.1-6.3-0.2-9.5-0.3c-1.7,0-3.5,0.1-5.2,0.2c-0.3,0-0.7,0-0.9,0.2c-0.2,0.1-0.4,0.5-0.4,0.7
		c0,0.1,0.3,0.4,0.5,0.4c2.1-0.3,4,0.9,6.3,0.4C146,357.9,149.1,358.3,152.1,358.2L152.1,358.2z M358.8,353.2c0-0.1,0-0.1,0-0.2
		c-0.8,0.1-1.7,0-2.5,0.2c-0.7,0.2-1.4,0.5-2,1c-0.7,0.6-0.4,1.4,0.5,1.6c0.6,0.1,1.1,0.1,1.7,0.1c2.1-0.1,4.2-0.3,6.3-0.5
		c0.7-0.1,1.5-0.2,2-0.6c0.3-0.2,0-1,0-1.6c0-0.1,0-0.1,0.1-0.1c0.3-0.8-0.1-0.8-0.7-0.7C362.4,352.7,360.6,353,358.8,353.2
		L358.8,353.2z M356.2,361.8c-0.9-0.2-1.4,0-0.9,1.2c0,0.1,0,0.2,0,0.3c-0.1,1.1,0.5,1.3,1.4,1.3c1.2-0.1,2.4,0,3.7-0.1
		c1.3-0.1,2.5-0.2,3.8-0.3c1.3-0.1,1-1,1-1.8c0-0.9-0.6-0.9-1.3-0.9C361.5,361.6,358.9,361.7,356.2,361.8L356.2,361.8z M146.5,361
		C146.5,361,146.5,361,146.5,361c1.8,0,3.6,0,5.4,0c1,0,2.1,0,3.1-0.1c0.3,0,0.5-0.4,0.8-0.6c-0.2-0.2-0.5-0.5-0.7-0.5
		c-1.2-0.1-2.4-0.3-3.6-0.3c-1.5,0-3,0-4.5,0c-0.1,0-0.3-0.1-0.4-0.1c0.1,0,0.3,0,0.4-0.1c0.6,0,1.1-0.1,1.7-0.1
		c0.1,0,0.2-0.1,0.3-0.2c-0.1-0.1-0.2-0.3-0.3-0.3c-1.1,0.1-2.1,0.1-3.2,0.2c-0.5,0.1-1,0.4-1.6,0.5c-1.9,0.1-3.7,0.2-5.6,0.3
		c-0.7,0-1.8-0.2-1.8,0.7c0,1,1.1,0.6,1.8,0.6C141.1,361,143.8,361,146.5,361L146.5,361z M362.3,380.1
		C362.3,380,362.3,380,362.3,380.1c0.7-0.1,1.3-0.1,2-0.3c0.2,0,0.5-0.4,0.5-0.6c0-0.2-0.2-0.5-0.4-0.6c-0.3-0.1-0.6-0.2-0.9-0.2
		c-2.5-0.1-5-0.3-7.5-0.4c-1.6,0-3.2,0.1-4.8,0.1c-1.1,0-0.9,1-1,1.5c-0.2,0.8,0.6,0.4,1,0.4C354.9,380.1,358.6,380.1,362.3,380.1
		L362.3,380.1z M329.6,365.6C329.6,365.6,329.6,365.6,329.6,365.6c0,0.4,0,0.7,0,1.1c0,0.4,0.1,0.8,0.2,1.2c0.2,1.3,1,1.7,2.1,0.8
		c0.4-0.3,0.6-1.1,0.6-1.7c0-2.3-0.1-4.6-0.2-7c0-1.1-0.3-1.3-1.4-1.3c-1,0-1.1,0.6-1.1,1.4C329.7,362.1,329.6,363.8,329.6,365.6
		L329.6,365.6z M332.8,313.1c0-0.5,0-1,0-1.5c0-0.3-0.2-0.6-0.4-0.9c-0.3,0.2-0.6,0.3-0.9,0.5c-0.7,0.5-1.5,1-2.2,1.6
		c-0.9,0.8-2,1.5-2.6,2.5c-0.3,0.5,0.5,1.6,0.8,2.4c0,0,0,0.1,0.1,0.1c0.2,0.4,0.4,0.7,0.9,0.3c0.9-0.7,1.8-1.4,2.8-1.9
		C332.7,315.6,333.1,314.6,332.8,313.1L332.8,313.1z M290,400.2c0.1-0.1,0.3-0.2,0.4-0.3c0.7-1.7,2.4-2.2,3.8-3.2
		c0.4-0.3,0.8-0.6,1.1-0.8c-0.4-0.2-0.9-0.4-1.3-0.6c-0.2-0.1-0.5,0-0.7,0c-0.9,0.2-1.8,0.3-2.7,0.5c-0.7,0.2-1.4,0.2-2,0.6
		c-1.1,0.6-2.1,1.3-3.1,2c-0.4,0.3-0.8,0.7-1.2,1.1c0.6,0,1.2,0.2,1.7,0.1c1.3-0.2,2.6-0.7,3.7,0.6
		C289.7,400.1,289.8,400.1,290,400.2L290,400.2z M336.2,372.3c0,0-0.1,0-0.1,0c0-0.3,0-0.5,0-0.8c-0.1-0.3-0.2-0.7-0.3-1
		c-0.5,0.3-1,0.5-1.3,0.9c-0.1,0.1,0.1,0.6,0,0.9c-0.2,0.4-0.6,0.6-0.8,0.9c-0.1-0.3-0.3-0.6-0.3-0.9c0.1-0.8-0.4-0.9-0.9-0.6
		c-0.6,0.4-1.2,0.9-1.8,1.4c-0.8,0.6-1.3,1.9-0.9,2.8c0.1,0.3,0.6,0.6,0.9,0.6c1.5-0.3,3-0.7,4.4-1.1c0.3-0.1,0.6-0.6,0.8-1
		C336.1,373.6,336.1,373,336.2,372.3L336.2,372.3z M253.9,355.5c2,0.3,3.1-0.3,3.8-1.9c0.5-1.1,0.4-1.3-0.8-1.4c-1-0.1-2-0.2-3-0.2
		c-1.3,0-2.6,0-3.2,1.5c-0.1,0.2-0.4,0.2-0.6,0.4c-0.2,0.3-0.5,0.7-0.5,0.9c0.1,0.3,0.5,0.6,0.8,0.6
		C251.7,355.6,252.9,355.5,253.9,355.5L253.9,355.5z M360.3,347.8C360.3,347.8,360.3,347.8,360.3,347.8c-0.6,0.1-1.2,0.2-1.8,0.1
		c-0.8-0.1-1.4,0.2-1.8,0.9c-0.3,0.4-0.6,0.9-0.9,1.3c-0.5,0.7-0.3,1,0.6,1c1.4,0,2.8,0.1,4.2,0c0.8,0,1.6-0.1,2.3-0.4
		c0.6-0.2,1.4-0.8,1.4-1.3c0.1-1.1-0.7-1.6-1.9-1.6C361.6,347.7,360.9,347.8,360.3,347.8L360.3,347.8z M226.3,351.6
		c-2.2,0.3-4.6,0.8-6.8,1.9c-0.3,0.1-0.6,0.6-0.6,0.8c0,0.5,0.4,0.9,1.1,0.8c0.5-0.1,0.9-0.1,1.4-0.2c2.2-0.4,4.4-0.9,6.6-1.3
		c0.6-0.1,0.8-0.4,0.7-1.1C228.4,351.3,227.4,351.8,226.3,351.6L226.3,351.6z M170.3,338.5C170.3,338.5,170.3,338.5,170.3,338.5
		c-0.7,0-1.4,0.1-2.1,0.2c-0.2,0-0.5,0.1-0.7,0.2c0.3,0.1,0.5,0.2,0.8,0.2c3.2,0.1,6.5,0.2,9.7,0.2c2.4,0.1,4.7,0.1,7.1,0.2
		c0.3,0,0.7,0,0.9-0.2c0.3-0.2,0.4-0.5,0.6-0.8c-0.3-0.2-0.6-0.5-0.8-0.5c-3.2,0-6.4-0.1-9.6,0C174.2,338.1,172.3,338.3,170.3,338.5
		L170.3,338.5z M362.6,359.6C362.6,359.6,362.6,359.7,362.6,359.6c0.2,0.1,0.4,0.1,0.6,0.1c0.7-0.1,1.5-0.2,2.2-0.5
		c0.1,0-0.2-0.9-0.2-1.4c0-0.7,0-0.7-0.7-0.6c-2.3,0.2-4.7,0.4-7.1,0.7c-0.6,0.1-1.2,0-1.7,0.2c-0.3,0.1-0.6,0.6-0.8,0.9
		c0.3,0.2,0.6,0.4,0.9,0.6c0.1,0.1,0.3,0,0.5,0C358.4,359.6,360.5,359.6,362.6,359.6L362.6,359.6z M354.7,409.2c0-0.1,0-0.2,0-0.2
		c-0.9,0-1.9,0-2.8,0c-0.5,0-0.6,0.1-0.4,0.6c0.9,2,1.1,2.2,3.3,2.1c0.6,0,1.1,0,1.7,0c2.3,0.1,3.1-0.4,3.7-2.4
		c0-0.1-0.2-0.3-0.2-0.3C358.3,409,356.5,409.1,354.7,409.2L354.7,409.2z M343.1,366.4c0.1,0.6,0.2,1.1,0.2,1.7c0,0.6,0,1.1,0.1,1.7
		c0,0.2,0.4,0.5,0.6,0.5c0.6,0,2.8-2.6,2.7-3.2c0-0.1-0.1-0.3-0.1-0.4c-0.4-1.2-0.2-1.8,0.9-2.2c0.8-0.3,0.9-0.5,0.5-1.1
		c-0.4-0.7-0.8-0.2-1.3,0.1c-0.5,0.3-1,0.7-1.6,0.8C343.3,364.4,343.2,364.4,343.1,366.4L343.1,366.4z M322,310.2
		c-0.1-1.1-0.2-2.1-0.8-3c-0.3-0.6-0.5-1.5-1.3-1.1c-0.7,0.3-1.6,1.2-1.6,1.8c0,1.4,0.5,2.8,1,4.2c0.1,0.4,0.7,0.8,1.1,0.9
		c0.4,0,1-0.3,1.2-0.7C321.9,311.6,321.9,310.9,322,310.2L322,310.2z M329.6,345.4c0,0.9-0.1,1.7,0,2.4c0,0.3,0.4,0.7,0.6,0.8
		c0.3,0.1,0.7,0,1.1,0.1c1,0.1,1.3-0.3,1.2-1.2c0-1.3,0.2-2.6,0.1-3.8c0-0.4-0.4-1-0.8-1.1c-0.6-0.2-1.3-0.2-1.9-0.3
		c0,0-0.1,0.4-0.2,0.7C329.7,343.7,329.7,344.6,329.6,345.4L329.6,345.4z M340.4,370.4c0-0.8,0-1.5,0-2.3c0-0.2-0.6-0.6-0.6-0.6
		c-0.9,0.8-1.9,1.6-2.5,2.6c-0.4,0.8-0.3,1.9-0.4,2.9c-0.1,1,0.2,1.2,1.3,1C339.9,373.7,340.5,372.8,340.4,370.4L340.4,370.4z
		 M302.8,405.7c0.5-0.1,1.1-0.1,1.5-0.4c0.7-0.5,1.3-1.2,2-1.9c0.1-0.1,0-0.7,0-0.7c-1-0.2-2.1-0.4-3.1-0.4c-0.3,0-0.5,0.9-0.9,1.1
		c-0.2,0.1-0.3-1.1-1-0.6c-0.6,0.4-1.2,0.8-1.8,1.3c-0.3,0.3-0.4,0.8-0.5,1.2c0.5,0,1.1,0,1.6,0c0.2,0,0.3-0.4,0.5-0.5
		c0.1-0.1,0.2,0,0.3,0C300.9,406.2,302.2,405.4,302.8,405.7L302.8,405.7z M362.9,376.4c0,0,0,0.1,0,0.1c0.3,0,0.6,0.1,0.9,0.1
		c0.3-0.1,0.6-0.3,0.9-0.4c-0.2-0.4-0.3-0.9-0.6-1.1c-0.2-0.2-0.7-0.1-1-0.1c-2,0-4,0-6,0c-1.6,0-3.2,0.1-4.8,0.2
		c-0.2,0-0.4,0.3-0.7,0.5c0.2,0.1,0.5,0.3,0.8,0.3C355.9,376.1,359.4,376.2,362.9,376.4L362.9,376.4z M324.4,402.3
		c0-0.1,0-0.2-0.1-0.3c-1.3,0.3-2.7,0.4-4,0.9c-1.8,0.7-3.4,1.6-5.1,2.5c-0.1,0.1-0.2,0.3-0.3,0.4c0.2,0.1,0.4,0.2,0.6,0.2
		c1.1-0.2,2.1-0.3,3.2-0.6c2.6-0.8,5.2-1.6,7.8-2.5c0.2-0.1,0.4-0.3,0.6-0.4c-0.2-0.1-0.4-0.2-0.6-0.2
		C325.7,402.2,325,402.3,324.4,402.3L324.4,402.3z M141.7,413.8c-0.5,0-0.8,0-1.1,0.1c-0.4,0.1-0.8,0.2-1.2,0.4
		c0.4,0.3,0.7,0.7,1.1,1c0.1,0.1,0.4,0.1,0.6,0.1c1.7,0.1,3.3,0.2,5,0.3c0.7,0,1.5,0.2,2.1,0c1.1-0.4,2.2-0.4,3.3-0.3
		c0.5,0.1,1,0,1.6,0c0.2,0,0.4-0.1,0.6-0.2c-0.2-0.1-0.4-0.3-0.5-0.3c-1.2-0.1-2.5-0.1-3.7-0.2C146.8,414.4,144.1,414.1,141.7,413.8
		L141.7,413.8z M145.1,418c0.1-0.2,0.1-0.3,0.2-0.5c0.9,0.3,1.8,0.4,2.6,0.8c1,0.6,2,0.4,3,0c0.6-0.2,1.1-0.6,0.7-1.3
		c-0.1-0.3-0.7-0.5-1.1-0.5c-0.8,0-1.8,0.4-2.4,0.1c-1.9-0.8-3.9-0.4-5.8-0.7c-0.1,0-0.3,0.1-0.5,0.2c0.1,0.1,0.1,0.3,0.2,0.4
		C143.1,417.1,144.1,417.6,145.1,418L145.1,418z M359.4,366.5C359.4,366.5,359.4,366.5,359.4,366.5c-0.6,0-1.1-0.1-1.7,0
		c-0.8,0-1.6-0.1-2.3,0.1c-0.3,0.1-0.5,0.6-0.7,1c0.3,0.1,0.6,0.2,0.8,0.3c0.6,0.1,1.1,0.1,1.7,0.1c2.3,0,4.6,0,6.9,0
		c0.7,0,0.8-0.3,0.7-0.8c0-0.6-0.3-0.9-1-0.9C362.4,366.3,360.9,366.4,359.4,366.5L359.4,366.5z M230.6,403.5
		c-0.4,0.1-0.8,0.2-1.3,0.4c0.1,0.4,0.2,0.9,0.4,1.3c0.2,0.4,0.5,0.8,0.7,1.2c0.8,1.6,1,1.8,3.2,1.7c1,0,1.1-0.3,0.6-1.1
		c-0.3-0.5-0.7-0.9-0.9-1.5C233,404.2,232.1,403.5,230.6,403.5L230.6,403.5z M316.2,401.9c-0.3,0.1-0.9,0.1-1.3,0.3
		c-1.5,0.6-2.9,1.2-4.3,1.9c-0.6,0.3-1.1,1-1.6,1.6c0,0,0.2,0.3,0.3,0.3c0.8-0.1,1.7-0.2,2.5-0.4c0,0,0.1-0.1,0.1-0.1
		c0.6-0.4,1.2-0.9,1.9-1.2c1.1-0.5,2.3-0.8,3.5-1.2c0.3-0.1,0.5-0.4,0.8-0.7c-0.3-0.1-0.5-0.3-0.8-0.4
		C316.9,401.9,316.7,401.9,316.2,401.9L316.2,401.9z M219.7,351.4c0,0,0,0.1,0,0.2c1.9-0.4,3.9-0.8,5.8-1.2c0.7-0.1,1-0.6,1-1.2
		c0-0.4,0.1-0.7-0.5-0.6c-2.4,0.6-4.9,1.2-7.3,1.8c-0.2,0.1-0.3,0.4-0.5,0.6c0.2,0.2,0.4,0.4,0.7,0.4
		C219.2,351.5,219.4,351.4,219.7,351.4L219.7,351.4z M296.3,405.1c0,0.1,0.1,0.2,0.1,0.3c0.4-0.2,1-0.2,1.3-0.5
		c0.5-0.5,0.9-1.1,1.3-1.7c0.1-0.2,0.2-0.4,0.2-0.7c-0.2,0-0.4-0.1-0.6,0c-0.6,0.1-1.3,0.6-1.7,0.4c-1.8-0.8-3,0-4.2,1.2
		c-0.2,0.2-0.4,0.4-0.5,0.6c0.3,0.1,0.5,0.4,0.8,0.4C294.1,405.1,295.2,405.1,296.3,405.1L296.3,405.1z M283.2,343.1
		c1.6,0.2,2.7-0.4,3.2-1.9c0-0.1,0.1-0.2,0.2-0.2c0.2-0.2,0.3-0.5,0.5-0.7c-0.3-0.1-0.7-0.5-0.9-0.4c-1.2,0.4-2.5,0-3.5,0.8
		c-0.7,0.5-1.3,1.2-1.9,1.9C281.5,342.7,282.4,342.9,283.2,343.1L283.2,343.1z M237.1,401.7c0.7,0.1,1.3,0.2,2,0.2
		c0.2,0,0.6,0,0.6-0.2c0.6-0.8-0.3-2.4-1.3-2.5c-1.2-0.1-2.3-0.1-3.5-0.1c-0.2,0-0.6,0.3-0.6,0.4C234.4,401,235.6,402,237.1,401.7
		L237.1,401.7z M331.3,404.9c0.4-0.1,0.7-0.2,1-0.3c0.9-0.2,1.8-0.6,2.7-0.6c0.4,0,0.7,0.1,0.7-0.4c0-0.3-0.1-0.7-0.4-0.9
		c-0.3-0.2-0.8-0.2-1.2-0.3c-1.2,0-2.4-0.1-3.5,0c-0.5,0-1.1,0.3-1.5,0.5c-0.6,0.3-0.4,0.8,0.1,1
		C329.9,404.4,330.6,404.6,331.3,404.9L331.3,404.9z M241.6,408.5c0.1,0,0.3-0.1,0.5-0.2c-0.1-0.3-0.2-0.5-0.4-0.8
		c-0.2-0.3-0.7-0.6-0.7-0.9c0-2.1-1.2-2.7-3-2.5c0,0-0.1,0-0.1,0c-0.7-0.1-0.8,0.2-0.5,0.7c0.5,0.8,1.2,1.5,1.4,2.3
		C239.3,408.5,240.3,408.5,241.6,408.5L241.6,408.5z M339.6,348.3c-0.2-0.4-0.3-0.6-0.5-0.8c-0.8-1-1.6-2-2.4-2.9
		c-0.3-0.3-0.6-0.6-1-0.8c-0.2,0.5-0.4,0.9-0.5,1.4c-0.1,0.9-0.2,1.8-0.1,2.7c0,0.2,0.4,0.5,0.5,0.5c1.1-0.7,2.2-0.1,3.2,0.1
		C339.1,348.5,339.3,348.4,339.6,348.3L339.6,348.3z M221.2,358.1c2.2-0.4,4.4-0.9,6.5-1.3c0.6-0.1,1-0.3,0.9-1
		c-0.2-0.8-0.8-0.8-1.3-0.6c-2.1,0.6-4.1,1.2-6.2,1.9c-0.3,0.1-0.5,0.5-0.8,0.7C220.6,357.9,220.9,358,221.2,358.1L221.2,358.1z
		 M219.3,348.3c0.9-0.1,1.8-0.2,2.6-0.4c0.8-0.1,1.5-0.2,2.3-0.4c0.3-0.1,0.4-0.6,0.6-0.9c-0.3-0.1-0.6-0.5-0.9-0.4
		c-1.6,0.3-3.3-0.5-4.9,0.3c-0.2,0.1-0.4,0-0.6,0c-0.6-0.1-0.7,0.3-0.7,0.7c0,0.3,0.2,0.7,0.5,0.9
		C218.5,348.3,218.9,348.3,219.3,348.3L219.3,348.3z M230.3,401.8c0.2-0.2,0.6-0.5,1-0.8c-0.2-0.2-0.5-0.5-0.7-0.7
		c-0.2-0.2-0.4-0.4-0.4-0.6c0.1-1-0.6-1.1-1.3-1.1c-0.7,0-1.4-0.2-2.1-0.2c-0.1,0-0.4,0.1-0.5,0.3c-0.3,0.9,0.8,2.6,1.7,2.8
		C228.6,401.6,229.3,401.6,230.3,401.8L230.3,401.8z M343.4,360.8c0,0-0.1,0-0.1,0c0,0.3,0,0.6,0,0.9c0,0.3,0.2,0.5,0.3,0.8
		c0.2-0.2,0.6-0.3,0.7-0.5c0.3-0.7,0.7-1.5,0.8-2.3c0.2-1.8-0.2-3.5-1.3-4.9c-0.1-0.2-0.4-0.2-0.6-0.2c0,0-0.2,0.3-0.2,0.4
		c0.6,0.7,0,1.5,0,2.2C343.2,358.3,343.3,359.6,343.4,360.8L343.4,360.8z M328.2,395.3c0.6,0,1.1,0,1.4-0.1c1.7-0.7,3.5-1.5,5.2-2.3
		c0.2-0.1,0.3-0.3,0.5-0.5c-0.2-0.2-0.3-0.4-0.6-0.5c-0.3-0.1-0.6-0.1-0.9,0c-1.9,0.6-3.7,1.1-5.6,1.8c-0.5,0.2-0.9,0.7-1.4,1
		C327.4,395,327.9,395.2,328.2,395.3L328.2,395.3z M236.3,413.7c1.2,0,1.5-0.3,1.2-1.3c-0.2-0.8-1.6-2.1-2.4-2.1
		c-0.6,0-1.2,0.1-1.8,0.1c0.2,0.5,0.4,1,0.7,1.5C234.5,412.9,234.9,414,236.3,413.7L236.3,413.7z M286.5,412.2
		c-0.9,0.1-1.6,0-2.2,0.3c-0.5,0.2-0.7,0.9-1,1.4c0.4,0.1,0.9,0.2,1.3,0.2c1.3-0.2,2.5-0.4,3.8-0.6c0.6-0.1,1.2-0.1,1.8-0.2
		c0.3-0.1,0.6-0.5,0.9-0.8c-0.4-0.1-0.7-0.3-1.1-0.2c-0.5,0.1-1,0.3-1.6,0.4c-0.2,0-0.4,0.1-0.5,0.1
		C287.4,412.5,286.8,412.3,286.5,412.2L286.5,412.2z M315.3,310.1c0,1.3,1.7,4.1,2.6,4.3c0.3,0.1,0.8-0.1,1.1-0.3
		c0.2-0.1,0.2-0.7,0-0.9c-0.8-1.1-1.6-2.2-2.5-3.3c-0.2-0.3-0.6-0.4-0.9-0.5C315.4,309.8,315.3,310.1,315.3,310.1L315.3,310.1z
		 M243.3,410.6c-0.5,0.1-0.7,0.2-0.9,0.2c-0.8,0.1-1.4,0.2-0.6,1.2c1.2,1.5,2.4,3.2,3.6,4.7c0.2,0.2,0.6,0.3,0.8,0.4
		c-0.1-0.3,0-0.8-0.2-1c-0.7-1-1.5-2-2.3-3.1c-0.3-0.5-0.9-1-0.2-1.6C243.7,411.4,243.4,410.9,243.3,410.6L243.3,410.6z M295.3,412
		c-0.5,0-1.1-0.1-1.7,0c-0.6,0.1-1.2,0.3-1.7,0.5c-0.1,0.1-0.2,0.3-0.2,0.5c0,0.1,0.2,0.2,0.4,0.2c1.7,0,3.5,0.2,5.2,0
		c0.6,0,1.2-0.7,1.7-1.2c0.1-0.1,0.1-0.4,0-0.5c0-0.1-0.3-0.2-0.4-0.2C297.8,412.4,296.5,411.6,295.3,412L295.3,412z M329.8,401
		c2.3-0.6,4.6-1.2,6.9-1.9c0.1,0,0.3-0.1,0.4-0.3c0-0.1,0-0.4-0.1-0.4c-0.9,0-1.9,0-2.8,0.1c-1.3,0.2-2.5,0.5-3.8,0.8
		c-0.4,0.1-0.7,0.3-1.1,0.6c-0.1,0.1-0.3,0.4-0.3,0.4C329.2,400.6,329.4,400.7,329.8,401L329.8,401z M236.8,408.4
		c1.3,0,1.4-0.4,0.9-1.2c-0.4-0.7-1.1-1.2-1.2-1.9c-0.2-1.1-0.9-1.2-1.6-1.3c-0.6-0.1-1.1,0-0.7,0.8c0.5,0.9,0.9,1.9,1.5,2.8
		C236,408,236.6,408.2,236.8,408.4L236.8,408.4z M236.2,372.5c0,0,0.3-0.1,0.5-0.3c0.7-1,1.4-2.1,2-3.2c0.1-0.2,0.1-0.4,0.2-0.7
		c-0.2,0-0.4-0.2-0.6-0.1c-1.4,0.6-2.9,1-3.2,3C234.9,372.2,235.1,372.4,236.2,372.5L236.2,372.5z M329.6,354.1
		c0,1.3,0.1,1.5,1.5,1.5c1.2,0,1.3-0.1,1.3-1.6c0-1.2-0.2-1.5-1.3-1.5C329.9,352.5,329.7,352.8,329.6,354.1L329.6,354.1z M237.9,417
		C237.9,417,237.9,417,237.9,417c0.4,0,0.8,0.1,1.2,0c0.2,0,0.4-0.1,0.5-0.2c-0.1-0.2-0.1-0.4-0.3-0.5c-0.6-0.8-1.5-0.8-2.4-0.1
		c-0.2,0.2-0.6,0.2-0.9,0.3c-0.1-0.3-0.2-0.5-0.2-0.8c0.2-0.8-0.2-0.8-0.8-0.6c-0.4,0.1-0.9,0.3-1.3,0.4c-0.3,0.1-0.5,0.2-0.8,0.3
		c0.2,0.4,0.4,0.8,0.8,1.1c0.2,0.2,0.6,0.1,0.9,0.1C235.8,417,236.9,417,237.9,417L237.9,417z M168.4,417.6
		C168.4,417.6,168.5,417.6,168.4,417.6c0.7-0.1,1.3-0.2,2-0.2c0.1,0,0.2-0.2,0.3-0.2c-0.1-0.1-0.2-0.3-0.3-0.3
		c-0.2-0.1-0.5-0.1-0.8-0.1c-2.6,0-5.2-0.1-7.8-0.1c-0.6,0-1.2,0.2-1.9,0.3c0.4,1,1.2,0.5,1.8,0.6
		C164.1,417.7,166.3,417.6,168.4,417.6L168.4,417.6z M238.4,410.6c-0.8-0.2-0.8,0.1-0.5,0.7c0.2,0.5,0.5,0.9,0.7,1.4
		c0.5,1.1,1.5,1.1,2.4,1.4c0.1,0,0.3-0.2,0.3-0.4C241.2,412.7,239.3,410.6,238.4,410.6L238.4,410.6z M229.7,362.4
		c1.1-0.3,2-0.5,2.9-0.9c0.3-0.1,0.4-0.7,0.5-1c0-0.1-0.3-0.4-0.4-0.4c-1.1,0.2-2.2,0.3-3.3,0.6c-0.2,0.1-0.4,0.7-0.4,1
		C229.1,362,229.5,362.2,229.7,362.4L229.7,362.4z M320.7,398.4c0.8-0.3,1.8-0.6,2.8-0.9c0.1,0,0.2-0.4,0.1-0.4
		c-0.4-0.4-2.7-0.6-3.3-0.2c-0.5,0.3-0.9,0.7-1.4,1C319.4,398.1,319.9,398.2,320.7,398.4L320.7,398.4z M310.6,394.9
		c1.7-0.5,3.1-1.2,4-2.9c0.1-0.2,0.1-0.4,0.1-0.6c-0.2,0.1-0.6,0-0.7,0.2c-0.8,1.1-2,1.6-3.2,2c-0.2,0.1-0.5,0.2-0.6,0.4
		c-0.2,0.2-0.2,0.4-0.3,0.7C310.1,394.8,310.3,394.8,310.6,394.9L310.6,394.9z M320.8,316.2c0.4-0.1,0.6-0.1,0.7-0.1
		c0.8,0.1,1-0.6,1.3-1.1c0.1-0.1-0.1-0.5-0.2-0.7c-0.5-0.5-1-0.7-1.6-0.2c-0.1,0.1-0.3,0.1-0.4,0.2c-0.4,0.4-0.7,0.8-1,1.3
		C320,315.8,320.5,316,320.8,316.2L320.8,316.2z M230.5,365.3c0,0,0-0.1,0.1-0.2c0.1,0,0.2,0,0.3,0c0.7,0.1,1.1-0.2,1.2-0.8
		c0.1-0.3,0.1-0.7,0.2-1c-0.5,0-1.1,0-1.6,0.1c-0.4,0.1-0.7,0.3-1.1,0.4c-0.7,0.2-0.6,0.7-0.2,1
		C229.6,365.2,230.1,365.2,230.5,365.3L230.5,365.3z M233.3,412.2c-0.7-0.6-1.5-1.4-2.4-2.1c0,0-0.5,0.3-0.5,0.3
		c0.5,0.9,0.8,1.9,1.5,2.7C232.4,413.7,233.3,413.2,233.3,412.2L233.3,412.2z M301.2,397.5c0-0.1-0.1-0.2-0.1-0.3
		c-0.4,0.1-0.8,0.2-1.1,0.4c-0.3,0.2-0.4,0.5-0.6,0.8c0.3,0,0.7,0,1,0c0.4,0,0.8,0.1,1.2,0.1c0.7,0.1,1.4,0.4,2-0.3
		c0.2-0.3,0.3-0.7,0.4-1c-0.4,0-0.7-0.1-1-0.1C302.3,397.1,301.7,397.3,301.2,397.5L301.2,397.5z M276.8,419.9
		c0.4-0.5,0.9-1.1,1.4-1.7c-0.1-0.1-0.3-0.2-0.4-0.3c-0.4,0.8-1,0.4-1.6,0.2c-0.2-0.1-1.9,1.2-1.8,1.2c0.4,0.2,0.8,0.3,1.2,0.4
		C275.9,419.8,276.2,419.8,276.8,419.9L276.8,419.9z M226.9,360.9c-0.9,0.4-1.7,0.7-2.4,1c-0.2,0.1-0.4,0.3-0.6,0.5
		c0.3,0.2,0.6,0.5,0.8,0.4c0.7-0.1,1.5-0.3,2.2-0.5c0.3-0.1,0.5-0.4,0.7-0.6C227.4,361.5,227.2,361.2,226.9,360.9L226.9,360.9z
		 M323.6,400.7c0.2-0.1,0.6-0.3,0.8-0.6c0.2-0.2,0.1-0.6,0.2-0.9c-0.4-0.1-0.7-0.2-1.1-0.2c-0.5,0-0.9,0-1.4,0.2
		c-0.2,0.1-0.5,0.4-0.5,0.6c0,0.2,0.3,0.5,0.5,0.5C322.4,400.5,322.9,400.5,323.6,400.7L323.6,400.7z M331.2,397.2
		c-0.8,0.1-1.3,0.1-1.9,0.2c-0.2,0-0.4,0.3-0.7,0.4c0.2,0.2,0.5,0.6,0.7,0.6c0.5,0,1.1-0.1,1.7-0.2c0.6-0.2,1.2-0.4,1.9-0.7
		C332.3,397.4,331.7,397.3,331.2,397.2L331.2,397.2z M231.9,398.8c-0.3,0.2-0.5,0.2-0.5,0.4c-0.2,0.6,0.9,2.6,1.5,2.5
		c0.3,0,0.6-0.4,0.8-0.6C233.1,400.3,232.5,399.6,231.9,398.8L231.9,398.8z M340.4,365c-0.3-0.5-0.5-1-0.5-0.9
		c-0.9,0.4-1.7,0.8-2.6,1.2c-0.1,0-0.1,0.4,0,0.5c0.1,0.1,0.3,0.2,0.5,0.1c0.5-0.1,1.1-0.3,1.6-0.4C339.8,365.3,340,365.1,340.4,365
		L340.4,365z M302.1,411.4c0,0.1-0.1,0.1-0.1,0.2c-0.5,0-1.1-0.1-1.6,0c-0.3,0.1-0.4,0.5-0.6,0.8c0.3,0.2,0.5,0.5,0.8,0.5
		c0.5,0,1.1-0.2,1.6-0.4c0.3-0.1,0.5-0.4,0.7-0.6C302.6,411.8,302.3,411.6,302.1,411.4L302.1,411.4z M308.4,398.6
		C308.5,398.6,308.5,398.6,308.4,398.6c0.5-0.1,0.9-0.1,1.4-0.1c0.1,0,0.3-0.2,0.4-0.3c0.1-0.4,0.1-0.8,0.1-1.2
		c-0.4,0.1-0.9,0.2-1.3,0.3c-0.2,0.1-0.4,0.2-0.7,0.4c-0.4,0.2-0.9,0.5-1.3,0.7C307.5,398.5,308,398.6,308.4,398.6L308.4,398.6z
		 M323,406c1.2-0.3,2.3-0.5,3.3-0.8c0.2-0.1,0.3-0.6,0.5-0.9c-0.3,0-0.5-0.1-0.8,0c-1,0.3-2,0.6-3,0.9c-0.2,0.1-0.4,0.4-0.6,0.5
		C322.6,405.9,322.8,406,323,406L323,406z M219.6,345.4c1.2-0.1,2-0.1,2.8-0.2c0.1,0,0.2-0.1,0.3-0.1c0-0.1-0.1-0.2-0.1-0.2
		c-0.4-0.5-2.3-0.9-2.8-0.6c-0.3,0.2-0.4,0.5-0.6,0.8C219.3,345.2,219.6,345.4,219.6,345.4L219.6,345.4z M231.3,416.9
		c0,0,0.5-0.2,0.5-0.4c-0.1-1-1-1-1.7-1.2c-0.2,0-0.6,0.4-0.6,0.4C229.8,416.2,229.9,417.1,231.3,416.9L231.3,416.9z M283.8,407.4
		c0.3,0,0.5,0.1,0.7,0c0.4-0.2,0.8-0.5,1.1-0.8c0.5-0.5,0.9-1,1.3-1.5c-0.7,0.3-1.4,0.5-2,0.9C284.4,406.3,284.2,406.8,283.8,407.4
		L283.8,407.4z M241.7,414.5c-0.4,0.8-0.6,1.2-0.8,1.6c0.5,0.2,1,0.5,1.5,0.7c0.1,0,0.5-0.4,0.5-0.5
		C242.6,415.8,242.3,415.3,241.7,414.5L241.7,414.5z M237.6,374.5c-0.3-0.1-0.6-0.4-0.9-0.3c-0.5,0.2-0.9,0.6-1.3,0.9
		c0.4,0.2,0.7,0.5,1.1,0.6C237.2,375.9,237.5,375.4,237.6,374.5L237.6,374.5z M336,365.1c-0.1,0.1-0.2,0.1-0.2,0.2
		c-0.3,0.6-0.5,1.2-0.7,1.9c0,0.2,0.2,0.5,0.3,0.7c0.4-0.4,1-0.8,1.1-1.3c0.1-0.4-0.3-1-0.5-1.5C336.1,365.1,336,365.1,336,365.1
		L336,365.1z M310.9,401.7c-0.2-0.1-0.5-0.3-0.6-0.2c-0.8,0.3-1.6,0.7-2.4,1.1c-0.1,0-0.2,0.4-0.1,0.4c0.1,0.1,0.4,0.3,0.5,0.2
		c0.8-0.3,1.6-0.7,2.4-1C310.8,402.1,310.8,401.9,310.9,401.7L310.9,401.7z M287.7,407.9c-0.5-0.2-0.8-0.3-0.8-0.3
		c-0.8,0.8-1.6,1.6-2.4,2.4c0,0,0.2,0.2,0.2,0.4C285.6,409.6,286.6,408.8,287.7,407.9L287.7,407.9z M289.1,400.4
		c-0.6-0.3-0.9-0.6-1.2-0.6c-1.2,0-2.5,0.2-3.7,0.3c-0.1,0-0.2,0.1-0.3,0.1c0.1,0.1,0.3,0.1,0.4,0.2c1.3,0.1,2.7,0.2,4,0.3
		C288.6,400.7,288.7,400.6,289.1,400.4L289.1,400.4z M233,367.7c0.5-0.1,0.8-0.1,1.1-0.2c0.3-0.1,0.6-0.3,0.8-0.6
		c0.1-0.1-0.1-0.5-0.2-0.5c-0.4-0.1-0.8-0.1-1.1-0.1c-0.3,0.1-0.5,0.3-0.7,0.5c-0.1,0.1-0.3,0.4-0.3,0.4
		C232.7,367.5,232.9,367.6,233,367.7L233,367.7z M162.6,339.8C162.8,339.9,162.7,339.9,162.6,339.8c-0.2,0-0.4,0.1-0.7,0.1
		c0.2,0.1,0.4,0.4,0.7,0.4c0.8,0,1.6,0,2.4,0c0.1,0,0.3-0.2,0.4-0.3c-0.1-0.1-0.3-0.2-0.4-0.2C164.3,339.8,163.6,339.8,162.6,339.8
		L162.6,339.8z M328,376.2c0,0.1,0.1,0.4,0.3,0.6c0,0.1,0.5-0.1,0.5-0.1c0-0.7,0-1.5,0-2.2c0-0.1-0.2-0.1-0.3-0.2
		c-0.1,0.5-0.2,0.9-0.3,1.4C328,375.8,328,375.9,328,376.2L328,376.2z M225.6,359.5c0-0.1,0-0.1,0-0.2c0.6,0,1.2,0,1.8,0
		c0.2,0,0.4-0.3,0.5-0.4c-0.2-0.2-0.4-0.5-0.6-0.5c-0.7,0.1-1.3,0.3-1.9,0.5c-0.1,0-0.2,0.2-0.2,0.4
		C225.4,359.4,225.5,359.4,225.6,359.5L225.6,359.5z M334,389.8c0.5-0.3,0.9-0.5,1.3-0.8c-0.2-0.2-0.4-0.6-0.5-0.6
		c-0.6,0.1-1.3,0.1-1.4,0.9C333.4,389.4,333.7,389.6,334,389.8L334,389.8z M257,205.1c0.5-0.1,1.1-0.2,1.8-0.4
		c-0.6-0.9-1.4-0.2-2.1-0.2c-0.5,0-1,0.2-1.4,0.4C255.7,205,256.3,205,257,205.1L257,205.1z M281,414.2c1,0.2,1-0.8,1.4-1.3
		c0,0-0.1-0.2-0.1-0.4c-0.4,0.3-0.8,0.5-1.2,0.8c-0.1,0.1-0.3,0.2-0.3,0.3c-0.1,0.2-0.2,0.3-0.3,0.5
		C280.7,414.2,280.8,414.2,281,414.2L281,414.2z M229.1,367.9c0,0,0,0.1,0,0.1c0.5-0.1,1.1-0.2,1.6-0.3c0.1,0,0.2-0.4,0.2-0.6
		c-0.2,0-0.4-0.1-0.6,0c-0.6,0.2-1.3,0.4-1.9,0.6c-0.1,0-0.2,0.2-0.3,0.3c0.1,0,0.3,0.1,0.4,0.1C228.8,368,228.9,367.9,229.1,367.9
		L229.1,367.9z M316.5,392.2c0.7-0.3,1.3-0.6,1.9-0.9c0,0-0.1-0.4-0.1-0.4c-0.6,0.1-1.3,0.3-1.9,0.5c-0.1,0-0.3,0.3-0.3,0.5
		C316.1,391.9,316.3,392.1,316.5,392.2L316.5,392.2z M198.4,348c0.6-0.1,1.1-0.2,1.6-0.3c-0.5-0.1-1.1-0.2-1.6-0.2
		c-0.5,0-1,0.1-1.5,0.2C197.4,347.8,197.9,347.9,198.4,348L198.4,348z M247.6,415.8c0,0,0-0.1,0-0.1c-0.7-0.8-1.3-1.7-2-2.5
		c-0.1-0.1-0.3-0.1-0.4-0.1c0,0-0.1,0.2-0.1,0.2c0.7,0.9,1.4,1.8,2.1,2.7c0,0.1,0.2,0.1,0.3,0C247.5,416,247.5,415.8,247.6,415.8
		L247.6,415.8z M186.9,349.8c-0.1,0-0.2,0.1-0.3,0.1c0,0.2-0.1,0.5,0,0.6c0.5,0.3-0.5,1.2,0.5,1.2c0.2,0,0.6-0.6,0.5-0.8
		C187.5,350.5,187.1,350.2,186.9,349.8L186.9,349.8z M298.1,387.1c-0.3-0.2-0.5-0.3-0.7-0.4c-0.6-0.1-1,0.1-1,0.8
		c0,0.3,0.2,0.5,0.3,0.7C297.1,387.9,297.6,387.6,298.1,387.1L298.1,387.1z M324.7,391.5c-0.1-0.1-0.3-0.2-0.3-0.2
		c-0.7,0.3-1.4,0.6-2.1,0.9c-0.1,0-0.1,0.2-0.1,0.3c0.1,0,0.3,0.1,0.4,0.1c0.6-0.2,1.2-0.5,1.8-0.8
		C324.5,391.7,324.6,391.6,324.7,391.5L324.7,391.5z M335.6,355.4C335.6,355.4,335.6,355.4,335.6,355.4c0,0.4,0.1,0.8,0.1,1.2
		c0.1-0.4,0.3-0.8,0.4-1.2c0-0.2,0-0.4,0-0.6c-0.1-0.2-0.3-0.4-0.4-0.6c0,0.2-0.1,0.4-0.1,0.6C335.6,355,335.6,355.2,335.6,355.4
		L335.6,355.4z M338.4,387.8c-0.5-0.2-0.7-0.4-0.8-0.3c-0.4,0.2-0.8,0.5-1.2,0.8c0.2,0.1,0.4,0.4,0.5,0.3
		C337.4,388.4,337.8,388.2,338.4,387.8L338.4,387.8z M333.3,406.5c0.3-0.3,0.7-0.5,1-0.8c-0.1-0.1-0.3-0.3-0.4-0.3
		c-0.4,0.2-0.9,0.4-1.3,0.6C332.7,406.2,333,406.3,333.3,406.5L333.3,406.5z M306.9,406.1c0.4-0.2,0.6-0.3,0.9-0.4
		c-0.4-0.2-0.8-0.5-1.2-0.7c-0.1,0-0.4,0.2-0.5,0.3C306.2,405.6,306.5,405.8,306.9,406.1L306.9,406.1z M235,351.7
		c-0.3-0.1-0.5-0.3-0.5-0.3c-0.3,0.1-0.5,0.3-0.7,0.5c0,0.1,0.2,0.3,0.4,0.5C234.4,352.3,234.6,352.1,235,351.7L235,351.7z
		 M189.8,362c-0.2-0.5-0.3-0.8-0.5-1.1c-0.2,0.5-0.4,0.9-0.5,1.4c0,0.1,0.3,0.3,0.4,0.5C189.4,362.5,189.6,362.3,189.8,362
		L189.8,362z M314,400.1c0.3-0.2,0.6-0.4,0.9-0.6c-0.1-0.1-0.3-0.4-0.4-0.3c-0.4,0.1-0.7,0.3-1,0.5
		C313.6,399.8,313.7,399.9,314,400.1L314,400.1z M330.9,329.6c-0.3-0.2-0.4-0.5-0.7-0.6c-0.1-0.1-0.3,0.1-0.5,0.2
		c0.2,0.2,0.5,0.5,0.7,0.7C330.5,329.9,330.7,329.8,330.9,329.6L330.9,329.6z M317.3,394.9c0.4-0.2,0.8-0.5,1.2-0.7
		c0,0-0.1-0.2-0.1-0.2c-0.4,0.1-0.8,0.2-1.2,0.3c-0.1,0-0.2,0.1-0.2,0.2c-0.1,0.1-0.1,0.2-0.1,0.3
		C317.1,394.8,317.2,394.8,317.3,394.9L317.3,394.9z M291.6,403.8c-0.3-0.1-0.4-0.2-0.5-0.2c-0.3,0.3-0.7,0.7-1,1
		c0.1,0.1,0.4,0.3,0.4,0.3C290.9,404.6,291.2,404.2,291.6,403.8L291.6,403.8z M306.5,393c0.3-0.4,0.5-0.7,0.7-1
		c-0.1-0.1-0.3-0.2-0.4-0.2c-0.2,0.3-0.5,0.6-0.7,0.9C306.2,392.6,306.3,392.8,306.5,393L306.5,393z M232.9,371
		c-0.1-0.2-0.2-0.4-0.3-0.6c-0.1,0.2-0.2,0.3-0.3,0.5c-0.1,0.3-0.2,0.6-0.2,0.9c0,0.1,0.1,0.2,0.2,0.4c0.1-0.1,0.3-0.1,0.4-0.2
		C232.8,371.6,232.8,371.3,232.9,371L232.9,371z M337.1,394.4c0.2-0.3,0.4-0.5,0.5-0.8c0-0.1-0.2-0.3-0.3-0.4
		c-0.2,0.2-0.4,0.4-0.6,0.6C336.6,393.9,336.9,394.1,337.1,394.4L337.1,394.4z M306,393.7c-0.5-0.5-0.6-0.7-0.8-0.9
		c-0.2,0.2-0.4,0.4-0.4,0.7c0,0.2,0.2,0.5,0.4,0.5C305.5,394,305.7,393.9,306,393.7L306,393.7z M247.4,331.1
		c-0.3-0.2-0.5-0.5-0.6-0.4c-0.3,0.1-0.5,0.3-0.7,0.4c0.1,0.1,0.3,0.4,0.4,0.4C246.8,331.4,247,331.2,247.4,331.1L247.4,331.1z
		 M202.4,347.8c-0.4-0.3-0.6-0.5-0.8-0.6c-0.1,0-0.4,0.2-0.5,0.3c0.2,0.2,0.3,0.5,0.5,0.6C201.7,348.1,201.9,347.9,202.4,347.8
		L202.4,347.8z M332.2,383.2c-0.4-0.2-0.6-0.3-0.7-0.3c-0.3,0.1-0.7,0.2-1,0.2c0.1,0.1,0.1,0.2,0.2,0.2
		C331.1,383.4,331.5,383.3,332.2,383.2L332.2,383.2z M237.4,367.1c0.3-0.1,0.5-0.2,0.7-0.3c-0.2-0.1-0.5-0.4-0.7-0.4
		c-0.2,0-0.4,0.2-0.6,0.3C237.1,366.8,237.2,366.9,237.4,367.1L237.4,367.1z M317.4,399.6c-0.3-0.2-0.4-0.4-0.5-0.3
		c-0.4,0.1-0.8,0.2-1.1,0.4c0.1,0.1,0.3,0.4,0.4,0.3C316.6,399.9,316.9,399.7,317.4,399.6L317.4,399.6z M230.1,354.6
		c-0.1,0.5-0.2,0.7-0.1,0.9c0,0.2,0.3,0.3,0.4,0.5c0.1-0.1,0.3-0.3,0.3-0.4C230.5,355.4,230.3,355.1,230.1,354.6z"/>
	<path class="st0" d="M133.2,207c0-0.2,0-0.4,0-0.6c0-1.6-0.3-1.8-1.8-2.5c-0.9-0.4-1.8-1-2.4-1.7c-0.3-0.3-0.1-1.1-0.2-1.6
		c0.6,0,1.6-0.2,1.8,0.1c0.7,1,1.5,0.7,2.4,0.7c2.4,0,4.8,0.2,7.2,0.2c1.5,0,3-0.2,4.5-0.2c2.1,0,4.2,0.1,6.3,0.3
		c0.9,0.1,1.8,0.5,2.6,0.8c0.8,0.3,1.4,0.7,2.3,0.3c0.4-0.2,1.3,0.3,1.5,0.7c0.3,0.8,0.9,1.5,0.6,2.6c-0.4,1.7-0.7,3.6,0.2,5.3
		c0.1,0.1,0.2,0.3,0.1,0.4c-0.2,0.6,0.4,1.6-0.6,1.9c-0.9,0.2-1-0.6-1.3-1.2c-0.5-1.1-1.1-2.2-2.2-3c-0.8-0.5-1.2-1.6-1.8-2.5
		c-0.5-0.7-0.8-1.7-2.1-1.2c-0.4,0.1-0.9-0.3-1.4-0.5c-0.4-0.1-0.8-0.9-1.2,0c0,0.1-0.3,0.1-0.4,0c-1-1.2-2.3-0.5-3.5-0.4
		c-1.5,0.1-2.9,0.4-4.4,0.5c-1,0.1-1.6,0.5-1.8,1.5c-0.4,2.4-0.8,4.7-1.3,7.1c-0.1,0.4-0.4,0.8-0.6,1.2c-0.1-0.4-0.2-0.9-0.2-1.3
		c0.2-2.5,0.4-5,0.6-7.5c0-0.3-0.3-0.6-0.4-0.9c-0.3,0.2-0.7,0.3-0.7,0.6c-0.2,0.9-0.3,1.8-0.5,2.7c-0.1,0.3-0.3,0.6-0.5,0.9
		c-0.3-0.3-0.7-0.5-0.8-0.7C133.2,208.2,133.2,207.6,133.2,207C133.2,207,133.2,207,133.2,207z"/>
	<path class="st0" d="M152,256.5c-2.4,0.4-4.9,0.8-7.4,1.2c-0.2,0-0.4,0-0.6,0.1c0.2-0.1,0.3-0.3,0.5-0.3c0.9-0.3,1.8-0.5,2.6-0.7
		c0.7-0.2,1.3-0.5,2-0.7c1.1-0.3,2.2-0.6,3.3-0.8c1.4-0.2,2.8-0.3,4.2-0.6c0.2,0,0.5-0.6,0.5-1c0-2.6,0-5.2-0.1-7.9
		c-0.1-2.4-0.3-4.7-0.3-7.1c-0.2-5.3-0.3-10.6-0.4-15.9c0-1.5,0.3-3.1,0.5-4.6c0.1-1,0.7-1.5,1.4-1.6c1.2-0.1,2.4,0.1,3.7,0.2
		c0.2,0,0.3,0.3,0.4,0.4c-0.2,0.1-0.3,0.2-0.5,0.2c-0.7,0-0.9,0.4-1.2,1c-1.5,2.5-1.6,5.3-1.7,8c-0.1,3.8-0.1,7.6-0.1,11.4
		c0,3,0.1,6.1,0.1,9.1c0,4.4,0.1,8.8,0,13.1c0,3.8-0.4,7.6-0.3,11.4c0.1,3.6,0.1,7.1-0.2,10.6c-0.1,1,0,2.1-0.1,3.1
		c0,0.1-0.1,0.2-0.2,0.4c-0.1-0.1-0.2-0.2-0.3-0.4c0-0.5-0.1-0.9-0.1-1.4c0-1.4,0-2.8,0-4.3c0-1.6,0-3.3,0-4.9c0-3.7,0-7.3-0.1-11
		c0-1.6-0.2-3.2-0.3-4.7c-0.1-1-0.4-1.6-1.5-1.7C154.7,257.1,153.4,256.8,152,256.5z"/>
	<path class="st0" d="M189.4,218.5c0,2.8,0,5.6-0.1,8.3c-0.1,2.6-0.3,5.2-0.3,7.9c0,2.1-0.3,4.2-0.1,6.4c0.2,2,0,4.1-0.1,6.2
		c-0.1,1.1,0.2,1.6,1.3,2.1c2.2,1.1,4.5,0.9,6.8,0.8c1.5-0.1,2.9-0.5,4.4-0.6c1.6-0.1,3.1,0.4,4.7-0.1c0.1,0,0.2,0.1,0.3,0.1
		c-0.1,0.1-0.1,0.2-0.2,0.3c-2.2,0.5-4.4,1-6.6,1.4c-2.2,0.4-4.5,0.6-6.7,1c-0.3,0.1-0.6,0.4-0.8,0.6c-0.9,0.9-1.4,0.9-2.2-0.1
		c-0.1-0.2-0.3-0.3-0.5-0.5c-0.1,0.3-0.3,0.5-0.3,0.8c0.1,3.2,0.2,6.4,0.3,9.7c0.1,2.1,0.2,4.3,0.2,6.4c0,0.2,0,0.4,0,0.6
		c0,0.2-0.2,0.3-0.3,0.4c-0.1-0.1-0.2-0.3-0.3-0.4c-0.8-2.4-0.5-4.8-0.7-7.3c-0.2-2.8-0.2-5.6-0.3-8.4c0-0.6,0.3-1.2,0.3-1.8
		c0.1-0.4,0.2-1,0-1.1c-0.9-0.5-0.5-1.3-0.5-2c0-1.7,0.2-3.4,0.3-5.1c0-1-0.2-1.9-0.2-2.9c0-1.1,0.1-2.1,0.1-3.2
		c0-0.8,0-1.7-0.3-2.4c-0.3-0.7,0.5-1.6-0.5-2.1c0.7-0.9-0.2-1.6-0.2-2.5c0-0.9-0.1-1.8-0.3-2.7c-0.5-2.8-0.9-5.6-1.7-8.3
		c-0.9-2.8-2-3.9-5.3-4c-2-0.1-4,0-6,0.1c-0.2,0-0.5-0.2-0.7-0.2c0.2-0.1,0.4-0.2,0.6-0.4c2.8-1.5,5.7-1.7,8.7-1.1
		c1.5,0.3,2.5,1.2,3.2,2.5c0.4,0.7,0.7,0.9,1.6,0.8C187.8,217.6,188.8,217.6,189.4,218.5L189.4,218.5z"/>
	<path class="st0" d="M189.5,218.6c-0.2-0.8-0.3-1.4,1-1.1c3.1,0.8,6.3,0.5,9.5,0.2c4.2-0.4,8.4-0.6,12.6-0.8
		c6.5-0.3,13.1-0.5,19.7-0.9c3.5-0.2,7-0.3,10.5,0.1c0.5,0.1,1,0.1,1.5,0.2c0.1,0,0.2,0.3,0.3,0.5c-0.2,0.1-0.4,0.3-0.5,0.2
		c-3.6-1-7.1-0.3-10.7-0.2c-4.9,0.2-9.9,0.5-14.8,0.8c-4.6,0.2-9.2,0.5-13.8,0.7c-2.9,0.2-5.8,0.6-8.8,0.7
		C193.8,219.1,191.6,218.8,189.5,218.6L189.5,218.6z"/>
	<path class="st0" d="M167.2,202.3c-0.9,0-2.5,0-4.1,0c-1.3,0-1.7-0.4-1.8-1.6c-0.1-0.6-0.1-1.2-0.1-1.8c0.6,0.1,1.2,0.3,1.8,0.3
		c1.2,0.1,2.3,0.1,3.5,0.2c1.9,0.1,3.8,0.2,5.7,0.4c1,0.1,2,0.6,3.1,0.9c0.3,0.1,0.7,0.3,1,0.3c1.7,0.2,3.3,0.3,5,0.5
		c0.3,0,0.6,0.5,1,0.7c-0.3,0.3-0.6,0.7-0.9,0.8c-0.5,0.2-1.1,0.1-1.7,0.1c-1.6,0-3.1,0-4.7-0.1c-0.9,0-1.8-0.3-2.7-0.4
		C170.8,202.5,169.4,202.4,167.2,202.3z"/>
	<path class="st0" d="M157.4,316.3c0.1-1.4,0.3-2.8,0.2-4.2c-0.1-2.5-0.3-4.9-0.5-7.3c0-0.6,0.2-1.2,0.2-1.8
		c0.2,0.6,0.6,1.1,0.7,1.7c0.2,2.9,0.4,5.7,0.6,8.6c0.1,1.8,0.1,3.5,0.2,5.3c0,0.4,0.5,0.7,0.6,1.1c0.1,0.2,0.2,0.7,0.1,0.8
		c-1.1,0.4-0.8,1.4-0.8,2.1c0.1,3.5,0.2,7,0.3,10.5c0,0.8,0.1,1.5,0.1,2.3c0,0.2-0.3,0.4-0.5,0.7c-0.1-0.2-0.4-0.4-0.4-0.7
		c-0.2-3.6-1-7.1-0.5-10.7c0.1-0.4-0.2-0.8-0.2-1.2c-0.2-2.5-0.1-2.6-2.6-2.9c-2.2-0.3-4.3-0.3-6.5-0.4c-0.1,0-0.3-0.1-0.4-0.1
		c0.1-0.1,0.3-0.2,0.4-0.2c1.5,0,3.1,0,4.6-0.1c1.3,0,2.6-0.1,3.8-0.3c0.3,0,0.6-0.6,0.7-1c0.1-0.7,0-1.3,0-2
		C157.5,316.3,157.5,316.3,157.4,316.3z"/>
	<path class="st0" d="M131.2,274.4c-0.1,3.7-0.3,7.4-0.3,11.1c-0.1,4.9,0,9.8,0,14.7c0,2.5-0.3,5-0.4,7.5c0,1.4,0.2,2.7,0.3,4.1
		c0.1,3.9,0.3,7.8,0.1,11.6c-0.1,1.6,0.5,3.1,0,4.7c-0.3,1.1,0.2,2.3,0.3,3.5c0,0.5-0.1,1-0.1,1.5c0,0.1-0.2,0.2-0.2,0.3
		c-0.1-0.1-0.2-0.2-0.2-0.3c0-0.4,0-0.7-0.1-1.1c-0.3-5.2-0.5-10.5-0.8-15.7c0-1,0.2-2,0.2-3c0-2.3,0-4.5,0.1-6.8
		c0.1-2.1,0.8-4.4,0.3-6.4c-0.7-2.9,0-5.7-0.1-8.5c-0.1-2.9-0.1-5.8-0.1-8.7c0.1-3.1,0.3-6.2,0.5-9.4c0-0.3,0.1-0.5,0.2-0.8
		c0-0.1,0.1-0.1,0.2-0.2c0.1,0.1,0.3,0.2,0.3,0.3C131.3,273.5,131.2,273.9,131.2,274.4C131.2,274.4,131.2,274.4,131.2,274.4z"/>
	<path class="st0" d="M138.4,255.6c2.9,0,5.7,0,8.6,0c0.2,0,0.5,0.1,0.7,0.1c-0.2,0.1-0.4,0.2-0.6,0.3c-1.9,0.3-3.7,0.6-5.6,1
		c-0.4,0.1-0.9,0.4-1.2,0.7c-0.5,0.5-0.4,0.5-1.4,0.2c-0.7-0.2-1.5-0.3-2.2-0.5c-0.4-0.2-0.7-0.7-1-1c0.4-0.2,0.8-0.4,1.2-0.5
		C137.3,255.7,137.8,255.7,138.4,255.6C138.4,255.6,138.4,255.6,138.4,255.6z"/>
	<path class="st0" d="M320.2,255.6c0,2.5,0,5,0,7.6c0,2.5,0.1,5.1,0.2,7.7c0,0.2-0.2,0.5-0.3,0.7c-0.1-0.3-0.3-0.5-0.3-0.8
		c-0.1-1.2-0.1-2.3-0.1-3.5c0-1.2-0.1-2.4,0-3.5c0.1-2.4-0.5-4.7-0.6-7.1c0-0.8-0.1-1.6,0-2.5c0-0.2,0.2-0.4,0.4-0.7
		c0.3,0.2,0.7,0.3,0.8,0.5C320.2,254.5,320.1,255.1,320.2,255.6C320.1,255.6,320.1,255.6,320.2,255.6z"/>
	<path class="st0" d="M340.1,255.1c0,2.1,0,4.2,0,6.3c0,0.2-0.2,0.4-0.3,0.6c-0.2-0.2-0.6-0.4-0.6-0.6c0-0.8,0.1-1.6,0.1-2.4
		c0-1.8-0.2-3.5-0.2-5.3c0-0.5,0.3-1,0.5-1.4c0.2,0.5,0.5,1,0.6,1.5c0.1,0.4,0,0.9,0,1.4C340.2,255.1,340.2,255.1,340.1,255.1z"/>
	<path class="st0" d="M313.3,274.5c0.1,2.7,0.2,5.4,0.3,8.1c0,0.4,0,0.7,0,1.1c0,0.1-0.2,0.2-0.3,0.3c-0.1,0-0.2-0.2-0.3-0.3
		c-0.1-0.1-0.1-0.3-0.1-0.5c-0.1-3-0.1-6-0.2-9c0-0.2,0.1-0.4,0.1-0.6c0-0.1,0.2-0.3,0.2-0.4c0.1,0.1,0.2,0.3,0.2,0.4
		C313.4,274,313.4,274.3,313.3,274.5C313.4,274.5,313.4,274.5,313.3,274.5z"/>
	<path class="st0" d="M134.1,323.1c0,0.9,0,1.9,0,2.8c0,0.2-0.3,0.4-0.5,0.6c-0.2-0.2-0.5-0.3-0.5-0.5c0.1-2,0.1-4,0.3-6
		c0-0.2,0.4-0.4,0.6-0.6c0.1,0.2,0.2,0.4,0.2,0.7C134.2,321.2,134.2,322.2,134.1,323.1C134.1,323.1,134.1,323.1,134.1,323.1z"/>
	<path class="st0" d="M130.1,212.1c0.2-2,0.3-4.1,0.5-6.1c0-0.1,0.2-0.3,0.2-0.4c0.1,0.1,0.3,0.3,0.2,0.4c-0.2,2-0.5,3.9-0.8,5.9
		C130.3,211.9,130.2,212,130.1,212.1L130.1,212.1z"/>
	<path class="st0" d="M320.6,276c0,0.7,0,1.3,0,2c0,0.2-0.2,0.5-0.2,0.7c-0.1-0.3-0.4-0.5-0.4-0.8c-0.1-1.6-0.1-3.2-0.2-4.7
		c0-0.2,0.2-0.3,0.3-0.5c0.1,0.2,0.3,0.3,0.3,0.5C320.5,274.2,320.5,275.1,320.6,276C320.6,276,320.6,276,320.6,276z"/>
	<path class="st0" d="M334.2,287.4c0.1,1.1,0.2,2.2,0.2,3.2c0,0.3-0.1,0.6-0.2,0.9c-0.1-0.3-0.1-0.5-0.2-0.8
		c-0.2-0.9-0.3-1.7-0.5-2.5c-0.1-0.3-0.1-0.6,0-0.9c0.1-0.3,0.4-0.5,0.6-0.7c0.1,0.3,0.3,0.5,0.4,0.8
		C334.4,287.3,334.3,287.3,334.2,287.4z"/>
	<path class="st0" d="M135.9,222.1c0,0.9,0,1.7,0,2.6c0,0.2-0.1,0.4-0.2,0.5c-0.1-0.1-0.3-0.3-0.3-0.4c0-1.9,0-3.8,0-5.7
		c0-0.1,0.1-0.3,0.2-0.4c0.1,0.1,0.3,0.3,0.3,0.4C135.9,220.2,135.9,221.1,135.9,222.1C135.9,222.1,135.9,222.1,135.9,222.1z"/>
	<path class="st0" d="M135.1,238.8c0-1.8,0.1-3.5,0.1-5.3c0-0.8,0.1-1.6,0.1-2.5c0-0.1,0.1-0.2,0.2-0.4c0,0.1,0.1,0.2,0.1,0.4
		c0,2.3,0,4.7,0,7.1C135.6,238.4,135.3,238.6,135.1,238.8L135.1,238.8z"/>
	<path class="st0" d="M325.5,286.2c-0.1,1.5-0.2,2.8-0.3,4.2c0,0.2-0.2,0.3-0.3,0.5c-0.1-0.2-0.2-0.3-0.2-0.5c0-1.7,0.1-3.4,0.1-5.1
		c0-0.1,0.2-0.2,0.2-0.3c0.1,0.1,0.3,0.2,0.3,0.3C325.4,285.6,325.4,286,325.5,286.2z"/>
	<path class="st0" d="M195.8,229.6c1.1,0.1,2.3,0.1,3.4,0.2c0.3,0,0.6,0.2,0.8,0.3c-0.3,0-0.5,0.1-0.8,0c-1.1-0.1-2.3-0.2-3.4-0.3
		c-0.2,0-0.4-0.2-0.5-0.3c0.2,0,0.4-0.1,0.5-0.1C195.8,229.5,195.8,229.5,195.8,229.6z"/>
	<path class="st0" d="M135.1,228.1c0.2-0.5,0.3-1.1,0.5-1.6c0,0.6,0,1.2,0,1.7c0,0.2,0,0.3-0.1,0.4c-0.1,0.1-0.3,0.2-0.4,0.4
		c0-0.1,0-0.3,0-0.4c0-0.2,0.1-0.3,0.1-0.4C135.2,228.1,135.2,228.1,135.1,228.1z"/>
	<path class="st0" d="M130.1,212.1c0.1,0.9,0.2,1.8,0.2,2.7c0,0.1-0.1,0.2-0.2,0.3c-0.1-0.1-0.2-0.2-0.2-0.4
		C130,213.9,130.1,213,130.1,212.1L130.1,212.1z"/>
	<path class="st0" d="M135.1,238.8c0.2,0.9,0.4,1.7,0.5,2.6c0,0.1-0.1,0.2-0.2,0.3c-0.1-0.1-0.3-0.3-0.3-0.4
		C135.1,240.5,135.1,239.7,135.1,238.8L135.1,238.8z"/>
	<path class="st0" d="M309.3,228.5c-0.2,0-0.4,0-0.6,0c0,0-0.1-0.1-0.1-0.1c0.5-0.1,1.1-0.2,1.6-0.3c0.1,0,0.1,0.1,0.2,0.2
		c-0.1,0.1-0.1,0.2-0.2,0.2C309.9,228.5,309.6,228.5,309.3,228.5C309.3,228.5,309.3,228.5,309.3,228.5z"/>
	<path class="st0" d="M210.1,249c-0.6,0.2-0.9,0.3-1.3,0.4c0,0-0.1-0.2-0.2-0.3c0.3-0.1,0.7-0.3,1-0.4
		C209.7,248.7,209.8,248.8,210.1,249z"/>
	<path class="st0" d="M135.1,243.9c0.1-0.3,0.1-0.5,0.2-0.7c0.1,0.3,0.2,0.6,0.3,0.9c0,0.2-0.1,0.3-0.2,0.5
		C135.3,244.3,135.2,244.1,135.1,243.9z"/>
	<path class="st0" d="M129.8,224.6c0-0.4,0.1-0.8,0.1-1.2c0,0.4,0,0.8,0,1.2c0,0.1,0,0.2,0,0.3c0,0.2,0,0.4-0.1,0.6
		c0-0.2,0-0.4-0.1-0.6C129.8,224.8,129.8,224.7,129.8,224.6C129.8,224.6,129.8,224.6,129.8,224.6z"/>
	<path class="st0" d="M130.9,334.1c0.3,0.3,0.5,0.5,0.5,0.7c0,0.2-0.2,0.3-0.4,0.5c-0.1-0.2-0.3-0.4-0.4-0.6
		C130.6,334.6,130.7,334.4,130.9,334.1z"/>
	<path class="st0" d="M130.3,219.9c-0.1,0.2-0.2,0.5-0.2,0.7c-0.1-0.1-0.2-0.3-0.2-0.4c0-0.3,0-0.6,0.1-0.9
		C130,219.5,130.1,219.7,130.3,219.9z"/>
	<path class="st0" d="M130.6,216.9c-0.2,0.1-0.5,0.3-0.5,0.2c-0.1-0.1-0.2-0.3-0.2-0.5c0-0.1,0.2-0.2,0.2-0.3
		C130.2,216.4,130.3,216.5,130.6,216.9z"/>
	<path class="st0" d="M199.5,426.3c0.1,0.1,0.3,0.2,0.4,0.3c-0.1,0.1-0.2,0.3-0.3,0.4c-0.1-0.1-0.2-0.2-0.3-0.3
		C199.2,426.6,199.4,426.5,199.5,426.3z"/>
	<path class="st0" d="M359.7,454.7c-0.2-2.3-0.5-4.6-0.7-6.9c0-0.9,0.1-1.8,0.4-2.6c0.2-0.6,0.8-1,1.2-1.5c0.4-0.4,0.8-0.8,1.3-1
		c0.4-0.2,1-0.4,1.4-0.3c0.3,0.1,0.6,0.7,0.6,1.1c0.1,3,0.3,6.1,0.1,9.1c-0.1,2.2-0.7,4.4-1.2,6.5c-0.3,1.4-0.9,2.8-1.2,4.2
		c-0.3,1.8-1.4,3.2-2.5,4.5c-1.7,2.1-3.9,3.4-6.5,3.8c-0.4,0.1-0.9,0-1.3-0.1c-1-0.5-1.1-1.2-0.1-1.8c0.2-0.1,0.4-0.2,0.6-0.3
		c2.2-0.6,3.4-2.3,4.6-4.1C358.5,462,359.9,458.6,359.7,454.7z"/>
	<path class="st0" d="M366.5,272.2c-0.2,1.8-0.4,3.6-0.5,5.4c-0.1,1.4,0,2.8,0,4.1c0,0.4,0,0.8-0.1,1.2c0,0.2-0.3,0.3-0.4,0.5
		c0-0.2-0.1-0.4-0.1-0.6c0.1-3.2,0.3-6.4,0.2-9.6c-0.1-3.4,0.1-6.7,0.2-10.1c0.1-5.3,0-10.5-0.2-15.8c-0.2-4.8-0.6-9.7-0.9-14.5
		c-0.1-2.1-0.2-4.2-0.3-6.3c0-0.1,0.1-0.2,0.2-0.4c0.1,0.1,0.3,0.1,0.4,0.2c0.2,0.5,0.4,1.1,0.5,1.6c0.5,5.5,1,10.9,1.3,16.3
		c0.3,5.8,0.3,11.7,0.3,17.5c0,3-0.4,6.1-0.6,9.1c0,0.4,0,0.8-0.1,1.2C366.4,272.2,366.5,272.2,366.5,272.2z"/>
	<path class="st0" d="M359.5,272.3c-0.2,0.2-0.3,0.4-0.5,0.6c-2.6,2.3-5.2,4.5-7.7,6.8c-0.1,0.1-0.3,0.1-0.5,0.2
		c0.1-0.2,0.1-0.4,0.2-0.5c2.2-1.9,4.4-3.8,6.6-5.7c0.5-0.4,0.9-0.9,1.4-1.4c0.1-0.1,0.3-0.1,0.4-0.1
		C359.5,272.1,359.5,272.2,359.5,272.3z"/>
	<path class="st0" d="M364.1,289.3c0.9,0.5,0.3,1.3,0.4,1.9c0,1.9-0.1,3.8-0.2,5.7c0,0.2,0.1,0.4,0,0.6c-0.2,0.5-0.4,0.9-0.5,1.3
		c0-0.5,0-0.9,0-1.4C363.9,294.8,364,292.1,364.1,289.3L364.1,289.3z"/>
	<path class="st0" d="M364.1,289.3c-0.1-2-0.2-4-0.3-6c0-0.5,0.2-1,0.3-1.4c0.1,0.5,0.3,0.9,0.3,1.4c0.1,1.3,0.1,2.5,0.1,3.8
		C364.5,287.9,364.3,288.6,364.1,289.3C364.1,289.3,364.1,289.3,364.1,289.3z"/>
	<path class="st0" d="M364.3,276.9c0,1.2,0,2.2,0,3.1c0,0.1,0,0.3-0.1,0.4c-0.1-0.2-0.2-0.3-0.2-0.5c-0.1-2.1-0.2-4.2-0.3-6.2
		c0-0.1,0.1-0.2,0.2-0.3c0.1,0.1,0.2,0.3,0.2,0.4C364.2,275,364.3,276.1,364.3,276.9z"/>
	<path class="st0" d="M367.8,301.1c0,0.3,0,0.5,0,0.8c0,0.1-0.2,0.3-0.3,0.3c-0.2,0-0.4-0.2-0.4-0.3c-0.1-0.2,0-0.4,0-0.6
		c0.1-0.7,0.2-1.4,0.3-2c0.2,0.6,0.4,1.3,0.6,1.9C367.9,301.1,367.8,301.1,367.8,301.1z"/>
	<path class="st0" d="M363.6,305c-0.1-0.9-0.2-1.7-0.2-2.6c0-0.2,0.2-0.4,0.3-0.6c0.1,0.2,0.2,0.4,0.2,0.6
		C363.8,303.3,363.7,304.2,363.6,305L363.6,305z"/>
	<path class="st0" d="M363.6,305c0,0,0,0.1,0,0.1c0,0.7-0.1,1.5-0.1,2.2c-0.1-0.2-0.2-0.4-0.2-0.6c0.1-0.4,0.2-0.9,0.3-1.3
		C363.6,305.3,363.6,305.2,363.6,305C363.6,305,363.6,305,363.6,305z"/>
	<path class="st0" d="M335.5,311.2c0,0-0.1,0.2-0.1,0.3c-0.1-0.2-0.2-0.3-0.2-0.5c0-0.1,0-0.3,0-0.4c0-0.2,0-0.4,0-0.5
		c0.1,0.2,0.3,0.3,0.3,0.5C335.5,310.7,335.5,310.8,335.5,311.2z"/>
	<path class="st0" d="M349.9,281c-0.2,0.1-0.5,0.3-0.7,0.4c0-0.1-0.1-0.2-0.1-0.2c0.2-0.2,0.5-0.4,0.7-0.5
		C349.8,280.7,349.9,280.8,349.9,281z"/>
	<path class="st0" d="M286.1,311.4c0.2,0.1,0.5,0.2,0.8,0.4c-0.2,0.3-0.4,0.6-0.6,0.8c-2.6,2-5.3,3.9-8,5.8
		c-0.5,0.4-1.1,0.7-1.7,0.9c-0.1,0.1-0.5,0-0.5-0.1c-0.1-0.2-0.3-0.5-0.2-0.7c0.3-0.5,0.6-1,1.1-1.3c2.6-1.9,5.2-3.7,7.8-5.5
		C285.1,311.5,285.5,311.5,286.1,311.4z"/>
	<path class="st0" d="M301.5,289.1c1,0.4,2.1,0.8,3.1,1.3c0.1,0.1,0.2,0.3,0.3,0.5c-0.2,0.1-0.4,0.2-0.5,0.2
		c-1.2-0.4-2.4-0.9-3.6-1.4c-0.1,0-0.2-0.2-0.2-0.2c0.1-0.1,0.2-0.3,0.3-0.3c0.2,0,0.4,0,0.6,0C301.4,289.2,301.4,289.2,301.5,289.1
		z"/>
	<path class="st0" d="M182.5,367.8c-2.5,0.2-4.9,0.5-7.4,0.7c-0.2,0-0.4,0.1-0.6,0.1c-0.4-0.1-0.8-0.2-1.3-0.3
		c0.4-0.1,0.8-0.3,1.2-0.3c1.5-0.3,2.9-0.6,4.4-0.7c1.7-0.1,3.4,0,5.1,0c0.2,0,0.4,0,0.6,0.1c0.2,0.1,0.2,0.3,0.4,0.5
		c-0.2,0.1-0.3,0.2-0.5,0.2C183.8,368,183.2,367.9,182.5,367.8C182.5,367.8,182.5,367.8,182.5,367.8z"/>
	<path class="st0" d="M274,358.4c-0.2,0.7-0.4,1.5-0.7,2.1c0,0.1-0.4,0.1-0.6,0.2c0-0.2,0-0.4,0.1-0.5
		C273.2,359.6,273.6,359,274,358.4L274,358.4z"/>
	<path class="st0" d="M176.6,402.5c2.2,0,4.3,0,6.5,0c0.2,0,0.3,0.1,0.5,0.2c-0.2,0.1-0.3,0.3-0.5,0.3c-2,0.1-4.1,0.1-6.2,0.1
		c-1.8,0-3.6,0.2-5.4,0.1c-0.7,0-1.5-0.3-2.2-0.4c0.7-0.1,1.4-0.3,2.2-0.3C173.1,402.4,174.8,402.5,176.6,402.5
		C176.6,402.5,176.6,402.5,176.6,402.5z"/>
	<path class="st0" d="M180.3,397.2c1.7,0,3.3,0,5,0c0.2,0,0.4,0.1,0.6,0.1c-0.2,0.1-0.4,0.2-0.6,0.2c-1.5,0.1-3,0.1-4.5,0.1
		C180.6,397.6,180.4,397.3,180.3,397.2L180.3,397.2z"/>
	<path class="st0" d="M180.3,397.2c-0.9,0.5-1.8,0.4-2.8,0.2c-0.4-0.1-0.7,0.1-1.1,0.1c0.4-0.1,0.9-0.3,1.3-0.3
		C178.5,397.1,179.4,397.2,180.3,397.2C180.3,397.2,180.3,397.2,180.3,397.2z"/>
	<path class="st0" d="M174,397.1c0.4,0.1,0.6,0.1,0.8,0.1c-0.3,0.1-0.7,0.3-1,0.4c-0.1,0-0.3-0.1-0.4-0.1
		C173.5,397.4,173.8,397.2,174,397.1z"/>
	<path class="st0" d="M277.4,354.1c0.8-0.9,1.9-1.4,2.2-2.8c0.1-0.3,0.5-0.6,0.8-0.8c0.1-0.1,0.3,0,0.4,0.1c0.1,0.1,0.1,0.3,0.1,0.4
		C279.8,352.1,279.4,354.1,277.4,354.1C277.3,354.1,277.4,354.1,277.4,354.1z"/>
	<path class="st0" d="M336.7,297.4c0,0.3,0,0.4-0.1,0.6c-0.1,0.4-0.3,0.9-0.5,1.3c0-0.4,0-0.8,0-1.3c0-0.2,0-0.4,0-0.6
		c0.1-0.3,0.2-0.5,0.4-0.7C336.6,296.9,336.6,297.2,336.7,297.4z"/>
	<path class="st0" d="M336.9,295.1c-0.1,0.3-0.3,0.5-0.4,0.8c-0.1-0.3-0.3-0.5-0.3-0.8c0-0.2,0.2-0.5,0.3-0.7
		C336.7,294.6,336.8,294.8,336.9,295.1z"/>
</g>
</svg>
