<?xml version="1.0" encoding="utf-8"?>
<!-- Generator: Adobe Illustrator 22.1.0, SVG Export Plug-In . SVG Version: 6.00 Build 0)  -->
<svg version="1.1" id="Layer_1" xmlns="http://www.w3.org/2000/svg" xmlns:xlink="http://www.w3.org/1999/xlink" x="0px" y="0px"
	 viewBox="0 0 64 64" style="enable-background:new 0 0 64 64;" xml:space="preserve">
<style type="text/css">
	.st0{fill:#2B2B2B;}
</style>
<title>ic/menu-assortiment</title>
<desc>Created with Sketch.</desc>
<path class="st0" d="M61.5,35.2c-0.3-0.7-0.5-1.3-0.8-2c-0.1-0.2-0.2-0.4-0.1-0.7c0.1-0.2,0.1-0.3-0.1-0.3c-0.1,0-0.2,0-0.3-0.1
	c-0.4-0.2-0.5-0.6-0.2-1c0.2-0.2,0.1-0.3-0.1-0.4c-0.3-0.2-0.5-0.4-0.7-0.6c-0.3-0.3-0.2-0.7,0.1-1c0-0.1,0.1-0.2,0.4,0
	c-0.3-0.3-0.6-0.5-0.8-0.7c-0.5-0.6-0.4-1.1,0.2-1.6c0.3-0.2,0.5-0.3,0.8-0.5c-0.2-0.1-0.4-0.2-0.6-0.3c-0.8-0.4-1.8-1.8-2.2-2.6
	C56.9,23,57,22.3,57.5,22c0.6-0.3,1.1-0.5,1.7-0.7c0.2-0.1,0.4-0.1,0.6-0.2C59.7,21,59.6,21,59.6,21c-0.7-0.6-1.4-1.2-2.2-1.7
	c-0.3-0.2-0.3-0.3-0.2-0.6c0.1-0.2,0.1-0.4-0.2-0.4c-0.2-0.1-0.5-0.1-0.7-0.2c-0.3,0-0.6-0.1-0.9-0.2c0-0.1,0-0.2,0-0.2
	c0.1-0.5,0.1-0.4-0.3-0.6c-0.4-0.1-0.7-0.3-1-0.4c-0.1-0.6,0.2-0.8,0.7-0.9c0.2-0.1,0.3-0.2,0.3-0.4c0-0.2,0.1-0.3,0.3-0.4
	c0.6-0.3,1.3-0.5,1.9-0.8c0.1,0,0.1-0.1,0.3-0.2c-0.4-0.2-0.8-0.4-1.2-0.5c-0.3-0.1-0.7-0.3-0.6-0.7c0.1-0.4-0.2-0.5-0.5-0.6
	c-0.1,0-0.3-0.1-0.4-0.1c-0.3-0.1-0.4-0.2-0.3-0.5c0.1-0.2,0.1-0.4,0.2-0.6c-0.1,0-0.2,0-0.3,0c-0.2,0-0.4,0-0.6-0.1
	c-0.8-0.3-1.1-0.9-0.8-1.8c0-0.3,0.1-0.5,0.2-0.8c-0.1,0-0.2,0-0.3,0c-0.3,0-0.6,0.1-0.9,0.2c-0.5,0.1-0.9,0-0.9-0.3
	c0-0.4-0.2-0.5-0.6-0.4c-0.1,0-0.2,0-0.3,0C50,7.7,49.9,7.5,50,7.2c0-0.2,0.1-0.4,0.2-0.6c0.1-0.4,0.2-0.8,0.4-1.3
	c-0.2,0-0.3,0.1-0.4,0.1c-0.4,0.1-0.9,0.3-1.3,0.4c-0.2,0.1-0.6,0.1-0.8,0c-0.3-0.1-0.5-0.1-0.6,0.2c-0.2,0.3-0.5,0.7-0.7,1
	c-0.1,0-0.2,0-0.3-0.2c-0.3-0.3-0.6-0.4-1-0.1s-0.7,0.1-0.8-0.4c-0.2-0.7-0.3-1.5-0.4-2.2c-0.1-0.2-0.1-0.4-0.5-0.6
	c-0.1,0.2-0.2,0.3-0.3,0.4c-0.3,0.4-0.7,0.8-1.1,1.1c-0.5,0.4-1,0.2-1.2-0.3c-0.1-0.2-0.1-0.3-0.2-0.5c-0.2,0.2-0.5,0.5-0.7,0.7
	C39.9,5.3,39.4,5.3,39,5h-0.1h-0.1c-0.2,0.5-0.5,0.9-0.7,1.3c-0.1,0.1-0.2,0.2-0.3,0.2c-0.3-0.1-0.4,0.1-0.4,0.3
	c-0.1,0.4-0.2,0.8-0.3,1.1C37,8.2,36.7,8.2,36.5,8c0-0.1-0.1-0.2-0.2-0.3c0,0.1-0.1,0.1-0.1,0.2c-0.2,0.8-0.5,1.5-0.7,2.3
	c-0.1,0.3-0.1,0.6-0.1,0.9c0,1,0.2,2.1,0.3,3.1c0.2,1.3,0.2,2.6-0.6,3.7C35,18,35,18.2,34.9,18.2c-0.3,0.5-0.2,0.6-0.7,0.8
	c-0.1-0.1-0.4-0.4-0.4-0.5c-0.3-1.1,0-11.3-0.2-14.5c0.2-0.4-1.8,0.6-2.2,0.5c-0.8,1.6,0.5,13.2,0.3,15c-0.6-0.4-0.3-0.1-0.8-0.5
	c-0.8-0.6-1.4-1.4-1.9-2.3c-0.5-0.7-0.8-1.3-1-2.1c-0.1-0.5-0.2-0.8-0.5-1.1c-0.7-0.9-1.5-1.9-2-3c0-0.1-0.1-0.2-0.2-0.4
	c-0.1,0.4-0.3,0.7-0.4,1c-0.2-0.1-0.4-0.2-0.5-0.3c-0.6-0.6-1.1-1.1-1.7-1.7C22.5,9,22.3,8.8,22,8.5c-0.2,0.2-0.2,0.4-0.3,0.6
	c-0.2,0.4-0.2,0.4-0.6,0.3c-0.3-0.1-0.6-0.2-0.9-0.3c-0.1,0-0.2,0-0.3,0c-0.2,0.1-0.4,0.3-0.6,0.3c-0.7,0.1-1.4,0.1-2.1,0.2
	c-0.1,0.1-0.2,0.1-0.4,0.1c0.2,0.2,0.4,0.4,0.5,0.6c0.3,0.4,0.6,0.8,0.9,1.2c0.2,0.2,0.2,0.5,0.1,0.7c-0.1,0.2-0.4,0.2-0.6,0.2
	c-0.1,0-0.2-0.1-0.3-0.1c-0.6-0.2-0.6-0.2-1,0.4h-0.1c-0.5-0.2-0.9-0.3-1.3-0.5c-0.2-0.1-0.3-0.1-0.4,0.2c0,0.3-0.2,0.4-0.5,0.4
	c-0.8,0.1-1.5,0.1-2.3,0.2c-0.2,0-0.4,0-0.7,0.1c0.2,0.2,0.2,0.3,0.3,0.4c0.2,0.3,0.5,0.6,0.7,0.9c0.1,0.2,0.2,0.4,0.1,0.5
	c0,0.1-0.2,0.2-0.4,0.2s-0.3,0-0.5,0c-0.1,0-0.2,0-0.4,0c0.1,0.2,0.2,0.4,0.2,0.6c0,0.3-0.1,0.4-0.3,0.4c-0.1,0-0.2,0-0.3,0
	c-0.4-0.2-0.7-0.1-1,0.1c-0.6,0.3-1.1,0.6-1.7,0.9c-0.1,0.1-0.1,0.2,0,0.3c0.3,0.1,0.5,0.3,0.7,0.5c0.4,0.4,0.4,0.7-0.1,0.9
	C8,19,7.6,19,7.2,19.2c-0.2,0-0.5,0-0.8,0.1C6.7,19.5,6.8,19.8,7,20c0.3,0.3,0.3,0.7,0,0.9C6.7,21,6.5,21,6.2,21.2
	c-0.2,0.1-0.3,0.1-0.5,0.1v0.1c0.2,0.1,0.3,0.3,0.5,0.4C6.4,22,6.5,22,6.3,22.2s-0.4,0.4-0.6,0.5c-1,0.6-1.9,1.1-2.9,1.6
	c-0.1,0-0.2,0.1-0.4,0.2c0.1,0.1,0.1,0.1,0.1,0.1c0.2,0,0.3,0,0.5,0c1.9,0.1,3.7,0.2,5.5,0.4c0.8,0,1.6,0.2,2.3,0.5
	c0.5,0.3,0.5,0.9,0,1.2c-0.3,0.1-0.6,0.3-0.9,0.4c-0.8,0.2-0.8,0.2-0.7,1c0,0.4-0.1,0.6-0.4,0.8c-0.4,0.3-0.8,0.5-1.2,0.8
	c-0.1,0-0.2,0.1-0.3,0.2c0.2,0.1,0.5,0.3,0.3,0.6c-0.2,0.3-0.3,0.6-0.4,0.7c-0.7,1-1.7,1.8-2.7,2.5C4.3,33.8,4.2,34,4,34.2
	c0.2,0.1,0.3,0.1,0.4,0.1c1.2,0.1,2.5,0.2,3.7,0.3c0.5,0.1,0.7,0.3,0.6,0.8c-0.1,0.2-0.2,0.5-0.3,0.7c-0.1,0.2-0.1,0.3-0.2,0.6
	c0.1,0.1,0.3,0.2,0.5,0.3c-0.2,0.5-0.3,0.9-0.5,1.3c-0.1,0.5-0.3,0.9-0.5,1.3C7.6,39.8,7.6,40,8,40c0.7,0,1.5,0,2.2,0
	c0.4,0,0.4,0.1,0.3,0.4c-0.1,0.2-0.2,0.3-0.3,0.5c-0.3,0.3-0.3,1.6-0.6,1.9c-0.2,0.2-0.2,0.3,0,0.4c0.2,0.1,0.4,0.2,0.6,0.3
	c0.6,0.3,0.6,0.5,0.4,1.1c-0.3,0.8-0.8,1.4-1.4,2C9.1,46.7,9,46.8,8.9,47c0.4,0,0.6,0,0.9,0c0.6,0.1,0.8,0.4,0.6,1
	c-0.1,0.5-0.3,0.9-0.4,1.4c0,0.1-0.1,0.3,0.1,0.4c0.3,0.1,0.3,0.3,0.3,0.6c-0.1,1.7-0.1,3.3-0.1,5c0,0,0,0.1,0,0.3
	c0.2-0.2,0.3-0.3,0.4-0.4c1.4-1.6,2.9-3.1,4.3-4.7c0.2-0.3,0.4-0.3,0.7-0.2h0.1c0.2,0.1,0.4,0.1,0.5-0.2c0-0.2,0.2-0.3,0.3-0.3
	c1.1-0.3,2-0.8,2.9-1.5c0.1-0.1,0.2-0.1,0.3-0.1c0.5,0.1,0.6,0,0.7-0.4c0.1-0.4,0.2-0.5,0.6-0.4c0.3,0.1,0.5,0.2,0.7,0.3
	s0.3,0.1,0.4-0.1c0.3-0.7,0.7-1.4,1-2.1c0.2-0.4,0.3-0.4,0.6-0.3s0.4,0.1,0.5-0.3l1,0.3l0.3,1.2c-0.2,0.4-0.3,0.9-0.4,1.3h0.1
	c0.1,0,0.2-0.1,0.3-0.1c0.2,0,0.4,0,0.6,0.1c0.3,0.1,0.3,0.4,0.2,0.6c-0.2,0.4-0.8,1.2-0.9,2.1c0,0.1,0,0.2,0,0.3
	c0.1,0,0.1,0,0.2-0.1c0.9-0.8,1.8-1.5,2.7-2.3c0.3-0.2,0.6-0.2,0.8,0.1c0.2,0.2,0.3,0.4,0.4,0.7c0.2,0.5,0.2,0.5,0.6,0.2
	c0,0,0,0,0.1,0c0,0,0.1,0.1,0.1,0.2c0.2,0.8,0.5,1.5,0.8,2.3c0.1,0.2,0.2,0.2,0.5,0c0.3-0.2,0.7-0.5,1-0.7c0.4-0.2,0.7-0.2,0.9,0.1
	c0.1,0.2,0.2,0.5,0.3,0.7c0.2,0.6,0.5,1.3,0.7,1.9c0,0.2,0.1,0.2,0.3,0.1c0.2-0.1,0.3-0.3,0.5-0.4c0.4-0.3,0.6-0.3,0.9,0.1
	c0.1,0.1,0.2,0.2,0.4,0.3c0.4,0.1,0.6,0.4,0.7,0.9c0,0.2,0,0.4,0,0.6s0.1,0.3,0.3,0.2c0.3-0.1,0.5-0.1,0.7-0.2c0.2,0,0.4,0,0.6,0.1
	c0.9,0.5,1.6,1.1,2.3,1.9c0.1,0.1,0.2,0.2,0.3,0.3c0.1-0.1,0.1-0.2,0.2-0.3c1.8,1,3.6,1.9,5.4,2.9c0.1-0.1,0.1-0.2,0.1-0.3
	c0-0.5,0-0.9,0.1-1.4c0.1-0.8-0.1-1.6,0.4-2.3c0-0.1,0-0.1,0-0.1c-0.1,0-0.1,0-0.1,0c0-0.2-0.1-0.4-0.2-0.6c-0.1-0.3-0.1-0.7-0.2-1
	c-0.2-0.6,0-1,0.3-1.5c0.1-0.1,0.2-0.3,0.1-0.5c-0.2-0.8-0.5-1.6-0.7-2.4c0.3-0.2,0.5-0.3,0.8-0.5c0.1-0.1,0.2-0.2,0.1-0.4
	c-0.1-0.2-0.2-0.5-0.3-0.7c-0.1-0.2-0.2-0.4,0-0.6c0.2-0.3,0.1-0.4-0.1-0.6c-0.4-0.3-0.3-0.7,0.1-0.9c0.1-0.1,0.3-0.2,0.4-0.2
	c0.1,0,0.2-0.1,0.3-0.1c-0.2-0.4-0.4-0.7-0.6-1c-0.4-0.5-0.2-1,0.1-1.4c0.1,0,0.1-0.1,0.1-0.1c0.2-0.5,0.6-0.7,1.1-0.8
	c0.4,0,0.7-0.1,1.1-0.2c-0.5-0.8-0.9-1.5-1.4-2.2c0.3-0.1,0.5-0.3,0.7-0.4c-0.1-0.2-0.2-0.5-0.3-0.7c-0.1-0.3,0.1-0.6,0.4-0.7
	c0.4-0.1,0.8-0.1,1.2,0c0.5,0.1,0.9,0.2,1.5,0.3c-0.1-0.2-0.7-0.3-0.6-0.5c-1.1-0.5-1.9-1.2-2.2-2.5c0.3-0.2,0.6-0.2,1.1,0
	c0.9,0.4,1.8,0.7,2.7,1.1c0.3,0.1,0.4,0.1,0.5-0.2c0-0.3,0.2-0.4,0.4-0.4c0.5,0,1.1-0.1,1.6-0.1c0.4,0,0.7-0.1,0.8-0.5
	c0-0.1,0.1-0.1,0.1-0.2c0.4,0.1,0.9,0.3,1.3,0.4c0.3,0.1,0.4,0.1,0.5-0.2c0.1,0,0.2-0.1,0.3-0.1c0.6,0,1.2-0.1,1.8-0.2
	c0.4-0.1,0.7-0.1,1.1-0.2C61.5,35.5,61.5,35.3,61.5,35.2z M45.3,41.7c-0.3,1.4-1.2,2.5-2.5,3.1c-1,0.5-2,0.8-3.1,0.9
	c-1,0.1-2-0.2-2.9-0.7c-1.1-0.6-1.9-1.5-2.7-2.5c-0.7-1-1.3-2-1.8-3.1c-0.7-1.4-1.4-2.9-2.1-4.3c-0.4-0.9-0.7-1.9-1.1-2.8
	c-0.8-2.2-1.6-4.3-2.6-6.4c-0.7-1.4-1.4-2.7-2.3-3.9c-0.5-0.7-1.1-1.3-1.9-1.7c-0.7-0.4-1.5-0.1-1.7,0.7c-0.1,0.4,0.1,0.8,0.5,1
	c0.2,0.1,0.4,0.1,0.6,0.2c0.7,0.3,0.8,1,0.3,1.5c-0.5,0.4-1,0.7-1.7,0.7c-0.2,0-0.4-0.1-0.5-0.1c-1-0.6-1.5-1.4-1.5-2.5
	c0-0.5,0.2-0.9,0.4-1.3c0.7-1.1,1.7-1.8,3-2c0.8-0.2,1.6,0.1,2.3,0.6c0.7,0.5,1.3,1.2,1.8,1.9c0.7,1.1,1.3,2.2,1.9,3.4
	c1.1,2.2,2,4.4,2.9,6.6c0.9,2.1,1.7,4.1,2.8,6.1c0.4,0.7,0.8,1.4,1.2,2.1c0,0.1,0.1,0.1,0.1,0.2c0.3-0.2,0.6-0.4,0.9-0.6
	c1.4-0.9,3-1.5,4.7-1.7c1.1-0.1,2.1-0.1,3.2,0.3c0.4,0.1,0.8,0.4,1.1,0.7c0.3,0.4,0.6,0.8,0.6,1.3C45.5,39.9,45.5,40.8,45.3,41.7z"
	/>
</svg>
