<?xml version="1.0" encoding="utf-8"?>
<!-- Generator: Adobe Illustrator 22.1.0, SVG Export Plug-In . SVG Version: 6.00 Build 0)  -->
<svg version="1.1" id="Layer_1" xmlns="http://www.w3.org/2000/svg" xmlns:xlink="http://www.w3.org/1999/xlink" x="0px" y="0px"
	 viewBox="0 0 64 64" style="enable-background:new 0 0 64 64;" xml:space="preserve">
<style type="text/css">
	.st0{fill:#2B2B2B;}
</style>
<title>ic/menu-assortiment</title>
<desc>Created with Sketch.</desc>
<path class="st0" d="M61.5,35.2c-0.3-0.7-0.5-1.3-0.8-2c-0.1-0.2-0.2-0.4-0.1-0.7c0.1-0.2,0.1-0.3-0.1-0.3c-0.1,0-0.2,0-0.3-0.1
	c-0.4-0.2-0.5-0.6-0.2-1c0.2-0.2,0.1-0.3-0.1-0.4c-0.3-0.2-0.5-0.4-0.7-0.6c-0.3-0.3-0.2-0.7,0.1-1c0-0.1,0.1-0.2,0.4,0
	c-0.3-0.3-0.6-0.5-0.8-0.7c-0.5-0.6-0.4-1.1,0.2-1.6c0.3-0.2,0.5-0.3,0.8-0.5c-0.2-0.1-0.4-0.2-0.6-0.3c-0.8-0.4-1.8-1.8-2.2-2.6
	C56.9,23,57,22.3,57.5,22c0.6-0.3,1.1-0.5,1.7-0.7c0.2-0.1,0.4-0.1,0.6-0.2C59.7,21,59.6,21,59.6,21c-0.7-0.6-1.4-1.2-2.2-1.7
	c-0.3-0.2-0.3-0.3-0.2-0.6c0.1-0.2,0.1-0.4-0.2-0.4c-0.2-0.1-0.5-0.1-0.7-0.2c-0.3,0-0.6-0.1-0.9-0.2c0-0.1,0-0.2,0-0.2
	c0.1-0.5,0.1-0.4-0.3-0.6c-0.4-0.1-0.7-0.3-1-0.4c-0.1-0.6,0.2-0.8,0.7-0.9c0.2-0.1,0.3-0.2,0.3-0.4c0-0.2,0.1-0.3,0.3-0.4
	c0.6-0.3,1.3-0.5,1.9-0.8c0.1,0,0.1-0.1,0.3-0.2c-0.4-0.2-0.8-0.4-1.2-0.5c-0.3-0.1-0.7-0.3-0.6-0.7s-0.2-0.5-0.5-0.6
	c-0.1,0-0.3-0.1-0.4-0.1c-0.3-0.1-0.4-0.2-0.3-0.5c0.1-0.2,0.1-0.4,0.2-0.6c-0.1,0-0.2,0-0.3,0c-0.2,0-0.4,0-0.6-0.1
	c-0.8-0.3-1.1-0.9-0.8-1.8c0-0.3,0.1-0.5,0.2-0.8c-0.1,0-0.2,0-0.3,0c-0.3,0-0.6,0.1-0.9,0.2c-0.5,0.1-0.9,0-0.9-0.3
	c0-0.4-0.2-0.5-0.6-0.4c-0.1,0-0.2,0-0.3,0C50,7.7,49.9,7.5,50,7.2c0-0.2,0.1-0.4,0.2-0.6c0.1-0.4,0.2-0.8,0.4-1.3
	c-0.2,0-0.3,0.1-0.4,0.1c-0.4,0.1-0.9,0.3-1.3,0.4c-0.2,0.1-0.6,0.1-0.8,0c-0.3-0.1-0.5-0.1-0.6,0.2C47.3,6.3,47,6.7,46.8,7
	C46.7,7,46.6,7,46.5,6.8c-0.3-0.3-0.6-0.4-1-0.1s-0.7,0.1-0.8-0.4c-0.2-0.7-0.3-1.5-0.4-2.2c-0.1-0.2-0.1-0.4-0.5-0.6
	c-0.1,0.2-0.2,0.3-0.3,0.4c-0.3,0.4-0.7,0.8-1.1,1.1c-0.5,0.4-1,0.2-1.2-0.3c-0.1-0.2-0.1-0.3-0.2-0.5c-0.2,0.2-0.5,0.5-0.7,0.7
	C39.9,5.3,39.4,5.3,39,5C39,5,38.9,5,38.9,5S38.8,5,38.8,5c-0.2,0.5-0.5,0.9-0.7,1.3c-0.1,0.1-0.2,0.2-0.3,0.2
	c-0.3-0.1-0.4,0.1-0.4,0.3c-0.1,0.4-0.2,0.8-0.3,1.1C37,8.2,36.7,8.2,36.5,8c0-0.1-0.1-0.2-0.2-0.3c0,0.1-0.1,0.1-0.1,0.2
	c-0.2,0.8-0.5,1.5-0.7,2.3c-0.1,0.3-0.1,0.6-0.1,0.9c0,1,0.2,2.1,0.3,3.1c0.2,1.3,0.2,2.6-0.6,3.7C35,18,35,18.2,34.9,18.2
	c-0.3,0.5-0.2,0.6-0.7,0.8c-0.1-0.1-0.4-0.4-0.4-0.5c-0.3-1.1,0-11.3-0.2-14.5c0.2-0.4-1.8,0.6-2.2,0.5c-0.8,1.6,0.5,13.2,0.3,15
	c-0.6-0.4-0.3-0.1-0.8-0.5c-0.8-0.6-1.4-1.4-1.9-2.3c-0.5-0.7-0.8-1.3-1-2.1c-0.1-0.5-0.2-0.8-0.5-1.1c-0.7-0.9-1.5-1.9-2-3
	c0-0.1-0.1-0.2-0.2-0.4c-0.1,0.4-0.3,0.7-0.4,1c-0.2-0.1-0.4-0.2-0.5-0.3c-0.6-0.6-1.1-1.1-1.7-1.7C22.5,9,22.3,8.8,22,8.5
	c-0.2,0.2-0.2,0.4-0.3,0.6c-0.2,0.4-0.2,0.4-0.6,0.3c-0.3-0.1-0.6-0.2-0.9-0.3c-0.1,0-0.2,0-0.3,0c-0.2,0.1-0.4,0.3-0.6,0.3
	c-0.7,0.1-1.4,0.1-2.1,0.2c-0.1,0.1-0.2,0.1-0.4,0.1c0.2,0.2,0.4,0.4,0.5,0.6c0.3,0.4,0.6,0.8,0.9,1.2c0.2,0.2,0.2,0.5,0.1,0.7
	c-0.1,0.2-0.4,0.2-0.6,0.2c-0.1,0-0.2-0.1-0.3-0.1c-0.6-0.2-0.6-0.2-1,0.4h-0.1c-0.5-0.2-0.9-0.3-1.3-0.5c-0.2-0.1-0.3-0.1-0.4,0.2
	c0,0.3-0.2,0.4-0.5,0.4c-0.8,0.1-1.5,0.1-2.3,0.2c-0.2,0-0.4,0-0.7,0.1c0.2,0.2,0.2,0.3,0.3,0.4c0.2,0.3,0.5,0.6,0.7,0.9
	c0.1,0.2,0.2,0.4,0.1,0.5c0,0.1-0.2,0.2-0.4,0.2s-0.3,0-0.5,0c-0.1,0-0.2,0-0.4,0c0.1,0.2,0.2,0.4,0.2,0.6c0,0.3-0.1,0.4-0.3,0.4
	c-0.1,0-0.2,0-0.3,0c-0.4-0.2-0.7-0.1-1,0.1c-0.6,0.3-1.1,0.6-1.7,0.9c-0.1,0.1-0.1,0.2,0,0.3c0.3,0.1,0.5,0.3,0.7,0.5
	c0.4,0.4,0.4,0.7-0.1,0.9C8,19,7.6,19,7.2,19.2c-0.2,0-0.5,0-0.8,0.1C6.7,19.5,6.8,19.8,7,20c0.3,0.3,0.3,0.7,0,0.9
	C6.7,21,6.5,21,6.2,21.2c-0.2,0.1-0.3,0.1-0.5,0.1v0.1c0.2,0.1,0.3,0.3,0.5,0.4C6.4,22,6.5,22,6.3,22.2s-0.4,0.4-0.6,0.5
	c-1,0.6-1.9,1.1-2.9,1.6c-0.1,0-0.2,0.1-0.4,0.2c0.1,0.1,0.1,0.1,0.1,0.1c0.2,0,0.3,0,0.5,0c1.9,0.1,3.7,0.2,5.5,0.4
	c0.8,0,1.6,0.2,2.3,0.5c0.5,0.3,0.5,0.9,0,1.2c-0.3,0.1-0.6,0.3-0.9,0.4c-0.8,0.2-0.8,0.2-0.7,1c0,0.4-0.1,0.6-0.4,0.8
	c-0.4,0.3-0.8,0.5-1.2,0.8c-0.1,0-0.2,0.1-0.3,0.2c0.2,0.1,0.5,0.3,0.3,0.6c-0.2,0.3-0.3,0.6-0.4,0.7c-0.7,1-1.7,1.8-2.7,2.5
	C4.3,33.8,4.2,34,4,34.2c0.2,0.1,0.3,0.1,0.4,0.1c1.2,0.1,2.5,0.2,3.7,0.3c0.5,0.1,0.7,0.3,0.6,0.8c-0.1,0.2-0.2,0.5-0.3,0.7
	c-0.1,0.2-0.1,0.3-0.2,0.6c0.1,0.1,0.3,0.2,0.5,0.3c-0.2,0.5-0.3,0.9-0.5,1.3c-0.1,0.5-0.3,0.9-0.5,1.3C7.6,39.8,7.6,40,8,40
	c0.7,0,1.5,0,2.2,0c0.4,0,0.4,0.1,0.3,0.4c-0.1,0.2-0.2,0.3-0.3,0.5c-0.3,0.3-0.3,1.6-0.6,1.9c-0.2,0.2-0.2,0.3,0,0.4
	c0.2,0.1,0.4,0.2,0.6,0.3c0.6,0.3,0.6,0.5,0.4,1.1c-0.3,0.8-0.8,1.4-1.4,2C9.1,46.7,9,46.8,8.9,47C9.3,47,9.5,47,9.8,47
	c0.6,0.1,0.8,0.4,0.6,1c-0.1,0.5-0.3,0.9-0.4,1.4c0,0.1-0.1,0.3,0.1,0.4c0.3,0.1,0.3,0.3,0.3,0.6c-0.1,1.7-0.1,3.3-0.1,5
	c0,0,0,0.1,0,0.3c0.2-0.2,0.3-0.3,0.4-0.4c1.4-1.6,2.9-3.1,4.3-4.7c0.2-0.3,0.4-0.3,0.7-0.2h0.1c0.2,0.1,0.4,0.1,0.5-0.2
	c0-0.2,0.2-0.3,0.3-0.3c1.1-0.3,2-0.8,2.9-1.5c0.1-0.1,0.2-0.1,0.3-0.1c0.5,0.1,0.6,0,0.7-0.4c0.1-0.4,0.2-0.5,0.6-0.4
	c0.3,0.1,0.5,0.2,0.7,0.3c0.2,0.1,0.3,0.1,0.4-0.1c0.3-0.7,0.7-1.4,1-2.1c0.2-0.4,0.3-0.4,0.6-0.3c0.3,0.1,0.4,0.1,0.5-0.3l1,0.3
	l0.3,1.2c-0.2,0.4-0.3,0.9-0.4,1.3h0.1c0.1,0,0.2-0.1,0.3-0.1c0.2,0,0.4,0,0.6,0.1c0.3,0.1,0.3,0.4,0.2,0.6
	c-0.2,0.4-0.8,1.2-0.9,2.1c0,0.1,0,0.2,0,0.3c0.1,0,0.1,0,0.2-0.1c0.9-0.8,1.8-1.5,2.7-2.3c0.3-0.2,0.6-0.2,0.8,0.1
	c0.2,0.2,0.3,0.4,0.4,0.7c0.2,0.5,0.2,0.5,0.6,0.2c0,0,0,0,0.1,0c0,0,0.1,0.1,0.1,0.2c0.2,0.8,0.5,1.5,0.8,2.3
	c0.1,0.2,0.2,0.2,0.5,0s0.7-0.5,1-0.7c0.4-0.2,0.7-0.2,0.9,0.1c0.1,0.2,0.2,0.5,0.3,0.7c0.2,0.6,0.5,1.3,0.7,1.9
	c0,0.2,0.1,0.2,0.3,0.1c0.2-0.1,0.3-0.3,0.5-0.4c0.4-0.3,0.6-0.3,0.9,0.1c0.1,0.1,0.2,0.2,0.4,0.3c0.4,0.1,0.6,0.4,0.7,0.9
	c0,0.2,0,0.4,0,0.6s0.1,0.3,0.3,0.2c0.3-0.1,0.5-0.1,0.7-0.2c0.2,0,0.4,0,0.6,0.1c0.9,0.5,1.6,1.1,2.3,1.9c0.1,0.1,0.2,0.2,0.3,0.3
	c0.1-0.1,0.1-0.2,0.2-0.3c1.8,1,3.6,1.9,5.4,2.9c0.1-0.1,0.1-0.2,0.1-0.3c0-0.5,0-0.9,0.1-1.4c0.1-0.8-0.1-1.6,0.4-2.3
	c0-0.1,0-0.1,0-0.1c-0.1,0-0.1,0-0.1,0c0-0.2-0.1-0.4-0.2-0.6c-0.1-0.3-0.1-0.7-0.2-1c-0.2-0.6,0-1,0.3-1.5c0.1-0.1,0.2-0.3,0.1-0.5
	c-0.2-0.8-0.5-1.6-0.7-2.4c0.3-0.2,0.5-0.3,0.8-0.5c0.1-0.1,0.2-0.2,0.1-0.4c-0.1-0.2-0.2-0.5-0.3-0.7c-0.1-0.2-0.2-0.4,0-0.6
	c0.2-0.3,0.1-0.4-0.1-0.6c-0.4-0.3-0.3-0.7,0.1-0.9c0.1-0.1,0.3-0.2,0.4-0.2s0.2-0.1,0.3-0.1c-0.2-0.4-0.4-0.7-0.6-1
	c-0.4-0.5-0.2-1,0.1-1.4c0.1,0,0.1-0.1,0.1-0.1c0.2-0.5,0.6-0.7,1.1-0.8c0.4,0,0.7-0.1,1.1-0.2c-0.5-0.8-0.9-1.5-1.4-2.2
	c0.3-0.1,0.5-0.3,0.7-0.4c-0.1-0.2-0.2-0.5-0.3-0.7c-0.1-0.3,0.1-0.6,0.4-0.7c0.4-0.1,0.8-0.1,1.2,0c0.5,0.1,0.9,0.2,1.5,0.3
	c-0.1-0.2-0.7-0.3-0.6-0.5c-1.1-0.5-1.9-1.2-2.2-2.5c0.3-0.2,0.6-0.2,1.1,0c0.9,0.4,1.8,0.7,2.7,1.1c0.3,0.1,0.4,0.1,0.5-0.2
	c0-0.3,0.2-0.4,0.4-0.4c0.5,0,1.1-0.1,1.6-0.1c0.4,0,0.7-0.1,0.8-0.5c0-0.1,0.1-0.1,0.1-0.2c0.4,0.1,0.9,0.3,1.3,0.4
	c0.3,0.1,0.4,0.1,0.5-0.2c0.1,0,0.2-0.1,0.3-0.1c0.6,0,1.2-0.1,1.8-0.2c0.4-0.1,0.7-0.1,1.1-0.2C61.5,35.5,61.5,35.3,61.5,35.2z
	 M41.3,23.9c0.3-0.3,0.7-0.3,0.9-0.1c0.3,0.3,0.3,0.7,0,0.9l-2.9,3c-0.1,0.1-0.3,0.2-0.5,0.2c-0.1,0-0.3-0.1-0.5-0.2
	c-0.3-0.3-0.3-0.7,0-0.9L41.3,23.9z M39.2,21.7c0.3-0.2,0.7-0.2,0.9,0c0.3,0.3,0.3,0.7,0,0.9l-2.9,2.9c-0.1,0.1-0.3,0.2-0.5,0.2
	c-0.2,0-0.3-0.1-0.5-0.2c-0.3-0.3-0.3-0.7,0-0.9L39.2,21.7z M19.9,20.1c0.1-0.3,0.3-0.5,0.5-0.5c0.2-0.1,0.5,0,0.6,0.2l2,2.4
	l4.7,5.7c0.3,0.3,0.3,0.8,0,1.1c-0.1,0.1-0.3,0.2-0.5,0.2s-0.3-0.1-0.5-0.2l-5.5-6.7l-0.3-0.3c-0.1,1.3-0.2,3.3,0.8,4.5
	c1.3,1.5,3.5,4.3,3.5,4.3c0.3,0.3,0.3,0.8,0,1.1c-0.1,0.1-0.3,0.3-0.5,0.3c-0.2,0-0.3-0.1-0.5-0.3c0,0,0-0.1-0.1-0.1
	c-0.5-0.5-2.3-2.8-3.4-4.1C18.6,24.9,19.8,20.3,19.9,20.1z M39.6,43.8c-0.5,0.5-1.1,0.7-1.8,0.7c-0.7,0-1.3-0.3-1.8-0.7L32.2,40
	c-0.3-0.3-0.3-0.7,0-1c0.3-0.3,0.7-0.3,1,0l3.8,3.8c0.2,0.2,0.5,0.3,0.8,0.3s0.6-0.1,0.8-0.3c0.2-0.2,0.3-0.5,0.3-0.8
	c0-0.3-0.1-0.6-0.3-0.8l-3.8-3.8c-0.3-0.3-0.3-0.7,0-1c0.3-0.3,0.7-0.3,1,0l3.8,3.8c0.5,0.5,0.7,1.1,0.7,1.8S40.1,43.2,39.6,43.8z
	 M44.3,27.3l-3.8,3.8c-1,1-2.4,1.6-3.8,1.6c-0.5,0-0.9-0.1-1.3-0.2L24.2,43.7c-0.5,0.5-1.2,0.8-1.9,0.8s-1.4-0.3-1.9-0.8
	c-0.5-0.5-0.8-1.2-0.8-1.9s0.3-1.5,0.8-1.9l11.1-11.2c-0.5-1.8,0.1-3.8,1.4-5.1l3.8-3.8c0.3-0.3,0.8-0.3,1.1,0
	c0.3,0.3,0.3,0.8,0,1.1l-3.8,3.8c-1.1,1.1-1.4,2.6-0.9,4c0.1,0.3,0,0.6-0.2,0.8L21.4,40.9c-0.3,0.3-0.3,0.5-0.3,0.9
	c0,0.3,0.1,0.6,0.3,0.9c0.5,0.5,1.3,0.5,1.7,0l11.4-11.4c0.2-0.2,0.5-0.3,0.8-0.2c0.4,0.1,0.9,0.2,1.3,0.2c1,0,2-0.4,2.7-1.1
	l3.8-3.8c0.3-0.3,0.8-0.3,1.1,0C44.6,26.5,44.6,27.1,44.3,27.3z"/>
</svg>
