<?xml version="1.0" encoding="utf-8"?>
<!-- Generator: Adobe Illustrator 22.1.0, SVG Export Plug-In . SVG Version: 6.00 Build 0)  -->
<svg version="1.1" id="Layer_1" xmlns="http://www.w3.org/2000/svg" xmlns:xlink="http://www.w3.org/1999/xlink" x="0px" y="0px"
	 viewBox="0 0 64 64" style="enable-background:new 0 0 64 64;" xml:space="preserve">
<style type="text/css">
	.st0{fill:#2B2B2B;}
</style>
<title>ic/menu-assortiment</title>
<desc>Created with Sketch.</desc>
<path class="st0" d="M32,0C14.3,0,0,14.3,0,32c0,17.7,14.3,32,32,32s32-14.3,32-32C64,14.3,49.7,0,32,0z M47.4,19.7
	c0.4,0.4,0.4,1,0,1.3L43,25.5c-0.2,0.2-0.4,0.3-0.7,0.3c-0.2,0-0.5-0.1-0.7-0.3c-0.4-0.4-0.4-1,0-1.3l4.4-4.4
	C46.4,19.4,47,19.4,47.4,19.7z M44.2,16.6c0.4,0.4,0.4,1,0,1.3l-4.4,4.4c-0.2,0.2-0.4,0.3-0.7,0.3s-0.5-0.1-0.7-0.3
	c-0.4-0.4-0.4-1,0-1.3l4.4-4.4C43.3,16.3,43.9,16.3,44.2,16.6z M13.8,14.1c0.1-0.4,0.4-0.7,0.7-0.8s0.7,0,0.9,0.3l3,3.6l7,8.5
	c0.4,0.5,0.4,1.2,0,1.7c-0.2,0.2-0.4,0.3-0.7,0.3c-0.3,0-0.5-0.1-0.7-0.3l-8.3-10l-0.4-0.5c-0.2,2-0.3,4.9,1.2,6.8
	c1.9,2.3,5.3,6.4,5.3,6.4c0.4,0.5,0.4,1.2,0,1.7c-0.2,0.2-0.5,0.4-0.7,0.4c-0.3,0-0.5-0.1-0.7-0.4c0,0,0-0.1-0.1-0.2
	c-0.7-0.8-3.4-4.2-5.1-6.2C11.9,21.4,13.7,14.4,13.8,14.1z M43.4,49.7c-0.7,0.7-1.7,1.1-2.7,1.1s-2-0.4-2.7-1.1L32.3,44
	c-0.4-0.4-0.4-1.1,0-1.5c0.4-0.4,1.1-0.4,1.5,0l5.7,5.7c0.3,0.3,0.7,0.5,1.2,0.5s0.9-0.2,1.2-0.5c0.3-0.3,0.5-0.7,0.5-1.2
	c0-0.4-0.2-0.9-0.5-1.2l-5.7-5.7c-0.4-0.4-0.4-1.1,0-1.5c0.4-0.4,1.1-0.4,1.5,0l5.7,5.7c0.7,0.7,1.1,1.7,1.1,2.7
	C44.5,48,44.1,48.9,43.4,49.7z M50.5,25l-5.7,5.7c-1.5,1.5-3.6,2.4-5.7,2.4c-0.7,0-1.3-0.1-2-0.3L20.3,49.6
	c-0.8,0.8-1.8,1.2-2.9,1.2c-1.1,0-2.1-0.4-2.9-1.2c-0.8-0.8-1.2-1.8-1.2-2.9c0-1.1,0.4-2.2,1.2-2.9L31.2,27
	c-0.7-2.7,0.1-5.7,2.1-7.7l5.7-5.7c0.5-0.5,1.2-0.5,1.6,0c0.4,0.4,0.4,1.2,0,1.6l-5.7,5.7c-1.6,1.6-2.1,3.9-1.4,6
	c0.1,0.4,0,0.9-0.3,1.2L16.1,45.3c-0.4,0.4-0.5,0.8-0.5,1.3c0,0.5,0.2,0.9,0.5,1.3c0.7,0.7,1.9,0.7,2.6,0l17.2-17.2
	c0.3-0.3,0.8-0.4,1.2-0.3c0.6,0.2,1.3,0.3,1.9,0.3c1.5,0,3-0.6,4.1-1.7l5.7-5.7c0.4-0.5,1.2-0.5,1.6,0C50.9,23.8,50.9,24.6,50.5,25z
	"/>
</svg>
