<?xml version="1.0" encoding="utf-8"?>
<!-- Generator: Adobe Illustrator 22.1.0, SVG Export Plug-In . SVG Version: 6.00 Build 0)  -->
<svg version="1.1" id="Layer_1" xmlns="http://www.w3.org/2000/svg" xmlns:xlink="http://www.w3.org/1999/xlink" x="0px" y="0px"
	 viewBox="0 0 64 64" style="enable-background:new 0 0 64 64;" xml:space="preserve">
<style type="text/css">
	.st0{fill:#2B2B2B;}
</style>
<title>ic/point_w</title>
<desc>Created with Sketch.</desc>
<g>
	<path class="st0" d="M32,20.9c2.3,0,4.2,1.9,4.2,4.2s-1.9,4.2-4.2,4.2s-4.2-1.9-4.2-4.2S29.7,20.9,32,20.9 M32,18.9
		c-3.4,0-6.2,2.8-6.2,6.2s2.8,6.2,6.2,6.2s6.2-2.8,6.2-6.2C38.2,21.7,35.4,18.9,32,18.9L32,18.9z"/>
</g>
<path class="st0" d="M32,2c16.5,0,30,13.5,30,30S48.5,62,32,62S2,48.5,2,32S15.5,2,32,2 M32,58.3l1.5-1.7l0.3-0.3
	c0.6-0.7,1.3-1.5,2-2.3c2.1-2.6,4.1-5.3,5.9-7.9c2.6-3.8,4.6-7.4,6.1-10.7c1.8-4,2.7-7.5,2.7-10.5c0-10.1-8.2-18.2-18.4-18.2
	s-18.4,8.2-18.4,18.2c0,3,0.9,6.6,2.7,10.5c1.5,3.3,3.5,6.9,6.1,10.7c1.8,2.6,3.8,5.3,5.9,7.9c0.7,0.8,1.3,1.6,2,2.3l0.3,0.3
	L32,58.3 M32,0C14.3,0,0,14.3,0,32s14.3,32,32,32s32-14.3,32-32S49.7,0,32,0L32,0z M32,55.3c-0.1-0.1-0.2-0.2-0.2-0.3
	c-0.6-0.7-1.2-1.4-1.9-2.3c-2-2.4-4-5-5.8-7.8c-2.4-3.6-4.5-7.1-5.9-10.3c-1.6-3.6-2.5-6.9-2.5-9.7c0-9,7.3-16.2,16.4-16.2
	S48.5,16,48.5,24.9c0,2.8-0.9,6.1-2.5,9.7c-1.5,3.3-3.5,6.8-5.9,10.3c-1.9,2.7-3.8,5.3-5.8,7.8c-0.7,0.8-1.3,1.6-1.9,2.3
	C32.2,55.1,32.1,55.2,32,55.3L32,55.3z"/>
</svg>
