<?xml version="1.0" encoding="utf-8"?>
<!-- Generator: Adobe Illustrator 22.1.0, SVG Export Plug-In . SVG Version: 6.00 Build 0)  -->
<svg version="1.1" id="Layer_1" xmlns="http://www.w3.org/2000/svg" xmlns:xlink="http://www.w3.org/1999/xlink" x="0px" y="0px"
	 viewBox="0 0 64 64" style="enable-background:new 0 0 64 64;" xml:space="preserve">
<style type="text/css">
	.st0{fill:#2B2B2B;}
</style>
<title>ic/point_w</title>
<desc>Created with Sketch.</desc>
<path class="st0" d="M32,20.9c2.3,0,4.2,1.9,4.2,4.2s-1.9,4.2-4.2,4.2s-4.2-1.9-4.2-4.2S29.7,20.9,32,20.9"/>
<path class="st0" d="M32,18.9c-3.4,0-6.2,2.8-6.2,6.2s2.8,6.2,6.2,6.2s6.2-2.8,6.2-6.2C38.2,21.7,35.4,18.9,32,18.9L32,18.9z"/>
<path class="st0" d="M32,0C14.3,0,0,14.3,0,32s14.3,32,32,32s32-14.3,32-32S49.7,0,32,0z M46,34.6c-1.5,3.3-3.5,6.8-5.9,10.3
	c-1.9,2.7-3.8,5.3-5.8,7.8c-0.7,0.8-1.3,1.6-1.9,2.3c-0.2,0.1-0.3,0.2-0.4,0.3c-0.1-0.1-0.2-0.2-0.2-0.3c-0.6-0.7-1.2-1.4-1.9-2.3
	c-2-2.4-4-5-5.8-7.8c-2.4-3.6-4.5-7.1-5.9-10.3c-1.6-3.6-2.5-6.9-2.5-9.7c0-9,7.3-16.2,16.4-16.2c9.1,0,16.4,7.3,16.4,16.2
	C48.5,27.7,47.6,31,46,34.6z"/>
</svg>
