<?xml version="1.0" encoding="utf-8"?>
<!-- Generator: Adobe Illustrator 22.1.0, SVG Export Plug-In . SVG Version: 6.00 Build 0)  -->
<svg version="1.1" id="Layer_1" xmlns="http://www.w3.org/2000/svg" xmlns:xlink="http://www.w3.org/1999/xlink" x="0px" y="0px"
	 viewBox="0 0 64 64" style="enable-background:new 0 0 64 64;" xml:space="preserve">
<style type="text/css">
	.st0{fill:#2B2B2B;}
</style>
<title>ic/menu-assortiment</title>
<desc>Created with Sketch.</desc>
<g>
	<path class="st0" d="M35,19.6h-0.6c-0.6,0-1-0.4-1-1v-3.2v-3.6V8.6h-2.8v3.1v3.6v3.2c0,0.6-0.4,1-1,1H29c-1.9,0-3.4,1.5-3.4,3.4v29
		c0,1.9,1.5,3.4,3.4,3.4h6c1.9,0,3.4-1.5,3.4-3.4V23C38.4,21.1,36.9,19.6,35,19.6z"/>
	<path class="st0" d="M32,0C14.3,0,0,14.3,0,32c0,17.7,14.3,32,32,32s32-14.3,32-32C64,14.3,49.7,0,32,0z M41.6,52
		c0,3.7-3,6.6-6.6,6.6h-6c-3.7,0-6.6-3-6.6-6.6V23c0-3.1,2.1-5.7,5-6.4V6.4c0-0.6,0.4-1,1-1h7.2c0.6,0,1,0.4,1,1v10.2
		c2.9,0.7,5,3.3,5,6.4V52z"/>
</g>
</svg>
