<?xml version="1.0" encoding="utf-8"?>
<!-- Generator: Adobe Illustrator 22.1.0, SVG Export Plug-In . SVG Version: 6.00 Build 0)  -->
<svg version="1.1" id="Touche" xmlns="http://www.w3.org/2000/svg" xmlns:xlink="http://www.w3.org/1999/xlink" x="0px" y="0px"
	 viewBox="0 0 227.5 201.3" style="enable-background:new 0 0 227.5 201.3;" xml:space="preserve">
<path id="LOGO" d="M114.9,72.3c0,0,4-5.2,13.5-5.2c8.1,0,20.8,0,20.8,0V0L80.6,0l0,67.1c3.3,0,12.6,0,20.5,0
	C110.7,67.1,114.9,72.3,114.9,72.3z M90.6,9.5h48.7l-1.9,4.6l1.9,4.7c0,0-12.7,0-19.2,0v5.3c0,35.8-5.2,42.3-5.2,42.3
	s-5.4-5.7-5.4-38.6c0-7.8,5.4-9,5.4-9H90.5l1.9-4.6L90.6,9.5z M15,82.7H0.3v-10h39.9v10H26c0,0,0,19.6,0,32.8c0,9,0,39,0,39H15
	c0,0,0-29.9,0-38.7C15,102.5,15,82.7,15,82.7z M56.4,155.3c10.5,0,16.2-6.3,16.2-17.4V102c0-11-5.7-17.4-16.2-17.4
	C46,84.7,40.2,91,40.2,102v35.9C40.2,149,46,155.3,56.4,155.3z M50.9,101.3c0-4.9,2.1-6.8,5.5-6.8c3.4,0,5.5,1.9,5.5,6.8v37.3
	c0,4.9-2.1,6.8-5.5,6.8c-3.4,0-5.5-1.9-5.5-6.8V101.3z M79,138V85.4h10.7v53.3c0,4.9,2.1,6.7,5.5,6.7c3.4,0,5.5-1.8,5.5-6.7V85.4
	h10.1V138c0,11-5.4,17.4-15.9,17.4C84.4,155.4,79,149.1,79,138z M139.5,108v-6.7c0-4.9-2.8-6.8-6.2-6.8c-3.4,0-5.5,1.9-5.5,6.8v37.3
	c0,4.9,2.1,6.7,5.5,6.7c3.4,0,5.5-1.8,5.5-6.7v-9.9h10.1v9.2c0,11-5.4,17.4-15.9,17.4c-10.5,0-15.9-6.3-15.9-17.4V102
	c0-11,5.4-17.4,15.9-17.4c10.5,0,15.9,6.3,15.9,17.4v6H139.5z M166,154.5h-10.7c0,0,0-20.5,0-22c0-9.7,0-14.8,0-24.1
	c0-2.3,0-22.9,0-22.9H166c0,0,0,21,0,23c0,5.1,0,6.3,0,6.6h12.1c0-0.4,0-1.8,0-6.4c0-2.4,0-23.2,0-23.2H189c0,0,0,20.8,0,23.4
	c0,9.3,0,12.7,0,23c0,1.9,0,22.6,0,22.6h-10.8c0,0,0-20.7,0-22.4c0-6.8,0-7.1,0-7.2H166c0,0,0,0,0,7.3
	C166,133.8,166,154.5,166,154.5z M227.5,124.9v-9.4h0v-13.9c0-8.8-3.4-14.6-10.1-16.6l4.8-12.5h-10.8l-4.9,12.3
	c-7.1,1.8-10.8,7.7-10.8,16.8v36.3c0,11,5.4,17.4,15.9,17.4c10.5,0,15.9-6.3,15.9-17.4v-2.6h-10.1v3.3c0,4.9-2.6,6.7-6,6.7
	c-3.4,0-5.5-1.8-5.5-6.7v-13.7H227.5z M205.8,100.9c0-4.9,2.4-6.8,5.8-6.8c3.4,0,5.9,1.9,5.9,6.8v14.6h-11.8V100.9z M20.5,187.1
	l2.1-5l-1.3-3.2h2.4l3,8l3.3-8h2.2l-4.8,11.1h-1.5l-2.3-5.6l-2.4,5.6h-1.6L15,178.8h2.4L20.5,187.1z M37.4,178.8v11.1h-2.1v-11.1
	H37.4z M44.2,182.2v7.7h-2v-11.1h1.7l6.4,7.7v-7.7h2v11.1h-1.7L44.2,182.2z M59.1,180.7v2.7h3.7v1.7h-3.7v3.1h4.3v1.8h-6.4v-11.1
	h6.4v1.8H59.1z M80.6,181.5c0-1.5-1.2-2.6-3.6-2.6h-3.4V190h3.2c2.6,0,4.3-1.3,4.3-3.3c0-1.4-0.7-2.3-2.1-2.8
	C80.1,183.4,80.6,182.5,80.6,181.5z M75.7,180.5h1.2c1.1,0,1.7,0.6,1.7,1.4c0,0.9-0.6,1.6-1.9,1.6h-1V180.5z M76.8,188.3h-1.1V185
	H77c1.3,0,2,0.7,2,1.6C78.9,187.6,78.3,188.3,76.8,188.3z M91.4,187.1l1.1,2.9h2.4l-4.8-11.3h-1.6L83.6,190H86l1.1-2.9H91.4z
	 M89.3,181.6l1.5,3.9h-3.2L89.3,181.6z M105.7,182.2c0-2.1-1.5-3.3-4.1-3.3h-3.2V190h2.1v-4.3h0.7l3.3,4.3h2.6l-3.8-4.7
	C104.8,184.7,105.7,183.6,105.7,182.2z M100.6,184.3h-0.2v-3.6h0.9c1.4,0,2.2,0.6,2.2,1.7C103.6,183.6,102.6,184.3,100.6,184.3z
	 M114.5,186.8c0,1.8,1.5,3.4,4,3.4c1,0,1.8-0.3,2.5-0.9c0.5,0.6,0.5,0.6,0.5,0.6h2.6c0,0,0,0-1.9-2.2c0.3-0.4,0.5-0.9,0.7-1.5
	l0.6-1.6h-2c-0.2,0.6-0.4,1.1-0.6,1.5c-0.5-0.6-1.1-1.4-1.8-2.2c1.3-0.7,2-1.4,2-2.6c0.1-3.3-5.1-3.5-5.5-0.4
	c-0.1,1,0.3,1.9,0.9,2.7C115.1,184.8,114.5,185.7,114.5,186.8z M117.6,181.2c0.1-1.2,1.9-1.1,1.9,0.2c0,0.8-0.5,1.2-1.1,1.6
	C117.8,182.2,117.6,181.8,117.6,181.2z M117.7,185c0.1,0.1,0.1,0.1,0.2,0.2c0.9,1.1,1.6,2,2.1,2.7c-0.4,0.4-0.9,0.6-1.5,0.6
	c-1.1,0-1.9-0.7-1.9-1.6C116.6,186.2,116.9,185.6,117.7,185z M135.3,178.8v5.1l4.4-5.1h2.7l-4.9,5.4l5.3,5.7H140l-4.7-5.3v5.3h-2.1
	v-11.1H135.3z M148,178.8v11.1H146v-11.1H148z M155.4,189.9v-9.2h-3.6v-1.9h9.4v1.9h-3.6v9.2H155.4z M165.8,184.4
	c0,2.2,1.4,3.7,3.6,3.7c1.4,0,2.5-0.6,3.5-1.8h0l-0.2,2.7c-0.9,0.7-2.3,1.1-3.5,1.1c-3.3,0-5.6-2.3-5.6-5.8c0-3,2.3-5.7,5.6-5.7
	c1.4,0,2.6,0.3,3.6,1l-0.2,2.5h0c-0.7-0.9-1.8-1.5-3.2-1.5C167.2,180.7,165.8,182.3,165.8,184.4z M179.2,178.8v4.4h4.8v-4.4h2.1
	v11.1H184v-4.8h-4.8v4.8h-2.1v-11.1H179.2z M192.9,180.7v2.7h3.7v1.7h-3.7v3.1h4.3v1.8h-6.4v-11.1h6.4v1.8H192.9z M203.5,182.2v7.7
	h-2v-11.1h1.7l6.4,7.7v-7.7h2v11.1h-1.7L203.5,182.2z M1.2,167.3h224.9v2.1H1.2V167.3z M1.2,199.3h224.9v2.1H1.2V199.3z"/>
</svg>
