<?xml version="1.0" encoding="UTF-8"?>
<svg width="155px" height="32px" viewBox="0 0 155 32" version="1.1" xmlns="http://www.w3.org/2000/svg" xmlns:xlink="http://www.w3.org/1999/xlink">
    <!-- Generator: Sketch 50.2 (55047) - http://www.bohemiancoding.com/sketch -->
    <title>c/brand/logo</title>
    <desc>Created with Sketch.</desc>
    <defs>
        <path d="M15.6494507,0.390243902 L24.1815857,0.390243902 L24.1815857,25.3658537 L17.4074875,25.3658537 L17.4074875,12.8356342 L17.0645241,12.8356342 L13.5914164,25.3658537 L10.5901693,25.3658537 L7.11731579,12.8356342 L6.77435244,12.8356342 L6.77435244,25.3658537 L0,25.3658537 L0,0.390243902 L8.53238918,0.390243902 L11.9193112,12.9207158 L12.2622745,12.9207158 L15.6494507,0.390243902 Z M27.7493606,0.390243902 L41.2276215,0.390243902 L41.2276215,3.86874249 L34.8772107,3.86874249 L34.8772107,11.0751777 L40.104369,11.0751777 L40.104369,14.5536762 L34.8772107,14.5536762 L34.8772107,21.8873551 L41.2276215,21.8873551 L41.2276215,25.3658537 L27.7493606,25.3658537 L27.7493606,0.390243902 Z M61.7998812,16.114478 L54.678066,16.114478 L54.678066,13.8425895 C54.678066,11.9808753 53.9879835,11.2194815 52.8664076,11.2194815 C51.7448317,11.2194815 50.9685528,11.9808753 51.0115231,13.8425895 L51.1841716,18.8625199 L50.9685528,23.7828544 C50.9253267,25.6443178 51.7018614,26.4059624 52.8664076,26.4059624 C54.0309538,26.4059624 54.9369109,25.6443178 54.8939406,23.7828544 L54.8507145,22.4918718 L52.6078185,22.4918718 L52.7802112,19.03537 L61.7952772,19.03537 L61.7952772,31.2713561 L58.4308053,31.2713561 L57.6974967,26.3635652 L57.3524554,26.3635652 C56.2308795,28.2674258 54.678066,31.6097812 51.8742541,31.6097812 C46.9569686,31.6097812 44.1531568,27.67537 43.980764,22.4289031 L43.7648894,18.8625199 L43.980764,15.0272028 C44.1531568,9.78098676 47.5178845,5.84632474 52.8664076,5.84632474 C58.2151865,5.84632474 61.7952772,9.78098676 61.7952772,15.0272028 C61.7952772,16.114478 61.7998812,16.114478 61.7998812,16.114478 Z M74.0882096,6.05108571 C79.4369884,6.05108571 82.8444307,9.98599861 83.0170792,15.2319638 L83.2329538,18.8623192 L83.0170792,22.4289533 C82.8444307,27.6751693 79.4369884,31.6098314 74.0882096,31.6098314 C68.7394307,31.6098314 65.3749587,27.6751693 65.202566,22.4289533 L64.9869472,18.8623192 L65.202566,15.2319638 C65.3749587,9.98599861 68.7394307,6.05108571 74.0882096,6.05108571 Z M75.899868,23.4866258 L75.7704455,18.8623192 L75.899868,14.0473505 C75.9430941,12.1858871 75.2097855,11.4242425 74.0882096,11.4242425 C72.9666337,11.4242425 72.2335809,12.1858871 72.2765512,14.0473505 L72.4059736,18.8623192 L72.2765512,23.4866258 C72.2335809,25.3483401 72.9666337,26.1097338 74.0882096,26.1097338 C75.2097855,26.1097338 75.9430941,25.3483401 75.899868,23.4866258 Z M103.975995,19.7298063 C103.803347,23.8335554 100.956309,25.0668376 96.7723317,25.0668376 L86.2044521,25.0668376 L86.2044521,0.249165157 L96.6429092,0.249165157 C100.827142,0.249165157 103.544757,1.48244739 103.846573,5.58619652 L103.932769,6.3297784 C103.587728,11.2797157 98.8860611,11.2195066 96.7293614,11.769416 L96.7293614,12.1078411 C98.8860611,12.5310606 103.803347,12.6399387 104.062191,18.2667261 L103.975995,19.7298063 Z M96.7293614,19.3065868 L96.6861353,18.2667261 L96.7293614,17.18497 C96.7293614,14.7733463 95.8666304,14.7733463 94.5294356,14.7733463 L93.3216634,14.7733463 L93.3216634,21.7182105 L94.5294356,21.7182105 C95.8666304,21.7182105 96.7293614,21.7182105 96.7293614,19.3065868 Z M93.3216634,3.70541603 L93.3216634,9.27324878 L94.5294356,9.27324878 C95.8666304,9.27324878 96.7293614,9.31965993 96.7293614,7.3872 L96.6861353,6.3297784 L96.7293614,5.27235679 C96.7293614,3.70541603 95.8666304,3.70541603 94.5294356,3.70541603 L93.3216634,3.70541603 Z M112.917091,20.5295331 L112.234937,25.0986481 L105.678386,25.0986481 L110.854772,0.28097561 L119.610993,0.28097561 L124.787124,25.0986481 L118.274054,25.0986481 L117.585251,20.5295331 L112.917091,20.5295331 Z M114.592932,9.3053101 L113.744781,14.9872892 L116.759607,14.9872892 L115.915804,9.3053101 L114.592932,9.3053101 Z M147.863606,25.0986481 L147.863606,0.28097561 L154.980817,0.28097561 L154.980817,25.0986481 L147.863606,25.0986481 Z M134.061111,14.8053324 L134.061111,25.0985728 L126.9439,25.0985728 L126.9439,0.249039721 L137.382357,0.249039721 C141.56659,0.249039721 144.284205,1.48232195 144.585765,5.58632195 L144.672217,6.32965296 C144.327176,11.2798411 139.625509,11.2193812 137.468554,11.7695415 L137.468554,12.2667679 C139.625509,12.6899875 144.758413,14.0015415 144.758413,17.7244683 L144.758413,25.0985728 L137.468554,25.0985728 L137.468554,17.2167052 C137.468554,14.9872139 136.606078,14.8053324 135.268884,14.8053324 L134.061111,14.8053324 Z M134.061111,3.70554146 L134.061111,9.27340715 L135.268884,9.27337422 C136.606078,9.27337422 137.468554,9.30523484 137.468554,7.38707456 L137.425583,6.32965296 L137.468554,5.27248223 C137.468554,3.70554146 136.606078,3.70554146 135.268884,3.70554146 L134.061111,3.70554146 Z M0,31.271331 L0,27.8150801 L41.2366502,27.8150801 L41.2366502,31.271331 L0,31.271331 Z M86.2042987,31.271331 L86.2042987,27.8150801 L154.980817,27.8150801 L154.980817,31.271331 L86.2042987,31.271331 Z M43.7649917,3.70561672 L43.7649917,0.249114983 L83.2329538,0.249114983 L83.2329538,3.70561672 L43.7649917,3.70561672 Z" id="path-1"></path>
    </defs>
    <g id="Symbols" stroke="none" stroke-width="1" fill="none" fill-rule="evenodd">
        <g id="c/nav/top-overlay-375" transform="translate(-24.000000, -16.000000)">
            <g id="Nav" transform="translate(24.000000, 16.000000)">
                <g id="c/brand/logo">
                    <g id="Rectangle">
                        <mask id="mask-2" fill="white">
                            <use xlink:href="#path-1"></use>
                        </mask>
                        <use id="Mask" fill="#231F20" xlink:href="#path-1"></use>
                        <g id="color/white" mask="url(#mask-2)" fill="#FFFFFF">
                            <g transform="translate(-8.324808, -3.512195)" id="Rectangle">
                                <rect x="0" y="0" width="175" height="39"></rect>
                            </g>
                        </g>
                    </g>
                </g>
            </g>
        </g>
    </g>
</svg>