<?xml version="1.0" encoding="UTF-8"?>
<svg width="238px" height="50px" viewBox="0 0 238 50" version="1.1" xmlns="http://www.w3.org/2000/svg" xmlns:xlink="http://www.w3.org/1999/xlink">
    <!-- Generator: Sketch 50.2 (55047) - http://www.bohemiancoding.com/sketch -->
    <title>c/brand/logo</title>
    <desc>Created with Sketch.</desc>
    <defs>
        <path d="M24.0294792,0.609756098 L37.1304348,0.609756098 L37.1304348,39.6341463 L26.7289163,39.6341463 L26.7289163,20.0556785 L26.2023016,20.0556785 L20.8694007,39.6341463 L16.2610341,39.6341463 L10.9285236,20.0556785 L10.4019089,20.0556785 L10.4019089,39.6341463 L0,39.6341463 L0,0.609756098 L13.101346,0.609756098 L18.30191,20.1886184 L18.8285247,20.1886184 L24.0294792,0.609756098 Z M42.6086957,0.609756098 L63.3043478,0.609756098 L63.3043478,6.04491014 L53.5533945,6.04491014 L53.5533945,17.3049651 L61.5796118,17.3049651 L61.5796118,22.7401191 L53.5533945,22.7401191 L53.5533945,34.1989923 L63.3043478,34.1989923 L63.3043478,39.6341463 L42.6086957,39.6341463 L42.6086957,0.609756098 Z M94.8927208,25.178872 L83.9572884,25.178872 L83.9572884,21.6290462 C83.9572884,18.7201176 82.8976779,17.5304399 81.1755162,17.5304399 C79.4533545,17.5304399 78.2613908,18.7201176 78.327371,21.6290462 L78.59247,29.4726873 L78.2613908,37.1607099 C78.1950178,40.0692465 79.3873743,41.2593162 81.1755162,41.2593162 C82.9636581,41.2593162 84.3547406,40.0692465 84.2887604,37.1607099 L84.2223875,35.1435497 L80.7784568,35.1435497 L81.043163,29.7427657 L94.8856515,29.7427657 L94.8856515,48.8614939 L89.7195591,48.8614939 L88.5935756,41.1930706 L88.0637703,41.1930706 C86.3416086,44.1678528 83.9572884,49.3902831 79.6520805,49.3902831 C72.101668,49.3902831 67.7964601,43.2427657 67.5317538,35.0451611 L67.2002818,29.4726873 L67.5317538,23.4800044 C67.7964601,15.2827918 72.9629452,9.1348824 81.1755162,9.1348824 C89.3884799,9.1348824 94.8856515,15.2827918 94.8856515,23.4800044 C94.8856515,25.178872 94.8927208,25.178872 94.8927208,25.178872 Z M113.761251,9.45482143 C121.974215,9.45482143 127.206287,15.6031228 127.471386,23.7999434 L127.802858,29.4723737 L127.471386,35.0452395 C127.206287,43.2424521 121.974215,49.3903615 113.761251,49.3903615 C105.548287,49.3903615 100.382195,43.2424521 100.117488,35.0452395 L99.7864092,29.4723737 L100.117488,23.7999434 C100.382195,15.6031228 105.548287,9.45482143 113.761251,9.45482143 Z M116.543023,36.6978528 L116.344297,29.4723737 L116.543023,21.9489852 C116.609396,19.0404486 115.483413,17.8503789 113.761251,17.8503789 C112.039089,17.8503789 110.913498,19.0404486 110.979479,21.9489852 L111.178205,29.4723737 L110.979479,36.6978528 C110.913498,39.6067814 112.039089,40.7964591 113.761251,40.7964591 C115.483413,40.7964591 116.609396,39.6067814 116.543023,36.6978528 Z M159.653463,30.8278223 C159.388364,37.2399303 155.016783,39.1669338 148.592354,39.1669338 L132.365546,39.1669338 L132.365546,0.389320557 L148.393628,0.389320557 C154.81845,0.389320557 158.991305,2.31632404 159.454737,8.72843206 L159.58709,9.89027875 C159.057285,17.6245557 151.837952,17.5304791 148.526374,18.3897125 L148.526374,18.9185017 C151.837952,19.5797822 159.388364,19.7499042 159.785817,28.5417596 L159.653463,30.8278223 Z M148.526374,30.1665418 L148.460001,28.5417596 L148.526374,26.8515157 C148.526374,23.0833537 147.201665,23.0833537 145.148424,23.0833537 L143.293909,23.0833537 L143.293909,33.9347038 L145.148424,33.9347038 C147.201665,33.9347038 148.526374,33.9347038 148.526374,30.1665418 Z M143.293909,5.78971254 L143.293909,14.4894512 L145.148424,14.4894512 C147.201665,14.4894512 148.526374,14.5619686 148.526374,11.5425 L148.460001,9.89027875 L148.526374,8.23805749 C148.526374,5.78971254 147.201665,5.78971254 145.148424,5.78971254 L143.293909,5.78971254 Z M173.382372,32.0773955 L172.334936,39.2166376 L162.267457,39.2166376 L170.215715,0.43902439 L183.660751,0.43902439 L191.608616,39.2166376 L181.607903,39.2166376 L180.550256,32.0773955 L173.382372,32.0773955 Z M175.955599,14.539547 L174.653276,23.4176394 L179.282494,23.4176394 L177.986847,14.539547 L175.955599,14.539547 Z M227.042182,39.2166376 L227.042182,0.43902439 L237.970545,0.43902439 L237.970545,39.2166376 L227.042182,39.2166376 Z M205.848674,23.1333319 L205.848674,39.21652 L194.920311,39.21652 L194.920311,0.389124564 L210.948394,0.389124564 C217.373216,0.389124564 221.54607,2.31612805 222.00911,8.72862805 L222.141856,9.89008275 C221.61205,17.6247517 214.392717,17.5302831 211.080747,18.3899085 L211.080747,19.1668249 C214.392717,19.8281054 222.274209,21.8774085 222.274209,27.6944817 L222.274209,39.21652 L211.080747,39.21652 L211.080747,26.9011019 C211.080747,23.4175218 209.75643,23.1333319 207.703189,23.1333319 L205.848674,23.1333319 Z M205.848674,5.78990854 L205.848674,14.4896987 L207.703189,14.4896472 C209.75643,14.4896472 211.080747,14.5394294 211.080747,11.542304 L211.014767,9.89008275 L211.080747,8.23825348 C211.080747,5.78990854 209.75643,5.78990854 207.703189,5.78990854 L205.848674,5.78990854 Z M0,48.8614547 L0,43.4610627 L63.3182112,43.4610627 L63.3182112,48.8614547 L0,48.8614547 Z M132.36531,48.8614547 L132.36531,43.4610627 L237.970545,43.4610627 L237.970545,48.8614547 L132.36531,48.8614547 Z M67.2004389,5.79002613 L67.2004389,0.38924216 L127.802858,0.38924216 L127.802858,5.79002613 L67.2004389,5.79002613 Z" id="path-1"></path>
    </defs>
    <g id="Components" stroke="none" stroke-width="1" fill="none" fill-rule="evenodd">
        <g id="c/footer/footer-1920" transform="translate(-841.000000, -284.000000)">
            <g id="bot" transform="translate(0.000000, 203.000000)">
                <g id="c/brand/logo" transform="translate(841.000000, 81.000000)">
                    <g id="Rectangle">
                        <mask id="mask-2" fill="white">
                            <use xlink:href="#path-1"></use>
                        </mask>
                        <use id="Mask" fill="#231F20" xlink:href="#path-1"></use>
                        <g id="color/Gray" mask="url(#mask-2)" fill="#999999">
                            <g transform="translate(-12.782609, -5.487805)" id="Rectangle-Copy-3">
                                <rect x="0" y="0" width="269" height="61"></rect>
                            </g>
                        </g>
                    </g>
                </g>
            </g>
        </g>
    </g>
</svg>