<?xml version="1.0" encoding="UTF-8"?>
<svg width="211px" height="44px" viewBox="0 0 211 44" version="1.1" xmlns="http://www.w3.org/2000/svg" xmlns:xlink="http://www.w3.org/1999/xlink">
    <!-- Generator: Sketch 50.2 (55047) - http://www.bohemiancoding.com/sketch -->
    <title>c/brand/logo</title>
    <desc>Created with Sketch.</desc>
    <defs>
        <path d="M21.3034458,0.536585366 L32.9181586,0.536585366 L32.9181586,34.8780488 L23.6966442,34.8780488 L23.6966442,17.6489971 L23.2297716,17.6489971 L18.5018636,34.8780488 L14.416295,34.8780488 L9.6887331,17.6489971 L9.22186041,17.6489971 L9.22186041,34.8780488 L0,34.8780488 L0,0.536585366 L11.6150588,0.536585366 L16.2256429,17.7659842 L16.6925156,17.7659842 L21.3034458,0.536585366 Z M37.7749361,0.536585366 L56.1227621,0.536585366 L56.1227621,5.31952092 L47.4780094,5.31952092 L47.4780094,15.2283693 L54.5936895,15.2283693 L54.5936895,20.0113048 L47.4780094,20.0113048 L47.4780094,30.0951132 L56.1227621,30.0951132 L56.1227621,34.8780488 L37.7749361,34.8780488 L37.7749361,0.536585366 Z M84.1275802,22.1574073 L74.4327221,22.1574073 L74.4327221,19.0335606 C74.4327221,16.4737035 73.4933195,15.4267871 71.966529,15.4267871 C70.4397386,15.4267871 69.3829977,16.4737035 69.4414927,19.0335606 L69.6765175,25.9359648 L69.3829977,32.7014247 C69.3241545,35.2609369 70.3812436,36.3081983 71.966529,36.3081983 C73.5518145,36.3081983 74.7850851,35.2609369 74.7265901,32.7014247 L74.6677469,30.9263237 L71.6145142,30.9263237 L71.8491908,26.1736338 L84.1213129,26.1736338 L84.1213129,42.9981146 L79.5412898,42.9981146 L78.5430439,36.2499021 L78.0733426,36.2499021 C76.5465521,38.8677105 74.4327221,43.4634491 70.6159201,43.4634491 C63.922067,43.4634491 60.105265,38.0536338 59.8705884,30.8397418 L59.5767205,25.9359648 L59.8705884,20.6624038 C60.105265,13.4488568 64.6856363,8.03869652 71.966529,8.03869652 C79.24777,8.03869652 84.1213129,13.4488568 84.1213129,20.6624038 C84.1213129,22.1574073 84.1275802,22.1574073 84.1275802,22.1574073 Z M100.855563,8.32024286 C108.136804,8.32024286 112.775322,13.7307481 113.010347,20.9439502 L113.304215,25.9356889 L113.010347,30.8398108 C112.775322,38.0533578 108.136804,43.4635181 100.855563,43.4635181 C93.5743218,43.4635181 88.9942987,38.0533578 88.7596221,30.8398108 L88.4661023,25.9356889 L88.7596221,20.9439502 C88.9942987,13.7307481 93.5743218,8.32024286 100.855563,8.32024286 Z M103.321756,32.2941105 L103.145574,25.9356889 L103.321756,19.315107 C103.380599,16.7555948 102.382353,15.7083334 100.855563,15.7083334 C99.3287723,15.7083334 98.3308746,16.7555948 98.3893696,19.315107 L98.5655512,25.9356889 L98.3893696,32.2941105 C98.3308746,34.8539676 99.3287723,35.900884 100.855563,35.900884 C102.382353,35.900884 103.380599,34.8539676 103.321756,32.2941105 Z M141.541516,27.1284836 C141.306491,32.7711387 137.430846,34.4669017 131.735239,34.4669017 L117.349286,34.4669017 L117.349286,0.342602091 L131.559057,0.342602091 C137.255013,0.342602091 140.954476,2.03836516 141.365334,7.68102021 L141.482673,8.7034453 C141.012971,15.5096091 134.612638,15.4268216 131.676744,16.182947 L131.676744,16.6482815 C134.612638,17.2302084 141.306491,17.3799157 141.658854,25.1167484 L141.541516,27.1284836 Z M131.676744,26.5465568 L131.6179,25.1167484 L131.676744,23.6293338 C131.676744,20.3133512 130.502316,20.3133512 128.682006,20.3133512 L127.037877,20.3133512 L127.037877,29.8625394 L128.682006,29.8625394 C130.502316,29.8625394 131.676744,29.8625394 131.676744,26.5465568 Z M127.037877,5.09494704 L127.037877,12.7507171 L128.682006,12.7507171 C130.502316,12.7507171 131.676744,12.8145324 131.676744,10.1574 L131.6179,8.7034453 L131.676744,7.24949059 C131.676744,5.09494704 130.502316,5.09494704 128.682006,5.09494704 L127.037877,5.09494704 Z M153.712943,28.228108 L152.784334,34.5106411 L143.858964,34.5106411 L150.905529,0.386341463 L162.825288,0.386341463 L169.871504,34.5106411 L161.005326,34.5106411 L160.067664,28.228108 L153.712943,28.228108 Z M155.99425,12.7948014 L154.839669,20.6075226 L158.943723,20.6075226 L157.795062,12.7948014 L155.99425,12.7948014 Z M201.285295,34.5106411 L201.285295,0.386341463 L210.973886,0.386341463 L210.973886,34.5106411 L201.285295,34.5106411 Z M182.496094,20.3573321 L182.496094,34.5105376 L172.807503,34.5105376 L172.807503,0.342429617 L187.017273,0.342429617 C192.713229,0.342429617 196.412693,2.03819268 196.823202,7.68119268 L196.940889,8.70327282 C196.471188,15.5097815 190.070854,15.4266491 187.134612,16.1831195 L187.134612,16.8668059 C190.070854,17.4487328 197.058227,19.2521195 197.058227,24.3711439 L197.058227,34.5105376 L187.134612,34.5105376 L187.134612,23.6729697 C187.134612,20.6074192 185.960533,20.3573321 184.140222,20.3573321 L182.496094,20.3573321 Z M182.496094,5.09511951 L182.496094,12.7509348 L184.140222,12.7508895 C185.960533,12.7508895 187.134612,12.7946979 187.134612,10.1572275 L187.076117,8.70327282 L187.134612,7.24966307 C187.134612,5.09511951 185.960533,5.09511951 184.140222,5.09511951 L182.496094,5.09511951 Z M0,42.9980801 L0,38.2457352 L56.1350528,38.2457352 L56.1350528,42.9980801 L0,42.9980801 Z M117.349078,42.9980801 L117.349078,38.2457352 L210.973886,38.2457352 L210.973886,42.9980801 L117.349078,42.9980801 Z M59.5768597,5.095223 L59.5768597,0.342533101 L113.304215,0.342533101 L113.304215,5.095223 L59.5768597,5.095223 Z" id="path-1"></path>
    </defs>
    <g id="Symbols" stroke="none" stroke-width="1" fill="none" fill-rule="evenodd">
        <g id="c/nav/top-overlay-1920" transform="translate(-444.000000, -28.000000)">
            <g id="Group" transform="translate(420.000000, 0.000000)">
                <g id="c/brand/logo" transform="translate(24.000000, 28.000000)">
                    <g id="Rectangle">
                        <mask id="mask-2" fill="white">
                            <use xlink:href="#path-1"></use>
                        </mask>
                        <use id="Mask" fill="#231F20" xlink:href="#path-1"></use>
                        <g id="color/primary" mask="url(#mask-2)" fill="#ED8B06">
                            <g transform="translate(-11.332481, -4.829268)" id="Rectangle">
                                <rect x="0" y="0" width="239" height="54"></rect>
                            </g>
                        </g>
                    </g>
                </g>
            </g>
        </g>
    </g>
</svg>